STARTFONT 2.1
FONT -FontForge-Splatoon2-Regular-R-Normal--18-170-75-75-P-54-ISO10646-1
SIZE 17 75 75
FONTBOUNDINGBOX 25 26 0 -6
COMMENT "Generated by fontforge, http://fontforge.sourceforge.net"
COMMENT "Splatoon2 is a trademark of Nintendo."
STARTPROPERTIES 40
FOUNDRY "FontForge"
FAMILY_NAME "Splatoon2"
WEIGHT_NAME "Regular"
SLANT "R"
SETWIDTH_NAME "Normal"
ADD_STYLE_NAME ""
PIXEL_SIZE 18
POINT_SIZE 170
RESOLUTION_X 75
RESOLUTION_Y 75
SPACING "P"
AVERAGE_WIDTH 54
CHARSET_REGISTRY "ISO10646"
CHARSET_ENCODING "1"
FONTNAME_REGISTRY ""
CHARSET_COLLECTIONS "ISO8859-2 ISO8859-5 ISO8859-7 ISO8859-9 JISX0208.1997 ISO10646-1"
FONT_NAME "Splatoon2"
FACE_NAME "Splatoon2"
COPYRIGHT "Splatoon2 is a trademark of Nintendo."
FONT_VERSION "001.001"
FONT_ASCENT 16
FONT_DESCENT 2
UNDERLINE_POSITION -3
UNDERLINE_THICKNESS 1
X_HEIGHT 9
CAP_HEIGHT 13
DEFAULT_CHAR 1
RAW_ASCENT 880
RAW_DESCENT 120
NORM_SPACE 5
RELATIVE_WEIGHT 40
RELATIVE_SETWIDTH 50
SUPERSCRIPT_X 0
SUPERSCRIPT_Y 6
SUPERSCRIPT_SIZE 10
SUBSCRIPT_X 0
SUBSCRIPT_Y 1
SUBSCRIPT_SIZE 10
AVG_LOWERCASE_WIDTH 90
AVG_UPPERCASE_WIDTH 95
ENDPROPERTIES
CHARS 9643
STARTCHAR cid1.dup1
ENCODING 0
SWIDTH 296 0
DWIDTH 5 0
BBX 1 1 0 0
BITMAP
00
ENDCHAR
STARTCHAR uni0001
ENCODING 1
SWIDTH 296 0
DWIDTH 5 0
BBX 1 1 0 0
BITMAP
00
ENDCHAR
STARTCHAR uni0002
ENCODING 2
SWIDTH 296 0
DWIDTH 5 0
BBX 1 1 0 0
BITMAP
00
ENDCHAR
STARTCHAR uni0003
ENCODING 3
SWIDTH 296 0
DWIDTH 5 0
BBX 1 1 0 0
BITMAP
00
ENDCHAR
STARTCHAR uni0004
ENCODING 4
SWIDTH 296 0
DWIDTH 5 0
BBX 1 1 0 0
BITMAP
00
ENDCHAR
STARTCHAR uni0005
ENCODING 5
SWIDTH 296 0
DWIDTH 5 0
BBX 1 1 0 0
BITMAP
00
ENDCHAR
STARTCHAR uni0006
ENCODING 6
SWIDTH 296 0
DWIDTH 5 0
BBX 1 1 0 0
BITMAP
00
ENDCHAR
STARTCHAR uni0007
ENCODING 7
SWIDTH 296 0
DWIDTH 5 0
BBX 1 1 0 0
BITMAP
00
ENDCHAR
STARTCHAR uni0008
ENCODING 8
SWIDTH 296 0
DWIDTH 5 0
BBX 1 1 0 0
BITMAP
00
ENDCHAR
STARTCHAR uni0009
ENCODING 9
SWIDTH 296 0
DWIDTH 5 0
BBX 1 1 0 0
BITMAP
00
ENDCHAR
STARTCHAR uni000A
ENCODING 10
SWIDTH 296 0
DWIDTH 5 0
BBX 1 1 0 0
BITMAP
00
ENDCHAR
STARTCHAR uni000B
ENCODING 11
SWIDTH 296 0
DWIDTH 5 0
BBX 1 1 0 0
BITMAP
00
ENDCHAR
STARTCHAR uni000C
ENCODING 12
SWIDTH 296 0
DWIDTH 5 0
BBX 1 1 0 0
BITMAP
00
ENDCHAR
STARTCHAR CR
ENCODING 13
SWIDTH 296 0
DWIDTH 5 0
BBX 1 1 0 0
BITMAP
00
ENDCHAR
STARTCHAR uni000E
ENCODING 14
SWIDTH 296 0
DWIDTH 5 0
BBX 1 1 0 0
BITMAP
00
ENDCHAR
STARTCHAR uni000F
ENCODING 15
SWIDTH 296 0
DWIDTH 5 0
BBX 1 1 0 0
BITMAP
00
ENDCHAR
STARTCHAR uni0010
ENCODING 16
SWIDTH 296 0
DWIDTH 5 0
BBX 1 1 0 0
BITMAP
00
ENDCHAR
STARTCHAR uni0011
ENCODING 17
SWIDTH 296 0
DWIDTH 5 0
BBX 1 1 0 0
BITMAP
00
ENDCHAR
STARTCHAR uni0012
ENCODING 18
SWIDTH 296 0
DWIDTH 5 0
BBX 1 1 0 0
BITMAP
00
ENDCHAR
STARTCHAR uni0013
ENCODING 19
SWIDTH 296 0
DWIDTH 5 0
BBX 1 1 0 0
BITMAP
00
ENDCHAR
STARTCHAR uni0014
ENCODING 20
SWIDTH 296 0
DWIDTH 5 0
BBX 1 1 0 0
BITMAP
00
ENDCHAR
STARTCHAR uni0015
ENCODING 21
SWIDTH 296 0
DWIDTH 5 0
BBX 1 1 0 0
BITMAP
00
ENDCHAR
STARTCHAR uni0016
ENCODING 22
SWIDTH 296 0
DWIDTH 5 0
BBX 1 1 0 0
BITMAP
00
ENDCHAR
STARTCHAR uni0017
ENCODING 23
SWIDTH 296 0
DWIDTH 5 0
BBX 1 1 0 0
BITMAP
00
ENDCHAR
STARTCHAR uni0018
ENCODING 24
SWIDTH 296 0
DWIDTH 5 0
BBX 1 1 0 0
BITMAP
00
ENDCHAR
STARTCHAR uni0019
ENCODING 25
SWIDTH 296 0
DWIDTH 5 0
BBX 1 1 0 0
BITMAP
00
ENDCHAR
STARTCHAR uni001A
ENCODING 26
SWIDTH 296 0
DWIDTH 5 0
BBX 1 1 0 0
BITMAP
00
ENDCHAR
STARTCHAR uni001B
ENCODING 27
SWIDTH 296 0
DWIDTH 5 0
BBX 1 1 0 0
BITMAP
00
ENDCHAR
STARTCHAR uni001C
ENCODING 28
SWIDTH 296 0
DWIDTH 5 0
BBX 1 1 0 0
BITMAP
00
ENDCHAR
STARTCHAR uni001D
ENCODING 29
SWIDTH 296 0
DWIDTH 5 0
BBX 1 1 0 0
BITMAP
00
ENDCHAR
STARTCHAR uni001E
ENCODING 30
SWIDTH 296 0
DWIDTH 5 0
BBX 1 1 0 0
BITMAP
00
ENDCHAR
STARTCHAR space
ENCODING 32
SWIDTH 296 0
DWIDTH 5 0
BBX 1 1 0 0
BITMAP
00
ENDCHAR
STARTCHAR cid2
ENCODING 33
SWIDTH 388 0
DWIDTH 7 0
BBX 4 15 2 -1
BITMAP
F0
E0
E0
E0
E0
E0
E0
E0
E0
E0
E0
00
00
E0
E0
ENDCHAR
STARTCHAR cid3
ENCODING 34
SWIDTH 535 0
DWIDTH 10 0
BBX 8 5 1 11
BITMAP
EF
EF
EE
EE
EE
ENDCHAR
STARTCHAR cid4
ENCODING 35
SWIDTH 735 0
DWIDTH 13 0
BBX 11 16 1 -1
BITMAP
0EE0
0EE0
0EE0
1CC0
7FE0
7FE0
7FE0
3B80
3B00
FF80
FF80
FF80
FF80
EE00
EC00
DC00
ENDCHAR
STARTCHAR cid5
ENCODING 36
SWIDTH 597 0
DWIDTH 11 0
BBX 9 18 1 -2
BITMAP
1C00
1C00
7E00
FF00
FD80
DD80
DD80
DC00
DC00
FE00
7F00
3F80
1D80
FD80
FD80
7F00
3E00
1C00
ENDCHAR
STARTCHAR cid6
ENCODING 37
SWIDTH 797 0
DWIDTH 14 0
BBX 13 16 1 -1
BITMAP
00C0
01E0
61C0
F3C0
DB80
DB80
7700
2700
0F00
0E60
0EF0
1DB8
1DB0
38F0
3800
3800
ENDCHAR
STARTCHAR cid7
ENCODING 38
SWIDTH 780 0
DWIDTH 14 0
BBX 12 16 1 -1
BITMAP
0C00
3E00
3F00
3700
3300
6700
3E00
3C40
3CE0
7EE0
EFC0
C7F0
E3F0
EFF0
FE60
7C00
ENDCHAR
STARTCHAR cid8
ENCODING 39
SWIDTH 277 0
DWIDTH 5 0
BBX 3 6 1 9
BITMAP
E0
E0
E0
E0
60
40
ENDCHAR
STARTCHAR cid9
ENCODING 40
SWIDTH 460 0
DWIDTH 8 0
BBX 6 17 1 -1
BITMAP
10
3C
7C
78
F0
E0
E0
E0
E0
E0
E0
E0
E0
F0
78
3C
1C
ENDCHAR
STARTCHAR cid10
ENCODING 41
SWIDTH 463 0
DWIDTH 8 0
BBX 6 17 1 -1
BITMAP
20
70
F8
78
3C
1C
1C
1C
1C
1C
1C
1C
1C
1C
38
70
60
ENDCHAR
STARTCHAR cid11
ENCODING 42
SWIDTH 425 0
DWIDTH 8 0
BBX 5 5 1 10
BITMAP
30
F8
78
F8
30
ENDCHAR
STARTCHAR cid12
ENCODING 43
SWIDTH 662 0
DWIDTH 12 0
BBX 10 9 1 2
BITMAP
1C00
1C00
1C00
FFC0
FFC0
FFC0
0C00
0C00
0C00
ENDCHAR
STARTCHAR cid13
ENCODING 44
SWIDTH 279 0
DWIDTH 5 0
BBX 3 6 1 -4
BITMAP
E0
E0
E0
60
40
40
ENDCHAR
STARTCHAR cid14
ENCODING 45
SWIDTH 503 0
DWIDTH 9 0
BBX 7 3 1 3
BITMAP
FE
FE
FE
ENDCHAR
STARTCHAR cid15
ENCODING 46
SWIDTH 303 0
DWIDTH 5 0
BBX 4 3 1 -1
BITMAP
F0
E0
E0
ENDCHAR
STARTCHAR cid16
ENCODING 47
SWIDTH 721 0
DWIDTH 13 0
BBX 9 16 2 -1
BITMAP
0380
0700
0700
0700
0E00
0E00
1C00
1C00
1800
3800
3000
7000
7000
6000
E000
C000
ENDCHAR
STARTCHAR cid17
ENCODING 48
SWIDTH 599 0
DWIDTH 11 0
BBX 9 15 1 -1
BITMAP
3E00
7F00
FF00
E380
E380
E380
E380
E380
E380
E380
E300
E300
FF00
7E00
3C00
ENDCHAR
STARTCHAR cid18
ENCODING 49
SWIDTH 348 0
DWIDTH 6 0
BBX 4 15 1 -1
BITMAP
F0
F0
F0
30
30
30
30
70
70
70
70
70
70
70
70
ENDCHAR
STARTCHAR cid19
ENCODING 50
SWIDTH 603 0
DWIDTH 11 0
BBX 9 15 1 -1
BITMAP
3E00
7F00
FF80
E380
E300
E700
0700
0700
3F00
7E00
EC00
E000
FF00
FF00
FF00
ENDCHAR
STARTCHAR cid20
ENCODING 51
SWIDTH 569 0
DWIDTH 10 0
BBX 10 15 0 -1
BITMAP
3E00
3F00
3F80
0180
0380
0780
0F00
0F00
0180
0180
6180
E180
FFC0
7F00
1E00
ENDCHAR
STARTCHAR cid21
ENCODING 52
SWIDTH 566 0
DWIDTH 10 0
BBX 9 15 1 -1
BITMAP
0600
E600
E600
E600
E600
E600
E600
E780
FF80
7F80
2E00
0E00
0E00
0E00
0E00
ENDCHAR
STARTCHAR cid22
ENCODING 53
SWIDTH 551 0
DWIDTH 10 0
BBX 8 15 1 -1
BITMAP
FF
FF
E7
E0
E0
FC
7E
3F
07
07
E7
E7
FF
7E
3C
ENDCHAR
STARTCHAR cid23
ENCODING 54
SWIDTH 571 0
DWIDTH 10 0
BBX 8 15 1 -1
BITMAP
3E
FF
FF
E3
E0
E0
FE
FF
E3
E3
E3
E3
FF
7E
3C
ENDCHAR
STARTCHAR cid24
ENCODING 55
SWIDTH 512 0
DWIDTH 9 0
BBX 8 15 0 -1
BITMAP
FF
FF
FF
07
07
07
07
06
06
0E
0E
0E
0E
0E
0C
ENDCHAR
STARTCHAR cid25
ENCODING 56
SWIDTH 573 0
DWIDTH 10 0
BBX 8 15 1 -1
BITMAP
3E
7F
E3
E3
E3
E7
FF
7E
7F
E7
E7
E7
FF
7E
3C
ENDCHAR
STARTCHAR cid26
ENCODING 57
SWIDTH 575 0
DWIDTH 10 0
BBX 8 15 1 -1
BITMAP
3C
7F
FF
E3
E3
E7
E7
E7
7F
3F
07
07
1F
1F
1E
ENDCHAR
STARTCHAR cid27
ENCODING 58
SWIDTH 396 0
DWIDTH 7 0
BBX 3 11 2 -1
BITMAP
E0
E0
E0
E0
00
00
00
E0
E0
E0
E0
ENDCHAR
STARTCHAR cid28
ENCODING 59
SWIDTH 376 0
DWIDTH 7 0
BBX 4 14 1 -4
BITMAP
F0
70
70
70
00
00
00
00
70
70
70
30
30
20
ENDCHAR
STARTCHAR cid29
ENCODING 60
SWIDTH 458 0
DWIDTH 8 0
BBX 7 11 0 -1
BITMAP
0C
1E
3E
78
F0
E0
F0
3C
1E
0E
04
ENDCHAR
STARTCHAR cid30
ENCODING 61
SWIDTH 688 0
DWIDTH 12 0
BBX 9 8 2 2
BITMAP
FF80
FF80
FF80
0000
FF80
FF80
FF80
E000
ENDCHAR
STARTCHAR cid31
ENCODING 62
SWIDTH 505 0
DWIDTH 9 0
BBX 7 10 1 0
BITMAP
60
F0
78
3E
1E
06
1E
3C
F8
70
ENDCHAR
STARTCHAR cid32
ENCODING 63
SWIDTH 704 0
DWIDTH 13 0
BBX 11 16 1 -1
BITMAP
3F00
7F80
7FC0
FFE0
E1E0
E1E0
81C0
01C0
07C0
0F80
0C00
0C00
0000
0800
0C00
0C00
ENDCHAR
STARTCHAR cid33
ENCODING 64
SWIDTH 858 0
DWIDTH 15 0
BBX 14 15 1 -2
BITMAP
3FC0
3FE0
7070
EFB8
CFDC
C0D8
C7D8
CFD8
DCD8
EC98
6CB8
6FF0
7700
3980
0F80
ENDCHAR
STARTCHAR cid34
ENCODING 65
SWIDTH 515 0
DWIDTH 9 0
BBX 8 15 1 -1
BITMAP
7C
FE
FF
C7
C7
C7
C7
C7
E6
FE
FE
E6
E6
E6
E6
ENDCHAR
STARTCHAR cid35
ENCODING 66
SWIDTH 509 0
DWIDTH 9 0
BBX 8 15 1 -1
BITMAP
FC
FE
FF
C7
C6
C6
C6
E6
FC
FE
E6
E6
E6
FC
F8
ENDCHAR
STARTCHAR cid36
ENCODING 67
SWIDTH 510 0
DWIDTH 9 0
BBX 8 15 1 -1
BITMAP
7C
7E
FE
C7
C6
C6
C6
C0
C0
C0
C6
C6
FE
7C
38
ENDCHAR
STARTCHAR cid37
ENCODING 68
SWIDTH 517 0
DWIDTH 9 0
BBX 9 15 0 -1
BITMAP
FE00
7F00
7F80
6380
6380
6380
6380
6300
6300
6300
6300
6300
7F00
7E00
7C00
ENDCHAR
STARTCHAR cid38
ENCODING 69
SWIDTH 468 0
DWIDTH 8 0
BBX 7 15 1 -1
BITMAP
FE
FE
FE
C0
C0
C0
C0
DC
FC
FC
C0
C0
FE
FE
FE
ENDCHAR
STARTCHAR cid39
ENCODING 70
SWIDTH 457 0
DWIDTH 8 0
BBX 7 15 1 -1
BITMAP
FE
FE
FE
E0
E0
E0
E0
E0
FC
FC
E0
E0
E0
E0
E0
ENDCHAR
STARTCHAR cid40
ENCODING 71
SWIDTH 548 0
DWIDTH 10 0
BBX 8 15 1 -1
BITMAP
3E
7E
FF
E7
E7
E0
E0
E0
E0
EF
EF
E7
FF
7E
3C
ENDCHAR
STARTCHAR cid41
ENCODING 72
SWIDTH 518 0
DWIDTH 9 0
BBX 8 15 1 -1
BITMAP
E7
E7
E7
E7
E7
E7
C7
C7
FF
FE
C6
C6
C6
C6
C6
ENDCHAR
STARTCHAR cid42
ENCODING 73
SWIDTH 237 0
DWIDTH 4 0
BBX 3 15 1 -1
BITMAP
E0
E0
E0
E0
E0
E0
E0
E0
E0
C0
C0
C0
C0
C0
C0
ENDCHAR
STARTCHAR cid43
ENCODING 74
SWIDTH 524 0
DWIDTH 9 0
BBX 8 15 1 -1
BITMAP
07
07
07
07
07
07
06
06
06
06
E6
E6
FE
7C
38
ENDCHAR
STARTCHAR cid44
ENCODING 75
SWIDTH 498 0
DWIDTH 9 0
BBX 7 15 1 -1
BITMAP
E4
EE
EC
FC
F8
F8
F0
E0
E0
F0
F0
F8
FE
EE
EE
ENDCHAR
STARTCHAR cid45
ENCODING 76
SWIDTH 383 0
DWIDTH 7 0
BBX 5 15 1 -1
BITMAP
E0
E0
E0
E0
E0
E0
C0
C0
C0
C0
C0
C0
F8
F8
F8
ENDCHAR
STARTCHAR cid46
ENCODING 77
SWIDTH 662 0
DWIDTH 12 0
BBX 10 15 1 -1
BITMAP
E1C0
E1C0
E1C0
E3C0
F3C0
F3C0
F3C0
F7C0
DEC0
DEC0
DEC0
DCC0
CCC0
C0C0
C0C0
ENDCHAR
STARTCHAR cid47
ENCODING 78
SWIDTH 563 0
DWIDTH 10 0
BBX 9 15 1 -1
BITMAP
C380
E380
E300
E300
F300
F300
FB00
DB00
DB00
FF00
EF00
EF00
E700
E700
E700
ENDCHAR
STARTCHAR cid48
ENCODING 79
SWIDTH 532 0
DWIDTH 10 0
BBX 8 15 1 -1
BITMAP
7C
7E
FE
C7
C7
C7
C7
C7
C6
C6
C6
C6
FE
7C
38
ENDCHAR
STARTCHAR cid49
ENCODING 80
SWIDTH 534 0
DWIDTH 10 0
BBX 8 15 1 -1
BITMAP
FC
FE
FF
C7
C7
C7
C7
C7
C6
FE
FC
C0
C0
C0
C0
ENDCHAR
STARTCHAR cid50
ENCODING 81
SWIDTH 559 0
DWIDTH 10 0
BBX 8 18 1 -4
BITMAP
3E
7E
FF
C3
C3
C3
C3
C3
C3
C3
C3
C3
FF
7E
3C
0C
0F
0F
ENDCHAR
STARTCHAR cid51
ENCODING 82
SWIDTH 508 0
DWIDTH 9 0
BBX 8 15 1 -1
BITMAP
FC
FE
E7
C7
C6
C6
C6
C6
C6
FE
F8
D8
DF
CE
C6
ENDCHAR
STARTCHAR cid52
ENCODING 83
SWIDTH 544 0
DWIDTH 10 0
BBX 8 15 1 -1
BITMAP
7C
FE
F3
C3
C3
E0
E0
FC
7E
3F
07
E7
E7
7E
3C
ENDCHAR
STARTCHAR cid53
ENCODING 84
SWIDTH 524 0
DWIDTH 9 0
BBX 8 15 1 -1
BITMAP
FF
FF
FF
38
38
38
38
38
38
38
38
38
38
38
38
ENDCHAR
STARTCHAR cid54
ENCODING 85
SWIDTH 530 0
DWIDTH 10 0
BBX 8 15 1 -1
BITMAP
E7
E7
E7
E7
E7
E7
E7
E7
E7
E7
E7
E7
FE
7C
3C
ENDCHAR
STARTCHAR cid55
ENCODING 86
SWIDTH 546 0
DWIDTH 10 0
BBX 9 15 0 -1
BITMAP
F180
7180
7380
7380
7380
7300
3300
3B00
3F00
3F00
3E00
1E00
1E00
1E00
1E00
ENDCHAR
STARTCHAR cid56
ENCODING 87
SWIDTH 724 0
DWIDTH 13 0
BBX 11 15 1 -1
BITMAP
CC60
CE60
CEE0
EEE0
FEE0
FEE0
FBE0
FBE0
FBE0
FBE0
7BC0
79C0
71C0
71C0
71C0
ENDCHAR
STARTCHAR cid57
ENCODING 88
SWIDTH 485 0
DWIDTH 9 0
BBX 7 15 1 -1
BITMAP
EE
EE
EC
7C
7C
78
38
38
38
78
7C
7C
EC
CE
CE
ENDCHAR
STARTCHAR cid58
ENCODING 89
SWIDTH 482 0
DWIDTH 9 0
BBX 8 15 0 -1
BITMAP
E7
67
67
67
67
67
67
67
77
3E
1C
18
18
18
18
ENDCHAR
STARTCHAR cid59
ENCODING 90
SWIDTH 502 0
DWIDTH 9 0
BBX 8 15 1 -1
BITMAP
FC
FE
FE
07
0E
1C
1C
38
30
70
E0
C0
FE
FE
FE
ENDCHAR
STARTCHAR cid60
ENCODING 91
SWIDTH 487 0
DWIDTH 9 0
BBX 6 18 1 -2
BITMAP
FC
FC
FC
E0
E0
E0
E0
E0
E0
E0
E0
E0
60
60
64
7C
7C
7C
ENDCHAR
STARTCHAR cid97
ENCODING 92
SWIDTH 634 0
DWIDTH 11 0
BBX 9 17 1 -1
BITMAP
6000
E000
F000
7000
7000
3800
3800
1C00
1C00
0E00
0E00
0E00
0700
0700
0380
0380
0100
ENDCHAR
STARTCHAR cid62
ENCODING 93
SWIDTH 485 0
DWIDTH 9 0
BBX 7 18 1 -2
BITMAP
7E
7E
7E
6E
0E
0E
0C
0C
0C
0C
0C
0C
0C
0C
4C
7C
FC
FC
ENDCHAR
STARTCHAR cid63
ENCODING 94
SWIDTH 620 0
DWIDTH 11 0
BBX 9 6 1 7
BITMAP
1C00
3E00
7F00
F780
E380
6300
ENDCHAR
STARTCHAR cid64
ENCODING 95
SWIDTH 425 0
DWIDTH 8 0
BBX 6 3 1 -1
BITMAP
FC
FC
FC
ENDCHAR
STARTCHAR cid65
ENCODING 96
SWIDTH 345 0
DWIDTH 6 0
BBX 5 6 1 11
BITMAP
20
E0
F0
70
78
30
ENDCHAR
STARTCHAR cid66
ENCODING 97
SWIDTH 511 0
DWIDTH 9 0
BBX 8 11 1 -1
BITMAP
7C
7E
06
7E
FE
CE
CE
CC
CC
FF
3A
ENDCHAR
STARTCHAR cid67
ENCODING 98
SWIDTH 491 0
DWIDTH 9 0
BBX 7 15 1 -1
BITMAP
C0
C0
C0
C0
FC
FE
C6
C6
C6
C6
C6
C6
C6
FC
F8
ENDCHAR
STARTCHAR cid68
ENCODING 99
SWIDTH 478 0
DWIDTH 9 0
BBX 7 11 1 -1
BITMAP
78
FC
C6
C6
C0
C0
C0
CE
CE
7C
38
ENDCHAR
STARTCHAR cid69
ENCODING 100
SWIDTH 480 0
DWIDTH 9 0
BBX 7 15 1 -1
BITMAP
06
06
06
06
7E
FE
C6
C6
C6
C6
C6
C6
C6
7E
3E
ENDCHAR
STARTCHAR cid70
ENCODING 101
SWIDTH 482 0
DWIDTH 9 0
BBX 7 11 1 -1
BITMAP
7C
FE
C6
C6
FE
FE
C0
CE
CE
FC
38
ENDCHAR
STARTCHAR cid71
ENCODING 102
SWIDTH 433 0
DWIDTH 8 0
BBX 6 15 1 -1
BITMAP
1C
7C
7C
60
60
6C
FC
FC
60
60
60
60
60
60
60
ENDCHAR
STARTCHAR cid72
ENCODING 103
SWIDTH 475 0
DWIDTH 9 0
BBX 7 15 1 -5
BITMAP
78
FC
C6
C6
CE
CE
CE
CE
CE
7C
3C
CC
CC
7C
30
ENDCHAR
STARTCHAR cid73
ENCODING 104
SWIDTH 498 0
DWIDTH 9 0
BBX 7 15 1 -1
BITMAP
C0
C0
C0
C0
FC
FE
FE
C6
C6
C6
C6
C6
C6
C6
C6
ENDCHAR
STARTCHAR cid74
ENCODING 105
SWIDTH 236 0
DWIDTH 4 0
BBX 3 15 1 -1
BITMAP
E0
E0
E0
00
C0
C0
C0
C0
C0
C0
C0
C0
C0
C0
C0
ENDCHAR
STARTCHAR cid75
ENCODING 106
SWIDTH 292 0
DWIDTH 5 0
BBX 5 18 0 -4
BITMAP
78
78
38
00
38
30
30
30
30
30
30
30
30
30
30
30
E0
E0
ENDCHAR
STARTCHAR cid76
ENCODING 107
SWIDTH 482 0
DWIDTH 9 0
BBX 7 15 1 -1
BITMAP
E0
E0
E0
C0
CC
DC
D8
F0
F0
F0
F0
D8
DE
CE
CE
ENDCHAR
STARTCHAR cid77
ENCODING 108
SWIDTH 233 0
DWIDTH 4 0
BBX 3 15 1 -1
BITMAP
E0
E0
C0
C0
C0
C0
C0
C0
C0
C0
C0
C0
C0
C0
C0
ENDCHAR
STARTCHAR cid78
ENCODING 109
SWIDTH 687 0
DWIDTH 12 0
BBX 11 11 1 -1
BITMAP
7380
7FC0
FFE0
CEE0
CEE0
CEE0
CCE0
CCE0
CCC0
CCC0
C0C0
ENDCHAR
STARTCHAR cid79
ENCODING 110
SWIDTH 475 0
DWIDTH 9 0
BBX 7 11 1 -1
BITMAP
38
7C
FE
C6
C6
C6
C6
C6
C6
C6
C6
ENDCHAR
STARTCHAR cid80
ENCODING 111
SWIDTH 476 0
DWIDTH 9 0
BBX 7 11 1 -1
BITMAP
78
FC
CE
CE
CE
CE
CE
CE
CE
7C
38
ENDCHAR
STARTCHAR cid81
ENCODING 112
SWIDTH 464 0
DWIDTH 8 0
BBX 7 15 1 -5
BITMAP
F8
FC
CE
CE
CE
CE
CE
CE
FC
F8
E0
C0
C0
C0
C0
ENDCHAR
STARTCHAR cid82
ENCODING 113
SWIDTH 458 0
DWIDTH 8 0
BBX 8 15 0 -5
BITMAP
3F
7F
E7
E7
67
67
66
66
7E
3E
1E
06
06
06
06
ENDCHAR
STARTCHAR cid83
ENCODING 114
SWIDTH 395 0
DWIDTH 7 0
BBX 6 11 1 -1
BITMAP
FC
FC
F8
E0
C0
C0
C0
C0
C0
C0
C0
ENDCHAR
STARTCHAR cid84
ENCODING 115
SWIDTH 491 0
DWIDTH 9 0
BBX 7 11 1 -1
BITMAP
38
7E
C6
C6
E8
7C
3E
0E
CE
7C
38
ENDCHAR
STARTCHAR cid85
ENCODING 116
SWIDTH 428 0
DWIDTH 8 0
BBX 6 13 1 -1
BITMAP
60
60
FC
FC
64
60
60
60
60
60
7C
3C
1C
ENDCHAR
STARTCHAR cid86
ENCODING 117
SWIDTH 520 0
DWIDTH 9 0
BBX 8 11 1 -1
BITMAP
E7
E7
E6
C6
C6
C6
C6
C6
FE
7F
39
ENDCHAR
STARTCHAR cid87
ENCODING 118
SWIDTH 512 0
DWIDTH 9 0
BBX 8 11 1 -1
BITMAP
E7
E6
E6
66
6E
6C
7C
3C
3C
38
38
ENDCHAR
STARTCHAR cid88
ENCODING 119
SWIDTH 602 0
DWIDTH 11 0
BBX 10 11 0 -1
BITMAP
E4C0
6EC0
6EC0
6EC0
6EC0
7EC0
7BC0
7BC0
7BC0
7380
7180
ENDCHAR
STARTCHAR cid89
ENCODING 120
SWIDTH 462 0
DWIDTH 8 0
BBX 7 11 1 -1
BITMAP
EE
EC
FC
78
78
30
78
78
FC
CC
CC
ENDCHAR
STARTCHAR cid90
ENCODING 121
SWIDTH 481 0
DWIDTH 9 0
BBX 8 15 0 -5
BITMAP
E7
67
67
67
67
67
67
66
66
3E
1E
06
06
06
06
ENDCHAR
STARTCHAR cid91
ENCODING 122
SWIDTH 496 0
DWIDTH 9 0
BBX 8 11 0 -1
BITMAP
7F
7F
7F
06
0E
1C
38
70
FF
7F
7F
ENDCHAR
STARTCHAR cid92
ENCODING 123
SWIDTH 517 0
DWIDTH 9 0
BBX 5 17 2 -1
BITMAP
10
38
78
E0
E0
E0
60
70
E0
E0
70
60
60
E0
E0
78
30
ENDCHAR
STARTCHAR cid99
ENCODING 124
SWIDTH 279 0
DWIDTH 5 0
BBX 3 16 1 -1
BITMAP
E0
E0
E0
E0
E0
E0
E0
E0
E0
E0
E0
E0
E0
E0
E0
E0
ENDCHAR
STARTCHAR cid94
ENCODING 125
SWIDTH 524 0
DWIDTH 9 0
BBX 5 17 3 -1
BITMAP
40
E0
F0
38
38
38
30
70
38
38
70
30
30
38
38
F0
E0
ENDCHAR
STARTCHAR cid100
ENCODING 126
SWIDTH 586 0
DWIDTH 11 0
BBX 9 4 1 11
BITMAP
2000
7300
FF80
4E00
ENDCHAR
STARTCHAR cid101
ENCODING 161
SWIDTH 411 0
DWIDTH 7 0
BBX 3 15 2 -4
BITMAP
E0
E0
00
00
E0
E0
E0
E0
E0
E0
E0
E0
E0
E0
E0
ENDCHAR
STARTCHAR cid102
ENCODING 162
SWIDTH 533 0
DWIDTH 10 0
BBX 8 14 1 -2
BITMAP
18
18
7C
FE
DB
DB
D8
D8
D8
DB
DB
FE
7C
18
ENDCHAR
STARTCHAR cid103
ENCODING 163
SWIDTH 537 0
DWIDTH 10 0
BBX 8 16 1 -1
BITMAP
1E
3C
7C
6C
60
60
60
F8
F8
60
60
60
60
FF
FF
FF
ENDCHAR
STARTCHAR cid107
ENCODING 164
SWIDTH 645 0
DWIDTH 12 0
BBX 10 10 1 0
BITMAP
4000
FFC0
7F80
6380
6380
6380
6300
7F80
FFC0
4080
ENDCHAR
STARTCHAR cid61
ENCODING 165
SWIDTH 525 0
DWIDTH 9 0
BBX 7 15 1 -1
BITMAP
E6
E6
E6
E6
E6
EE
7C
38
3C
7C
34
7C
7C
38
38
ENDCHAR
STARTCHAR cid93
ENCODING 166
SWIDTH 410 0
DWIDTH 7 0
BBX 3 15 2 -1
BITMAP
E0
E0
E0
E0
E0
E0
00
00
00
E0
E0
E0
E0
E0
E0
ENDCHAR
STARTCHAR cid720
ENCODING 167
SWIDTH 622 0
DWIDTH 11 0
BBX 10 15 1 -1
BITMAP
1F00
3F80
31C0
3180
3E00
7F00
FF80
C180
C180
7F00
3E00
0600
C600
FE00
7C00
ENDCHAR
STARTCHAR cid647
ENCODING 168
SWIDTH 482 0
DWIDTH 9 0
BBX 7 2 1 16
BITMAP
CE
CE
ENDCHAR
STARTCHAR cid152
ENCODING 169
SWIDTH 791 0
DWIDTH 14 0
BBX 13 16 1 -2
BITMAP
0380
3FC0
78E0
6630
EF38
DBB8
D9B8
D830
D830
D9B0
D9B0
EFB0
6770
3060
1FC0
0200
ENDCHAR
STARTCHAR cid140
ENCODING 170
SWIDTH 337 0
DWIDTH 6 0
BBX 4 5 1 14
BITMAP
70
70
90
B0
F0
ENDCHAR
STARTCHAR cid109
ENCODING 171
SWIDTH 649 0
DWIDTH 12 0
BBX 10 9 1 0
BITMAP
1180
3BC0
F780
EF00
CE00
E700
7380
39C0
1080
ENDCHAR
STARTCHAR cid153
ENCODING 172
SWIDTH 586 0
DWIDTH 11 0
BBX 9 5 1 2
BITMAP
FF80
FF80
FF80
0380
0380
ENDCHAR
STARTCHAR cid151
ENCODING 173
SWIDTH 517 0
DWIDTH 9 0
BBX 7 3 1 5
BITMAP
FE
FE
FE
ENDCHAR
STARTCHAR cid154
ENCODING 174
SWIDTH 791 0
DWIDTH 14 0
BBX 13 16 1 -2
BITMAP
0380
3FC0
78E0
6330
FFB8
D8B8
D9B8
D9B0
D9B0
DFB0
CE30
EB30
69F0
3060
1FC0
0200
ENDCHAR
STARTCHAR cid129
ENCODING 175
SWIDTH 438 0
DWIDTH 8 0
BBX 6 2 1 16
BITMAP
FC
FC
ENDCHAR
STARTCHAR cid707
ENCODING 176
SWIDTH 311 0
DWIDTH 6 0
BBX 4 4 1 15
BITMAP
F0
90
B0
60
ENDCHAR
STARTCHAR cid694
ENCODING 177
SWIDTH 736 0
DWIDTH 13 0
BBX 11 11 1 -1
BITMAP
0E00
0E00
0E00
FFE0
FFE0
0E00
0E00
0000
FFE0
FFE0
FC00
ENDCHAR
STARTCHAR cid157
ENCODING 178
SWIDTH 261 0
DWIDTH 5 0
BBX 3 6 1 14
BITMAP
C0
A0
A0
60
80
E0
ENDCHAR
STARTCHAR cid158
ENCODING 179
SWIDTH 255 0
DWIDTH 5 0
BBX 4 6 0 14
BITMAP
60
10
30
10
D0
60
ENDCHAR
STARTCHAR cid645
ENCODING 180
SWIDTH 321 0
DWIDTH 6 0
BBX 4 4 1 15
BITMAP
20
70
F0
C0
ENDCHAR
STARTCHAR cid159
ENCODING 181
SWIDTH 540 0
DWIDTH 10 0
BBX 8 15 1 -5
BITMAP
E7
E7
E7
E7
E7
E6
E6
E6
FE
FF
F9
C0
C0
C0
C0
ENDCHAR
STARTCHAR cid778
ENCODING 182
SWIDTH 542 0
DWIDTH 10 0
BBX 8 15 1 -1
BITMAP
7F
FF
FB
FB
FB
FB
FB
3B
3B
3B
3B
3B
3B
3B
3B
ENDCHAR
STARTCHAR cid117
ENCODING 183
SWIDTH 487 0
DWIDTH 9 0
BBX 3 3 3 4
BITMAP
E0
E0
E0
ENDCHAR
STARTCHAR cid134
ENCODING 184
SWIDTH 252 0
DWIDTH 5 0
BBX 3 3 1 -4
BITMAP
80
E0
E0
ENDCHAR
STARTCHAR cid160
ENCODING 185
SWIDTH 217 0
DWIDTH 4 0
BBX 2 5 1 14
BITMAP
C0
40
40
40
C0
ENDCHAR
STARTCHAR cid144
ENCODING 186
SWIDTH 278 0
DWIDTH 5 0
BBX 3 5 1 14
BITMAP
E0
A0
A0
A0
E0
ENDCHAR
STARTCHAR cid123
ENCODING 187
SWIDTH 675 0
DWIDTH 12 0
BBX 10 9 1 0
BITMAP
4200
E700
7B80
3DC0
18C0
39C0
7380
E700
4200
ENDCHAR
STARTCHAR cid161
ENCODING 188
SWIDTH 677 0
DWIDTH 12 0
BBX 10 16 1 -1
BITMAP
E180
E300
6300
4700
4600
4600
4C00
4C00
5840
1A40
1A40
3240
33C0
61C0
60C0
40C0
ENDCHAR
STARTCHAR cid162
ENCODING 189
SWIDTH 677 0
DWIDTH 12 0
BBX 10 16 1 -1
BITMAP
E180
E300
6300
4700
4600
4600
4C00
4C00
5BC0
1A40
1A40
3240
31C0
6380
6240
43C0
ENDCHAR
STARTCHAR cid163
ENCODING 190
SWIDTH 741 0
DWIDTH 13 0
BBX 11 16 1 -1
BITMAP
E0C0
71C0
1180
7180
7300
1300
9E00
F600
0620
0D20
0D20
1920
19E0
10A0
3020
3020
ENDCHAR
STARTCHAR cid126
ENCODING 191
SWIDTH 724 0
DWIDTH 13 0
BBX 11 16 1 -5
BITMAP
0E00
0E00
0000
0000
0E00
0E00
3E00
7C00
E800
E060
E0E0
E0E0
FFE0
7FC0
3F80
0100
ENDCHAR
STARTCHAR cid164
ENCODING 192
SWIDTH 515 0
DWIDTH 9 0
BBX 8 20 1 -1
BITMAP
10
38
3C
18
00
7C
FE
FF
C7
C7
C7
C7
C7
E6
FE
FE
E6
E6
E6
E6
ENDCHAR
STARTCHAR cid165
ENCODING 193
SWIDTH 515 0
DWIDTH 9 0
BBX 8 20 1 -1
BITMAP
08
1C
38
30
00
7C
FE
FF
C7
C7
C7
C7
C7
E6
FE
FE
E6
E6
E6
E6
ENDCHAR
STARTCHAR cid166
ENCODING 194
SWIDTH 515 0
DWIDTH 9 0
BBX 8 20 1 -1
BITMAP
38
7C
EE
44
00
7C
FE
FF
C7
C7
C7
C7
C7
E6
FE
FE
E6
E6
E6
E6
ENDCHAR
STARTCHAR cid167
ENCODING 195
SWIDTH 515 0
DWIDTH 9 0
BBX 8 20 1 -1
BITMAP
20
F2
DF
8C
00
7C
FE
FF
C7
C7
C7
C7
C7
E6
FE
FE
E6
E6
E6
E6
ENDCHAR
STARTCHAR cid168
ENCODING 196
SWIDTH 515 0
DWIDTH 9 0
BBX 8 19 1 -1
BITMAP
6E
6E
6E
00
7C
FE
FF
C7
C7
C7
C7
C7
E6
FE
FE
E6
E6
E6
E6
ENDCHAR
STARTCHAR cid169
ENCODING 197
SWIDTH 515 0
DWIDTH 9 0
BBX 8 20 1 -1
BITMAP
38
6C
6C
38
00
7C
FE
FF
C7
C7
C7
C7
C7
E6
FE
FE
E6
E6
E6
E6
ENDCHAR
STARTCHAR cid139
ENCODING 198
SWIDTH 737 0
DWIDTH 13 0
BBX 12 15 1 -1
BITMAP
1FF0
3FF0
3FF0
3E00
7E00
6E00
6600
E660
C7E0
FFE0
FE00
C600
C7F0
C7F0
C7F0
ENDCHAR
STARTCHAR cid170
ENCODING 199
SWIDTH 510 0
DWIDTH 9 0
BBX 8 18 1 -4
BITMAP
7C
7E
FE
C7
C6
C6
C6
C0
C0
C0
C6
C6
FE
7C
38
30
1C
1C
ENDCHAR
STARTCHAR cid171
ENCODING 200
SWIDTH 468 0
DWIDTH 8 0
BBX 7 20 1 -1
BITMAP
20
70
7C
18
00
FE
FE
FE
C0
C0
C0
C0
DC
FC
FC
C0
C0
FE
FE
FE
ENDCHAR
STARTCHAR cid172
ENCODING 201
SWIDTH 468 0
DWIDTH 8 0
BBX 7 20 1 -1
BITMAP
10
38
78
30
00
FE
FE
FE
C0
C0
C0
C0
DC
FC
FC
C0
C0
FE
FE
FE
ENDCHAR
STARTCHAR cid173
ENCODING 202
SWIDTH 468 0
DWIDTH 8 0
BBX 7 20 1 -1
BITMAP
38
7C
EE
C4
00
FE
FE
FE
C0
C0
C0
C0
DC
FC
FC
C0
C0
FE
FE
FE
ENDCHAR
STARTCHAR cid174
ENCODING 203
SWIDTH 468 0
DWIDTH 8 0
BBX 7 19 1 -1
BITMAP
CC
CC
CC
00
FE
FE
FE
C0
C0
C0
C0
DC
FC
FC
C0
C0
FE
FE
FE
ENDCHAR
STARTCHAR cid175
ENCODING 204
SWIDTH 331 0
DWIDTH 6 0
BBX 4 20 1 -1
BITMAP
40
E0
F0
30
00
F0
F0
F0
70
60
60
60
60
60
60
60
60
60
60
60
ENDCHAR
STARTCHAR cid176
ENCODING 205
SWIDTH 335 0
DWIDTH 6 0
BBX 4 20 1 -1
BITMAP
20
70
F0
C0
00
F0
F0
F0
70
60
60
60
60
60
60
60
60
60
60
60
ENDCHAR
STARTCHAR cid177
ENCODING 206
SWIDTH 442 0
DWIDTH 8 0
BBX 6 20 1 -1
BITMAP
78
78
CC
84
00
70
70
70
70
70
70
70
70
70
30
30
30
30
30
30
ENDCHAR
STARTCHAR cid178
ENCODING 207
SWIDTH 395 0
DWIDTH 7 0
BBX 7 19 0 -1
BITMAP
EE
EE
EC
00
38
38
38
38
38
38
38
38
38
38
38
38
38
38
38
ENDCHAR
STARTCHAR cid179
ENCODING 208
SWIDTH 554 0
DWIDTH 10 0
BBX 9 15 0 -1
BITMAP
7F00
7F00
7F80
7180
7180
7180
F980
FB80
FB80
7380
7380
7380
3F00
3E00
3C00
ENDCHAR
STARTCHAR cid180
ENCODING 209
SWIDTH 563 0
DWIDTH 10 0
BBX 9 20 1 -1
BITMAP
2000
7300
FF00
4C00
0000
C380
E380
E300
E300
F300
F300
FB00
DB00
DB00
FF00
EF00
EF00
E700
E700
E700
ENDCHAR
STARTCHAR cid181
ENCODING 210
SWIDTH 532 0
DWIDTH 10 0
BBX 8 20 1 -1
BITMAP
10
38
3C
18
00
7C
7E
FE
C7
C7
C7
C7
C7
C6
C6
C6
C6
FE
7C
38
ENDCHAR
STARTCHAR cid182
ENCODING 211
SWIDTH 532 0
DWIDTH 10 0
BBX 8 20 1 -1
BITMAP
08
1C
38
30
00
7C
7E
FE
C7
C7
C7
C7
C7
C6
C6
C6
C6
FE
7C
38
ENDCHAR
STARTCHAR cid183
ENCODING 212
SWIDTH 532 0
DWIDTH 10 0
BBX 8 20 1 -1
BITMAP
3C
7C
66
42
00
7C
7E
FE
C7
C7
C7
C7
C7
C6
C6
C6
C6
FE
7C
38
ENDCHAR
STARTCHAR cid184
ENCODING 213
SWIDTH 532 0
DWIDTH 10 0
BBX 8 20 1 -1
BITMAP
20
72
FF
0C
00
7C
7E
FE
C7
C7
C7
C7
C7
C6
C6
C6
C6
FE
7C
38
ENDCHAR
STARTCHAR cid185
ENCODING 214
SWIDTH 532 0
DWIDTH 10 0
BBX 8 19 1 -1
BITMAP
6E
6E
66
00
7C
7E
FE
C7
C7
C7
C7
C7
C6
C6
C6
C6
FE
7C
38
ENDCHAR
STARTCHAR cid695
ENCODING 215
SWIDTH 573 0
DWIDTH 10 0
BBX 8 8 1 2
BITMAP
02
67
7F
3E
3C
7E
F7
42
ENDCHAR
STARTCHAR cid142
ENCODING 216
SWIDTH 532 0
DWIDTH 10 0
BBX 9 16 1 -1
BITMAP
0380
7F00
7F00
FE00
C700
CF00
CF00
DF00
DF00
FE00
F600
F600
E600
FE00
FC00
F800
ENDCHAR
STARTCHAR cid187
ENCODING 217
SWIDTH 530 0
DWIDTH 10 0
BBX 8 20 1 -1
BITMAP
10
38
3C
18
00
E7
E7
E7
E7
E7
E7
E7
E7
E7
E7
E7
E7
FE
7C
3C
ENDCHAR
STARTCHAR cid188
ENCODING 218
SWIDTH 530 0
DWIDTH 10 0
BBX 8 20 1 -1
BITMAP
08
1C
38
30
00
E7
E7
E7
E7
E7
E7
E7
E7
E7
E7
E7
E7
FE
7C
3C
ENDCHAR
STARTCHAR cid189
ENCODING 219
SWIDTH 530 0
DWIDTH 10 0
BBX 8 20 1 -1
BITMAP
3C
7C
66
42
00
E7
E7
E7
E7
E7
E7
E7
E7
E7
E7
E7
E7
FE
7C
3C
ENDCHAR
STARTCHAR cid190
ENCODING 220
SWIDTH 530 0
DWIDTH 10 0
BBX 8 19 1 -1
BITMAP
6E
6E
66
00
E7
E7
E7
E7
E7
E7
E7
E7
E7
E7
E7
E7
FE
7C
3C
ENDCHAR
STARTCHAR cid191
ENCODING 221
SWIDTH 482 0
DWIDTH 9 0
BBX 8 20 0 -1
BITMAP
04
0E
1C
18
00
E7
67
67
67
67
67
67
67
77
3E
1C
18
18
18
18
ENDCHAR
STARTCHAR cid192
ENCODING 222
SWIDTH 480 0
DWIDTH 9 0
BBX 7 15 1 -1
BITMAP
C0
C0
F8
FC
FE
C6
C6
C6
C6
C6
FC
F8
C0
C0
C0
ENDCHAR
STARTCHAR cid150
ENCODING 223
SWIDTH 490 0
DWIDTH 9 0
BBX 7 15 1 -1
BITMAP
78
FC
C6
C6
C6
C6
C6
CE
DC
CE
C6
C6
C6
DC
D8
ENDCHAR
STARTCHAR cid193
ENCODING 224
SWIDTH 509 0
DWIDTH 9 0
BBX 8 16 1 -1
BITMAP
30
38
3C
18
00
7C
7E
06
7E
FE
CE
CE
CC
CC
FF
3A
ENDCHAR
STARTCHAR cid194
ENCODING 225
SWIDTH 511 0
DWIDTH 9 0
BBX 8 16 1 -1
BITMAP
08
1C
38
30
00
7C
7E
06
7E
FE
CE
CE
CC
CC
FF
3A
ENDCHAR
STARTCHAR cid195
ENCODING 226
SWIDTH 511 0
DWIDTH 9 0
BBX 8 16 1 -1
BITMAP
38
7C
EE
44
00
7C
7E
06
7E
FE
CE
CE
CC
CC
FF
3A
ENDCHAR
STARTCHAR cid196
ENCODING 227
SWIDTH 511 0
DWIDTH 9 0
BBX 9 16 0 -1
BITMAP
1000
3900
FF80
4E00
0000
3E00
3F00
0300
3F00
7F00
6700
6700
6600
6600
7F80
1D00
ENDCHAR
STARTCHAR cid197
ENCODING 228
SWIDTH 510 0
DWIDTH 9 0
BBX 8 15 1 -1
BITMAP
6E
6E
6E
00
7C
7E
06
7E
FE
CE
CE
CC
CC
FF
3A
ENDCHAR
STARTCHAR cid198
ENCODING 229
SWIDTH 507 0
DWIDTH 9 0
BBX 8 16 1 -1
BITMAP
38
6C
6C
38
00
7C
7E
06
7E
FE
CE
CE
CC
CC
FF
3A
ENDCHAR
STARTCHAR cid145
ENCODING 230
SWIDTH 805 0
DWIDTH 14 0
BBX 13 11 1 -1
BITMAP
7DE0
7FF0
0738
7F38
FFF8
CFF0
CF00
CF30
CF30
FFF0
39E0
ENDCHAR
STARTCHAR cid199
ENCODING 231
SWIDTH 478 0
DWIDTH 9 0
BBX 7 14 1 -4
BITMAP
78
FC
C6
C6
C0
C0
C0
CE
CE
7C
38
20
18
18
ENDCHAR
STARTCHAR cid200
ENCODING 232
SWIDTH 482 0
DWIDTH 9 0
BBX 7 16 1 -1
BITMAP
30
38
3C
18
00
7C
FE
C6
C6
FE
FE
C0
CE
CE
FC
38
ENDCHAR
STARTCHAR cid201
ENCODING 233
SWIDTH 482 0
DWIDTH 9 0
BBX 7 16 1 -1
BITMAP
08
1C
38
30
00
7C
FE
C6
C6
FE
FE
C0
CE
CE
FC
38
ENDCHAR
STARTCHAR cid202
ENCODING 234
SWIDTH 482 0
DWIDTH 9 0
BBX 7 16 1 -1
BITMAP
38
7C
EE
C4
00
7C
FE
C6
C6
FE
FE
C0
CE
CE
FC
38
ENDCHAR
STARTCHAR cid203
ENCODING 235
SWIDTH 482 0
DWIDTH 9 0
BBX 7 15 1 -1
BITMAP
EC
EC
EC
00
7C
FE
C6
C6
FE
FE
C0
CE
CE
FC
38
ENDCHAR
STARTCHAR cid204
ENCODING 236
SWIDTH 352 0
DWIDTH 6 0
BBX 5 16 1 -1
BITMAP
40
E0
78
30
00
60
60
60
60
60
60
60
60
60
60
60
ENDCHAR
STARTCHAR cid205
ENCODING 237
SWIDTH 352 0
DWIDTH 6 0
BBX 4 16 1 -1
BITMAP
20
70
F0
60
00
60
60
60
60
60
60
60
60
60
60
60
ENDCHAR
STARTCHAR cid206
ENCODING 238
SWIDTH 412 0
DWIDTH 7 0
BBX 7 16 0 -1
BITMAP
38
7C
E6
46
00
38
38
38
38
38
38
38
38
38
38
38
ENDCHAR
STARTCHAR cid207
ENCODING 239
SWIDTH 412 0
DWIDTH 7 0
BBX 6 15 1 -1
BITMAP
DC
DC
DC
00
70
70
70
70
70
70
70
70
70
70
70
ENDCHAR
STARTCHAR cid208
ENCODING 240
SWIDTH 551 0
DWIDTH 10 0
BBX 8 16 1 -1
BITMAP
30
3F
1F
7C
7E
07
7F
FF
FF
C3
C7
C7
C7
C7
7E
3C
ENDCHAR
STARTCHAR cid209
ENCODING 241
SWIDTH 475 0
DWIDTH 9 0
BBX 8 15 0 -1
BITMAP
31
FF
4E
00
1C
3E
7F
63
63
63
63
63
63
63
63
ENDCHAR
STARTCHAR cid210
ENCODING 242
SWIDTH 479 0
DWIDTH 9 0
BBX 7 16 1 -1
BITMAP
20
70
3C
18
00
78
FC
CE
CE
CE
CE
CE
CE
CE
7C
38
ENDCHAR
STARTCHAR cid211
ENCODING 243
SWIDTH 472 0
DWIDTH 9 0
BBX 7 16 1 -1
BITMAP
10
38
78
30
00
78
FC
CE
CE
CE
CE
CE
CE
CE
7C
38
ENDCHAR
STARTCHAR cid212
ENCODING 244
SWIDTH 469 0
DWIDTH 8 0
BBX 7 16 1 -1
BITMAP
38
7C
CC
C4
00
78
FC
CE
CE
CE
CE
CE
CE
CE
7C
38
ENDCHAR
STARTCHAR cid213
ENCODING 245
SWIDTH 470 0
DWIDTH 8 0
BBX 8 15 0 -1
BITMAP
71
FF
4E
00
3C
7E
67
67
67
67
67
67
67
3E
1C
ENDCHAR
STARTCHAR cid214
ENCODING 246
SWIDTH 469 0
DWIDTH 8 0
BBX 7 15 1 -1
BITMAP
CC
CC
CC
00
78
FC
CE
CE
CE
CE
CE
CE
CE
7C
38
ENDCHAR
STARTCHAR cid696
ENCODING 247
SWIDTH 629 0
DWIDTH 11 0
BBX 9 8 1 2
BITMAP
1C00
1C00
0000
FF80
FF80
0000
1C00
1C00
ENDCHAR
STARTCHAR cid148
ENCODING 248
SWIDTH 459 0
DWIDTH 8 0
BBX 8 12 0 -1
BITMAP
02
3F
7E
E7
EE
6E
7E
7E
76
76
7E
5C
ENDCHAR
STARTCHAR cid216
ENCODING 249
SWIDTH 520 0
DWIDTH 9 0
BBX 8 16 1 -1
BITMAP
30
38
3C
18
00
E7
E7
E6
C6
C6
C6
C6
C6
FE
7F
39
ENDCHAR
STARTCHAR cid217
ENCODING 250
SWIDTH 520 0
DWIDTH 9 0
BBX 8 16 1 -1
BITMAP
08
1C
3C
30
00
E7
E7
E6
C6
C6
C6
C6
C6
FE
7F
39
ENDCHAR
STARTCHAR cid218
ENCODING 251
SWIDTH 520 0
DWIDTH 9 0
BBX 8 16 1 -1
BITMAP
38
7C
E6
46
00
E7
E7
E6
C6
C6
C6
C6
C6
FE
7F
39
ENDCHAR
STARTCHAR cid219
ENCODING 252
SWIDTH 520 0
DWIDTH 9 0
BBX 8 15 1 -1
BITMAP
6E
6E
66
00
E7
E7
E6
C6
C6
C6
C6
C6
FE
7F
39
ENDCHAR
STARTCHAR cid220
ENCODING 253
SWIDTH 481 0
DWIDTH 9 0
BBX 8 20 0 -5
BITMAP
0C
1E
3C
18
00
E7
67
67
67
67
67
67
66
66
3E
1E
06
06
06
06
ENDCHAR
STARTCHAR cid221
ENCODING 254
SWIDTH 481 0
DWIDTH 9 0
BBX 7 17 1 -4
BITMAP
C0
C0
C0
F8
FC
FE
C6
C6
C6
C6
C6
CE
FC
F8
C0
C0
C0
ENDCHAR
STARTCHAR cid222
ENCODING 255
SWIDTH 481 0
DWIDTH 9 0
BBX 8 19 0 -5
BITMAP
76
76
76
00
E7
67
67
67
67
67
67
66
66
3E
1E
06
06
06
06
ENDCHAR
STARTCHAR Amacron
ENCODING 256
SWIDTH 515 0
DWIDTH 9 0
BBX 8 19 1 -1
BITMAP
FE
FE
FE
00
7C
FE
FF
C7
C7
C7
C7
C7
E6
FE
FE
E6
E6
E6
E6
ENDCHAR
STARTCHAR amacron
ENCODING 257
SWIDTH 513 0
DWIDTH 9 0
BBX 8 15 1 -1
BITMAP
FE
FE
FE
00
7C
7E
06
7E
FE
CE
CE
CC
CC
FF
3A
ENDCHAR
STARTCHAR Abreve
ENCODING 258
SWIDTH 515 0
DWIDTH 9 0
BBX 8 19 1 -1
BITMAP
C6
FE
7C
00
7C
FE
FF
C7
C7
C7
C7
C7
E6
FE
FE
E6
E6
E6
E6
ENDCHAR
STARTCHAR abreve
ENCODING 259
SWIDTH 513 0
DWIDTH 9 0
BBX 9 15 0 -1
BITMAP
6300
FF00
3E00
0000
3E00
3F00
0300
3F00
7F00
6700
6700
6600
6600
7F80
1D00
ENDCHAR
STARTCHAR Aogonek
ENCODING 260
SWIDTH 515 0
DWIDTH 9 0
BBX 8 17 1 -3
BITMAP
7C
FE
FF
C7
C7
C7
C7
C7
E6
FE
FE
E6
E6
E6
E6
04
06
ENDCHAR
STARTCHAR aogonek
ENCODING 261
SWIDTH 511 0
DWIDTH 9 0
BBX 8 13 1 -3
BITMAP
7C
7E
06
7E
FE
CE
CE
CC
CC
FF
3E
04
0E
ENDCHAR
STARTCHAR Cacute
ENCODING 262
SWIDTH 510 0
DWIDTH 9 0
BBX 8 20 1 -1
BITMAP
10
38
78
30
00
7C
7E
FE
C7
C6
C6
C6
C0
C0
C0
C6
C6
FE
7C
38
ENDCHAR
STARTCHAR cacute
ENCODING 263
SWIDTH 478 0
DWIDTH 9 0
BBX 7 16 1 -1
BITMAP
18
3C
78
30
00
78
FC
C6
C6
C0
C0
C0
CE
CE
7C
38
ENDCHAR
STARTCHAR Cdotaccent
ENCODING 266
SWIDTH 510 0
DWIDTH 9 0
BBX 8 19 1 -1
BITMAP
38
38
38
00
7C
7E
FE
C7
C6
C6
C6
C0
C0
C0
C6
C6
FE
7C
38
ENDCHAR
STARTCHAR cdotaccent
ENCODING 267
SWIDTH 478 0
DWIDTH 9 0
BBX 7 15 1 -1
BITMAP
38
38
38
00
78
FC
C6
C6
C0
C0
C0
CE
CE
7C
38
ENDCHAR
STARTCHAR Ccaron
ENCODING 268
SWIDTH 510 0
DWIDTH 9 0
BBX 8 20 1 -1
BITMAP
44
EE
6C
38
00
7C
7E
FE
C7
C6
C6
C6
C0
C0
C0
C6
C6
FE
7C
38
ENDCHAR
STARTCHAR ccaron
ENCODING 269
SWIDTH 478 0
DWIDTH 9 0
BBX 7 16 1 -1
BITMAP
C4
EC
78
30
00
78
FC
C6
C6
C0
C0
C0
CE
CE
7C
38
ENDCHAR
STARTCHAR Dcaron
ENCODING 270
SWIDTH 517 0
DWIDTH 9 0
BBX 9 20 0 -1
BITMAP
2200
7700
3600
1C00
0000
FE00
7F00
7F80
6380
6380
6380
6380
6300
6300
6300
6300
6300
7F00
7E00
7C00
ENDCHAR
STARTCHAR dcaron
ENCODING 271
SWIDTH 480 0
DWIDTH 9 0
BBX 7 20 1 -1
BITMAP
44
CE
7C
38
00
06
06
06
06
7E
FE
C6
C6
C6
C6
C6
C6
C6
7E
3E
ENDCHAR
STARTCHAR Emacron
ENCODING 274
SWIDTH 468 0
DWIDTH 8 0
BBX 7 19 1 -1
BITMAP
FE
FE
FE
00
FE
FE
FE
C0
C0
C0
C0
DC
FC
FC
C0
C0
FE
FE
FE
ENDCHAR
STARTCHAR emacron
ENCODING 275
SWIDTH 482 0
DWIDTH 9 0
BBX 7 15 1 -1
BITMAP
E0
FE
FE
00
7C
FE
C6
C6
FE
FE
C0
CE
CE
FC
38
ENDCHAR
STARTCHAR Edotaccent
ENCODING 278
SWIDTH 468 0
DWIDTH 8 0
BBX 7 19 1 -1
BITMAP
38
38
38
00
FE
FE
FE
C0
C0
C0
C0
DC
FC
FC
C0
C0
FE
FE
FE
ENDCHAR
STARTCHAR edotaccent
ENCODING 279
SWIDTH 482 0
DWIDTH 9 0
BBX 7 15 1 -1
BITMAP
38
38
38
00
7C
FE
C6
C6
FE
FE
C0
CE
CE
FC
38
ENDCHAR
STARTCHAR Eogonek
ENCODING 280
SWIDTH 468 0
DWIDTH 8 0
BBX 7 18 1 -4
BITMAP
FE
FE
FE
C0
C0
C0
C0
DC
FC
FC
C0
C0
FE
FE
FE
08
0A
04
ENDCHAR
STARTCHAR eogonek
ENCODING 281
SWIDTH 482 0
DWIDTH 9 0
BBX 7 14 1 -4
BITMAP
7C
FE
C6
C6
FE
FE
C0
CE
CE
FC
38
10
18
08
ENDCHAR
STARTCHAR Ecaron
ENCODING 282
SWIDTH 468 0
DWIDTH 8 0
BBX 7 20 1 -1
BITMAP
44
EE
6C
38
00
FE
FE
FE
C0
C0
C0
C0
DC
FC
FC
C0
C0
FE
FE
FE
ENDCHAR
STARTCHAR ecaron
ENCODING 283
SWIDTH 482 0
DWIDTH 9 0
BBX 7 16 1 -1
BITMAP
C4
EC
78
30
00
7C
FE
C6
C6
FE
FE
C0
CE
CE
FC
38
ENDCHAR
STARTCHAR Gbreve
ENCODING 286
SWIDTH 548 0
DWIDTH 10 0
BBX 8 19 1 -1
BITMAP
46
FF
7C
00
3E
7E
FF
E7
E7
E0
E0
E0
E0
EF
EF
E7
FF
7E
3C
ENDCHAR
STARTCHAR gbreve
ENCODING 287
SWIDTH 490 0
DWIDTH 9 0
BBX 8 19 0 -5
BITMAP
63
FF
3E
00
3C
7E
63
63
67
67
67
67
67
3E
1E
66
66
3E
18
ENDCHAR
STARTCHAR Gdotaccent
ENCODING 288
SWIDTH 548 0
DWIDTH 10 0
BBX 8 19 1 -1
BITMAP
18
18
18
00
3E
7E
FF
E7
E7
E0
E0
E0
E0
EF
EF
E7
FF
7E
3C
ENDCHAR
STARTCHAR gdotaccent
ENCODING 289
SWIDTH 490 0
DWIDTH 9 0
BBX 7 19 1 -5
BITMAP
38
38
38
00
78
FC
C6
C6
CE
CE
CE
CE
CE
7C
3C
CC
CC
7C
30
ENDCHAR
STARTCHAR uni0122
ENCODING 290
SWIDTH 548 0
DWIDTH 10 0
BBX 8 19 1 -5
BITMAP
3E
7E
FF
E7
E7
E0
E0
E0
E0
EF
EF
E7
FF
7E
3C
00
18
18
18
ENDCHAR
STARTCHAR uni0123
ENCODING 291
SWIDTH 490 0
DWIDTH 9 0
BBX 7 19 1 -5
BITMAP
30
30
00
00
78
FC
C6
C6
CE
CE
CE
CE
CE
7C
3C
CC
CC
7C
30
ENDCHAR
STARTCHAR Hbar
ENCODING 294
SWIDTH 637 0
DWIDTH 11 0
BBX 11 15 0 -1
BITMAP
39C0
FFE0
FFE0
79C0
39C0
31C0
31C0
31C0
3F80
3F80
3180
3180
3180
3180
3180
ENDCHAR
STARTCHAR hbar
ENCODING 295
SWIDTH 527 0
DWIDTH 9 0
BBX 9 15 0 -1
BITMAP
7000
FC00
FC00
7000
7E00
7F00
7F80
7380
7380
7380
7380
3380
3380
3380
3380
ENDCHAR
STARTCHAR Imacron
ENCODING 298
SWIDTH 438 0
DWIDTH 8 0
BBX 7 19 0 -1
BITMAP
FE
FE
FE
00
18
18
18
18
18
18
18
18
18
18
18
18
18
18
18
ENDCHAR
STARTCHAR imacron
ENCODING 299
SWIDTH 417 0
DWIDTH 8 0
BBX 7 15 0 -1
BITMAP
FE
FE
7E
00
38
38
38
38
38
38
38
38
38
38
38
ENDCHAR
STARTCHAR Iogonek
ENCODING 302
SWIDTH 233 0
DWIDTH 4 0
BBX 3 18 1 -4
BITMAP
E0
E0
C0
C0
C0
C0
C0
C0
C0
C0
C0
C0
C0
C0
C0
80
E0
40
ENDCHAR
STARTCHAR iogonek
ENCODING 303
SWIDTH 236 0
DWIDTH 4 0
BBX 3 14 1 -4
BITMAP
C0
C0
C0
C0
C0
C0
C0
C0
C0
C0
C0
80
A0
40
ENDCHAR
STARTCHAR Idotaccent
ENCODING 304
SWIDTH 233 0
DWIDTH 4 0
BBX 3 19 1 -1
BITMAP
C0
C0
C0
00
E0
E0
C0
C0
C0
C0
C0
C0
C0
C0
C0
C0
C0
C0
C0
ENDCHAR
STARTCHAR dotlessi
ENCODING 305
SWIDTH 236 0
DWIDTH 4 0
BBX 2 11 1 -1
BITMAP
C0
C0
C0
C0
C0
C0
C0
C0
C0
C0
C0
ENDCHAR
STARTCHAR IJ
ENCODING 306
SWIDTH 711 0
DWIDTH 13 0
BBX 11 15 1 -1
BITMAP
E0E0
E0E0
E0E0
E0E0
C0E0
C0E0
C0E0
C0C0
C0C0
C0C0
DCC0
DCC0
DFC0
CF80
C700
ENDCHAR
STARTCHAR ij
ENCODING 307
SWIDTH 487 0
DWIDTH 9 0
BBX 7 18 1 -4
BITMAP
EE
EE
EE
00
EE
EE
CE
CE
CE
CE
CE
CE
CE
CE
CE
0E
3C
38
ENDCHAR
STARTCHAR uni0136
ENCODING 310
SWIDTH 498 0
DWIDTH 9 0
BBX 7 20 1 -6
BITMAP
E4
EE
EC
FC
F8
F8
F0
E0
E0
F0
F0
F8
FE
EE
EE
00
38
30
10
10
ENDCHAR
STARTCHAR uni0137
ENCODING 311
SWIDTH 482 0
DWIDTH 9 0
BBX 7 20 1 -6
BITMAP
E0
E0
E0
C0
CC
DC
D8
F0
F0
F0
F0
D8
DE
CE
CE
00
30
30
10
10
ENDCHAR
STARTCHAR Lacute
ENCODING 313
SWIDTH 383 0
DWIDTH 7 0
BBX 5 20 1 -1
BITMAP
20
70
F0
60
00
E0
E0
E0
E0
E0
E0
C0
C0
C0
C0
C0
C0
F8
F8
F8
ENDCHAR
STARTCHAR lacute
ENCODING 314
SWIDTH 336 0
DWIDTH 6 0
BBX 4 20 1 -1
BITMAP
20
70
F0
C0
00
60
60
60
60
60
60
60
60
60
60
60
60
60
60
60
ENDCHAR
STARTCHAR uni013B
ENCODING 315
SWIDTH 383 0
DWIDTH 7 0
BBX 6 19 0 -5
BITMAP
E0
E0
E0
60
60
60
60
60
60
60
60
60
7C
7C
7C
00
38
38
10
ENDCHAR
STARTCHAR cid296
ENCODING 316
SWIDTH 223 0
DWIDTH 4 0
BBX 2 19 1 -5
BITMAP
C0
C0
C0
C0
C0
C0
C0
C0
C0
C0
C0
C0
C0
C0
C0
00
C0
C0
40
ENDCHAR
STARTCHAR Lcaron
ENCODING 317
SWIDTH 427 0
DWIDTH 8 0
BBX 6 20 1 -1
BITMAP
84
CC
F8
70
00
E0
E0
E0
E0
E0
E0
C0
C0
C0
C0
C0
C0
F8
F8
F8
ENDCHAR
STARTCHAR lcaron
ENCODING 318
SWIDTH 429 0
DWIDTH 8 0
BBX 6 20 1 -1
BITMAP
84
CC
F8
70
00
70
70
70
70
70
30
30
30
30
30
30
30
30
30
30
ENDCHAR
STARTCHAR Lslash
ENCODING 321
SWIDTH 459 0
DWIDTH 8 0
BBX 7 15 1 -1
BITMAP
70
70
70
70
78
7C
7C
F0
F0
F0
70
70
7E
7E
7E
ENDCHAR
STARTCHAR lslash
ENCODING 322
SWIDTH 420 0
DWIDTH 8 0
BBX 6 15 1 -1
BITMAP
70
70
70
70
78
7C
7C
F0
F0
30
30
30
30
30
30
ENDCHAR
STARTCHAR Nacute
ENCODING 323
SWIDTH 563 0
DWIDTH 10 0
BBX 9 20 1 -1
BITMAP
0800
1C00
3C00
3000
0000
C380
E380
E300
E300
F300
F300
FB00
DB00
DB00
FF00
EF00
EF00
E700
E700
E700
ENDCHAR
STARTCHAR nacute
ENCODING 324
SWIDTH 475 0
DWIDTH 9 0
BBX 7 16 1 -1
BITMAP
10
38
78
20
00
38
7C
FE
C6
C6
C6
C6
C6
C6
C6
C6
ENDCHAR
STARTCHAR uni0145
ENCODING 325
SWIDTH 571 0
DWIDTH 10 0
BBX 9 19 1 -5
BITMAP
C380
E380
E300
E300
F300
F300
FB00
DB00
DB00
FF00
EF00
EF00
E700
E700
E700
0000
1800
1800
1800
ENDCHAR
STARTCHAR uni0146
ENCODING 326
SWIDTH 471 0
DWIDTH 8 0
BBX 7 15 1 -5
BITMAP
38
7C
FE
C6
C6
C6
C6
C6
C6
C6
C6
00
30
30
10
ENDCHAR
STARTCHAR Ncaron
ENCODING 327
SWIDTH 572 0
DWIDTH 10 0
BBX 9 20 1 -1
BITMAP
4200
6600
3C00
1800
0000
C380
E380
E300
E300
F300
F300
FB00
DB00
DB00
FF00
EF00
EF00
E700
E700
E700
ENDCHAR
STARTCHAR ncaron
ENCODING 328
SWIDTH 475 0
DWIDTH 9 0
BBX 7 16 1 -1
BITMAP
C4
EE
7C
30
00
38
7C
FE
C6
C6
C6
C6
C6
C6
C6
C6
ENDCHAR
STARTCHAR Ohungarumlaut
ENCODING 336
SWIDTH 528 0
DWIDTH 10 0
BBX 8 20 1 -1
BITMAP
64
66
6E
EC
00
7C
7E
FE
C7
C7
C7
C7
C7
C6
C6
C6
C6
FE
7C
38
ENDCHAR
STARTCHAR ohungarumlaut
ENCODING 337
SWIDTH 468 0
DWIDTH 8 0
BBX 7 16 1 -1
BITMAP
6E
EE
CC
CC
00
78
FC
CE
CE
CE
CE
CE
CE
CE
7C
38
ENDCHAR
STARTCHAR OE
ENCODING 338
SWIDTH 841 0
DWIDTH 15 0
BBX 14 15 1 -1
BITMAP
7FFC
7FFC
FFFC
C780
C780
C780
C780
C7B8
C7F8
C7F8
C780
C780
FFFC
7DF8
39F8
ENDCHAR
STARTCHAR oe
ENCODING 339
SWIDTH 795 0
DWIDTH 14 0
BBX 13 11 1 -1
BITMAP
79E0
FFF0
C738
C738
CFF8
CFF0
CF00
CF30
CF30
7FF0
39E0
ENDCHAR
STARTCHAR Racute
ENCODING 340
SWIDTH 508 0
DWIDTH 9 0
BBX 8 20 1 -1
BITMAP
08
1C
38
30
00
FC
FE
E7
C7
C6
C6
C6
C6
C6
FE
FC
D8
DD
CE
C6
ENDCHAR
STARTCHAR racute
ENCODING 341
SWIDTH 395 0
DWIDTH 7 0
BBX 6 16 1 -1
BITMAP
30
78
F0
60
00
FC
FC
F8
E0
C0
C0
C0
C0
C0
C0
C0
ENDCHAR
STARTCHAR Rcaron
ENCODING 344
SWIDTH 508 0
DWIDTH 9 0
BBX 8 20 1 -1
BITMAP
44
EE
6C
38
00
FC
FE
E7
C7
C6
C6
C6
C6
C6
FE
FC
D8
DD
CE
C6
ENDCHAR
STARTCHAR rcaron
ENCODING 345
SWIDTH 430 0
DWIDTH 8 0
BBX 6 16 1 -1
BITMAP
8C
DC
78
30
00
EC
FC
FC
E0
E0
E0
E0
E0
C0
C0
C0
ENDCHAR
STARTCHAR Sacute
ENCODING 346
SWIDTH 538 0
DWIDTH 10 0
BBX 8 20 1 -1
BITMAP
08
1C
38
30
00
7C
FE
F3
C3
C3
E0
E0
FC
7E
3F
07
E7
E7
7E
3C
ENDCHAR
STARTCHAR sacute
ENCODING 347
SWIDTH 484 0
DWIDTH 9 0
BBX 7 16 1 -1
BITMAP
10
38
78
30
00
38
7E
C6
C6
E8
7C
3E
0E
CE
7C
38
ENDCHAR
STARTCHAR Scedilla
ENCODING 350
SWIDTH 544 0
DWIDTH 10 0
BBX 8 18 1 -4
BITMAP
7C
FE
F3
C3
C3
E0
E0
FC
7E
3F
07
E7
E7
7E
3C
10
0C
0C
ENDCHAR
STARTCHAR scedilla
ENCODING 351
SWIDTH 491 0
DWIDTH 9 0
BBX 7 14 1 -4
BITMAP
38
7E
C6
C6
E8
7C
3E
0E
CE
7C
38
20
1C
1C
ENDCHAR
STARTCHAR cid330
ENCODING 352
SWIDTH 544 0
DWIDTH 10 0
BBX 8 20 1 -1
BITMAP
42
66
3C
38
00
7C
FE
F3
C3
C3
E0
E0
FC
7E
3F
07
E7
E7
7E
3C
ENDCHAR
STARTCHAR scaron
ENCODING 353
SWIDTH 491 0
DWIDTH 9 0
BBX 7 16 1 -1
BITMAP
C4
EC
78
30
00
38
7E
C6
C6
E8
7C
3E
0E
CE
7C
38
ENDCHAR
STARTCHAR cid334
ENCODING 356
SWIDTH 524 0
DWIDTH 9 0
BBX 8 20 1 -1
BITMAP
46
E6
7C
38
00
FF
FF
FF
38
38
38
38
38
38
38
38
38
38
38
38
ENDCHAR
STARTCHAR tcaron
ENCODING 357
SWIDTH 428 0
DWIDTH 8 0
BBX 6 18 1 -1
BITMAP
8C
CC
78
70
00
60
60
FC
FC
64
60
60
60
60
60
7C
3C
1C
ENDCHAR
STARTCHAR cid340
ENCODING 362
SWIDTH 530 0
DWIDTH 10 0
BBX 8 19 1 -1
BITMAP
FF
FF
FE
00
E7
E7
E7
E7
E7
E7
E7
E7
E7
E7
E7
E7
FE
7C
3C
ENDCHAR
STARTCHAR umacron
ENCODING 363
SWIDTH 520 0
DWIDTH 9 0
BBX 8 15 1 -1
BITMAP
E0
FE
FE
00
E7
E7
E6
C6
C6
C6
C6
C6
FE
7F
39
ENDCHAR
STARTCHAR cid344
ENCODING 366
SWIDTH 530 0
DWIDTH 10 0
BBX 8 20 1 -1
BITMAP
3C
24
2C
18
00
E7
E7
E7
E7
E7
E7
E7
E7
E7
E7
E7
E7
FE
7C
3C
ENDCHAR
STARTCHAR cid345
ENCODING 367
SWIDTH 520 0
DWIDTH 9 0
BBX 8 16 1 -1
BITMAP
38
6C
6C
38
00
E7
E7
E6
C6
C6
C6
C6
C6
FE
7F
39
ENDCHAR
STARTCHAR cid346
ENCODING 368
SWIDTH 530 0
DWIDTH 10 0
BBX 8 20 1 -1
BITMAP
64
66
6E
EC
00
E7
E7
E7
E7
E7
E7
E7
E7
E7
E7
E7
E7
FE
7C
3C
ENDCHAR
STARTCHAR cid347
ENCODING 369
SWIDTH 520 0
DWIDTH 9 0
BBX 8 16 1 -1
BITMAP
76
6E
EE
CC
00
E7
E7
E6
C6
C6
C6
C6
C6
FE
7F
39
ENDCHAR
STARTCHAR cid348
ENCODING 370
SWIDTH 530 0
DWIDTH 10 0
BBX 8 18 1 -4
BITMAP
E7
E7
E7
E7
E7
E7
E7
E7
E7
E7
E7
E7
FE
7C
3C
18
1C
08
ENDCHAR
STARTCHAR cid349
ENCODING 371
SWIDTH 520 0
DWIDTH 9 0
BBX 8 13 1 -3
BITMAP
E7
E7
E6
C6
C6
C6
C6
C6
FE
7F
3B
06
07
ENDCHAR
STARTCHAR cid354
ENCODING 376
SWIDTH 482 0
DWIDTH 9 0
BBX 8 19 0 -1
BITMAP
66
66
66
00
E7
67
67
67
67
67
67
67
77
3E
1C
18
18
18
18
ENDCHAR
STARTCHAR cid355
ENCODING 377
SWIDTH 502 0
DWIDTH 9 0
BBX 8 20 1 -1
BITMAP
10
38
78
30
00
FC
FE
FE
07
0E
1C
1C
38
30
70
E0
C0
FE
FE
FE
ENDCHAR
STARTCHAR cid356
ENCODING 378
SWIDTH 496 0
DWIDTH 9 0
BBX 8 16 0 -1
BITMAP
04
0E
1C
18
00
7F
7F
7F
06
0E
1C
38
70
FF
7F
7F
ENDCHAR
STARTCHAR cid357
ENCODING 379
SWIDTH 502 0
DWIDTH 9 0
BBX 8 19 1 -1
BITMAP
38
38
38
00
FC
FE
FE
07
0E
1C
1C
38
30
70
E0
C0
FE
FE
FE
ENDCHAR
STARTCHAR cid358
ENCODING 380
SWIDTH 496 0
DWIDTH 9 0
BBX 8 15 0 -1
BITMAP
1C
1C
1C
00
7F
7F
7F
06
0E
1C
38
70
FF
7F
7F
ENDCHAR
STARTCHAR cid359
ENCODING 381
SWIDTH 502 0
DWIDTH 9 0
BBX 8 20 1 -1
BITMAP
44
EE
6C
38
00
FC
FE
FE
07
0E
1C
1C
38
30
70
E0
C0
FE
FE
FE
ENDCHAR
STARTCHAR cid360
ENCODING 382
SWIDTH 496 0
DWIDTH 9 0
BBX 8 16 0 -1
BITMAP
62
77
3E
18
00
7F
7F
7F
06
0E
1C
38
70
FF
7F
7F
ENDCHAR
STARTCHAR cid364
ENCODING 402
SWIDTH 631 0
DWIDTH 11 0
BBX 10 18 1 -4
BITMAP
0180
07C0
0FC0
0E00
0C00
0C00
7F80
7F80
7F80
0C00
0C00
0C00
0C00
0C00
1C00
F800
F000
E000
ENDCHAR
STARTCHAR cid383
ENCODING 453
SWIDTH 1009 0
DWIDTH 18 0
BBX 16 16 1 -1
BITMAP
0062
FC77
FE3E
FF1C
C700
C77F
C77F
C77F
C707
C70E
C61C
C638
C670
FE7F
FC7F
F87F
ENDCHAR
STARTCHAR cid384
ENCODING 454
SWIDTH 953 0
DWIDTH 17 0
BBX 15 16 1 -1
BITMAP
00C4
06EC
0678
0630
0600
7EFE
FEFE
C6FE
C60C
C61C
C638
C670
C6E0
C7FE
7EFE
3EFE
ENDCHAR
STARTCHAR cid396
ENCODING 498
SWIDTH 875 0
DWIDTH 16 0
BBX 14 15 1 -1
BITMAP
F800
FC00
FE00
C600
C6F8
C6FC
CEFC
CE18
CE38
CE30
CE70
CCE0
FCFC
F8FC
F078
ENDCHAR
STARTCHAR cid397
ENCODING 499
SWIDTH 800 0
DWIDTH 14 0
BBX 13 15 1 -1
BITMAP
0C00
0C00
0C00
0C00
7DF0
FDF0
CDF8
CC70
CC70
CCE0
CCC0
CDC0
CFF0
7DF0
3DF0
ENDCHAR
STARTCHAR cid420
ENCODING 538
SWIDTH 502 0
DWIDTH 9 0
BBX 8 19 1 -5
BITMAP
FF
FF
FF
38
38
38
38
38
38
38
38
38
38
38
38
00
18
18
18
ENDCHAR
STARTCHAR cid421
ENCODING 539
SWIDTH 459 0
DWIDTH 8 0
BBX 6 17 1 -5
BITMAP
60
60
FC
FC
64
60
60
60
60
60
7C
3C
1C
00
30
30
10
ENDCHAR
STARTCHAR cid98
ENCODING 699
SWIDTH 291 0
DWIDTH 5 0
BBX 3 6 1 9
BITMAP
40
C0
E0
E0
E0
E0
ENDCHAR
STARTCHAR cid96
ENCODING 700
SWIDTH 277 0
DWIDTH 5 0
BBX 3 6 1 9
BITMAP
E0
E0
E0
E0
60
40
ENDCHAR
STARTCHAR cid128
ENCODING 710
SWIDTH 502 0
DWIDTH 9 0
BBX 7 4 1 12
BITMAP
38
7C
EE
C6
ENDCHAR
STARTCHAR cid433
ENCODING 711
SWIDTH 449 0
DWIDTH 8 0
BBX 6 4 1 15
BITMAP
84
CC
78
70
ENDCHAR
STARTCHAR cid450
ENCODING 728
SWIDTH 502 0
DWIDTH 9 0
BBX 7 3 1 15
BITMAP
C6
FE
7C
ENDCHAR
STARTCHAR cid451
ENCODING 729
SWIDTH 283 0
DWIDTH 5 0
BBX 3 3 1 15
BITMAP
E0
E0
E0
ENDCHAR
STARTCHAR cid133
ENCODING 730
SWIDTH 311 0
DWIDTH 6 0
BBX 4 4 1 15
BITMAP
F0
90
B0
60
ENDCHAR
STARTCHAR cid453
ENCODING 731
SWIDTH 252 0
DWIDTH 5 0
BBX 3 3 1 -4
BITMAP
C0
A0
40
ENDCHAR
STARTCHAR cid454
ENCODING 732
SWIDTH 515 0
DWIDTH 9 0
BBX 8 4 1 15
BITMAP
20
F2
DF
8C
ENDCHAR
STARTCHAR gravecomb
ENCODING 768
SWIDTH 345 0
DWIDTH 6 0
BBX 5 5 1 11
BITMAP
E0
F0
70
78
30
ENDCHAR
STARTCHAR cid127
ENCODING 769
SWIDTH 321 0
DWIDTH 6 0
BBX 4 4 1 15
BITMAP
20
70
F0
C0
ENDCHAR
STARTCHAR uni0302
ENCODING 770
SWIDTH 296 0
DWIDTH 5 0
BBX 1 1 0 0
BITMAP
00
ENDCHAR
STARTCHAR tildecomb
ENCODING 771
SWIDTH 586 0
DWIDTH 11 0
BBX 9 4 1 11
BITMAP
2000
7300
FF80
4E00
ENDCHAR
STARTCHAR uni0304
ENCODING 772
SWIDTH 464 0
DWIDTH 8 0
BBX 6 3 1 16
BITMAP
FC
FC
FC
ENDCHAR
STARTCHAR cid226
ENCODING 773
SWIDTH 438 0
DWIDTH 8 0
BBX 6 2 1 15
BITMAP
FC
FC
ENDCHAR
STARTCHAR cid130
ENCODING 774
SWIDTH 502 0
DWIDTH 9 0
BBX 7 3 1 15
BITMAP
C6
FE
7C
ENDCHAR
STARTCHAR cid131
ENCODING 775
SWIDTH 283 0
DWIDTH 5 0
BBX 3 3 1 15
BITMAP
E0
E0
E0
ENDCHAR
STARTCHAR cid132
ENCODING 776
SWIDTH 451 0
DWIDTH 8 0
BBX 6 3 1 15
BITMAP
CC
CC
CC
ENDCHAR
STARTCHAR uni030A
ENCODING 778
SWIDTH 296 0
DWIDTH 5 0
BBX 1 1 0 0
BITMAP
00
ENDCHAR
STARTCHAR cid135
ENCODING 779
SWIDTH 501 0
DWIDTH 9 0
BBX 7 4 1 15
BITMAP
44
6E
EE
CC
ENDCHAR
STARTCHAR cid137
ENCODING 780
SWIDTH 449 0
DWIDTH 8 0
BBX 6 4 1 15
BITMAP
84
CC
78
70
ENDCHAR
STARTCHAR uni0327
ENCODING 807
SWIDTH 252 0
DWIDTH 5 0
BBX 3 3 1 -4
BITMAP
80
E0
E0
ENDCHAR
STARTCHAR cid136
ENCODING 808
SWIDTH 252 0
DWIDTH 5 0
BBX 3 3 1 -4
BITMAP
C0
A0
40
ENDCHAR
STARTCHAR uni0332
ENCODING 818
SWIDTH 433 0
DWIDTH 8 0
BBX 6 3 1 -1
BITMAP
FC
FC
80
ENDCHAR
STARTCHAR cid138
ENCODING 822
SWIDTH 755 0
DWIDTH 14 0
BBX 11 3 1 5
BITMAP
FFE0
FFE0
FFE0
ENDCHAR
STARTCHAR cid458
ENCODING 894
SWIDTH 376 0
DWIDTH 7 0
BBX 4 14 1 -4
BITMAP
F0
70
70
70
00
00
00
00
70
70
70
30
30
20
ENDCHAR
STARTCHAR cid459
ENCODING 900
SWIDTH 353 0
DWIDTH 6 0
BBX 2 3 2 15
BITMAP
C0
C0
C0
ENDCHAR
STARTCHAR cid460
ENCODING 901
SWIDTH 353 0
DWIDTH 6 0
BBX 6 6 0 12
BITMAP
30
30
30
00
EC
EC
ENDCHAR
STARTCHAR cid461
ENCODING 902
SWIDTH 690 0
DWIDTH 12 0
BBX 11 16 1 0
BITMAP
6000
6000
7E00
1E00
1F00
1F00
3B00
3B00
3380
3380
7380
7180
7FC0
FFC0
E1C0
E0E0
ENDCHAR
STARTCHAR cid462
ENCODING 903
SWIDTH 303 0
DWIDTH 5 0
BBX 4 3 1 4
BITMAP
F0
E0
E0
ENDCHAR
STARTCHAR cid463
ENCODING 904
SWIDTH 589 0
DWIDTH 11 0
BBX 10 17 0 -1
BITMAP
C000
C000
DFC0
1FC0
1FC0
1800
1800
1800
1800
1B80
1F80
1F80
1C00
1C00
1FC0
1FC0
0FC0
ENDCHAR
STARTCHAR cid464
ENCODING 905
SWIDTH 653 0
DWIDTH 12 0
BBX 11 17 0 -1
BITMAP
E000
E000
5CE0
1CE0
1CE0
1CE0
1CE0
1CE0
1CE0
1CE0
1FE0
1FE0
1CE0
1CE0
1CE0
1CE0
1CE0
ENDCHAR
STARTCHAR cid465
ENCODING 906
SWIDTH 366 0
DWIDTH 7 0
BBX 6 17 0 -1
BITMAP
E0
E0
5C
1C
1C
1C
1C
1C
1C
1C
1C
1C
1C
1C
1C
1C
1C
ENDCHAR
STARTCHAR cid467
ENCODING 908
SWIDTH 600 0
DWIDTH 11 0
BBX 10 17 0 -1
BITMAP
E000
E000
4F00
1F80
3FC0
39C0
39C0
39C0
39C0
39C0
39C0
39C0
39C0
39C0
3F80
1F00
0F00
ENDCHAR
STARTCHAR cid469
ENCODING 910
SWIDTH 685 0
DWIDTH 12 0
BBX 12 17 0 -1
BITMAP
C000
C000
DC70
1C60
1C60
0CE0
0EE0
0EC0
06C0
07C0
07C0
0780
0380
0380
0380
0380
0380
ENDCHAR
STARTCHAR cid470
ENCODING 911
SWIDTH 718 0
DWIDTH 13 0
BBX 12 17 0 -1
BITMAP
C000
C000
CF80
1FC0
3FE0
7070
7070
7070
7070
6030
6070
7070
38E0
1DC0
7DF0
7DF0
4010
ENDCHAR
STARTCHAR cid471
ENCODING 912
SWIDTH 413 0
DWIDTH 7 0
BBX 6 19 1 -1
BITMAP
30
30
30
00
DC
DC
00
00
70
70
70
70
70
70
70
70
7C
3C
0C
ENDCHAR
STARTCHAR cid1011
ENCODING 913
SWIDTH 707 0
DWIDTH 13 0
BBX 11 14 1 0
BITMAP
1E00
1E00
1F00
1B00
3B00
3300
3380
3180
7180
71C0
7FC0
FFC0
E0C0
C0E0
ENDCHAR
STARTCHAR cid1012
ENCODING 914
SWIDTH 489 0
DWIDTH 9 0
BBX 8 15 0 -1
BITMAP
FE
FF
63
67
67
67
6E
7E
7F
67
67
67
67
7F
7C
ENDCHAR
STARTCHAR cid1013
ENCODING 915
SWIDTH 472 0
DWIDTH 9 0
BBX 7 15 1 -1
BITMAP
FE
FE
FE
C0
C0
C0
C0
C0
C0
C0
C0
C0
C0
C0
C0
ENDCHAR
STARTCHAR cid1014
ENCODING 916
SWIDTH 647 0
DWIDTH 12 0
BBX 11 15 0 -1
BITMAP
0E00
0F00
1F00
1F00
1B80
3980
3980
31C0
31C0
70C0
60E0
60E0
FFE0
7FE0
3FC0
ENDCHAR
STARTCHAR cid1015
ENCODING 917
SWIDTH 468 0
DWIDTH 8 0
BBX 7 15 1 -1
BITMAP
FE
FE
FE
C0
C0
C0
C0
DC
FC
FC
C0
C0
FE
FE
FE
ENDCHAR
STARTCHAR cid1016
ENCODING 918
SWIDTH 502 0
DWIDTH 9 0
BBX 8 15 1 -1
BITMAP
FC
FE
FE
07
0E
1C
1C
38
30
70
E0
C0
FE
FE
FE
ENDCHAR
STARTCHAR cid1017
ENCODING 919
SWIDTH 518 0
DWIDTH 9 0
BBX 8 15 1 -1
BITMAP
E7
E7
E7
E7
E7
E7
C7
C7
FF
FE
C6
C6
C6
C6
C6
ENDCHAR
STARTCHAR cid1018
ENCODING 920
SWIDTH 575 0
DWIDTH 10 0
BBX 9 15 1 -1
BITMAP
7E00
7F00
FF00
C380
C380
C380
DF80
DF80
DF00
C300
C300
C300
FF00
7E00
3C00
ENDCHAR
STARTCHAR cid1019
ENCODING 921
SWIDTH 237 0
DWIDTH 4 0
BBX 3 15 1 -1
BITMAP
E0
E0
E0
E0
E0
E0
E0
E0
E0
C0
C0
C0
C0
C0
C0
ENDCHAR
STARTCHAR cid1020
ENCODING 922
SWIDTH 498 0
DWIDTH 9 0
BBX 7 15 1 -1
BITMAP
E4
EE
EC
FC
F8
F8
F0
E0
E0
F0
F0
F8
FE
EE
EE
ENDCHAR
STARTCHAR cid1021
ENCODING 923
SWIDTH 692 0
DWIDTH 12 0
BBX 11 15 1 -1
BITMAP
1E00
1E00
1F00
3F00
3F00
3B00
3380
7380
7380
7380
71C0
E1C0
E1C0
E1E0
E0C0
ENDCHAR
STARTCHAR cid1022
ENCODING 924
SWIDTH 662 0
DWIDTH 12 0
BBX 10 15 1 -1
BITMAP
E1C0
E1C0
E1C0
E3C0
F3C0
F3C0
F3C0
F7C0
DEC0
DEC0
DEC0
DCC0
CCC0
C0C0
C0C0
ENDCHAR
STARTCHAR cid1023
ENCODING 925
SWIDTH 563 0
DWIDTH 10 0
BBX 9 15 1 -1
BITMAP
C380
E380
E300
E300
F300
F300
FB00
DB00
DB00
FF00
EF00
EF00
E700
E700
E700
ENDCHAR
STARTCHAR cid1024
ENCODING 926
SWIDTH 595 0
DWIDTH 11 0
BBX 9 15 1 -1
BITMAP
FF80
FF80
FF80
0000
0000
0000
FF80
FF80
FF80
0000
0000
0000
FF80
FF80
E000
ENDCHAR
STARTCHAR cid1025
ENCODING 927
SWIDTH 532 0
DWIDTH 10 0
BBX 8 15 1 -1
BITMAP
7C
7E
FE
C7
C7
C7
C7
C7
C6
C6
C6
C6
FE
7C
38
ENDCHAR
STARTCHAR cid1026
ENCODING 928
SWIDTH 550 0
DWIDTH 10 0
BBX 8 15 1 -1
BITMAP
FF
FF
FF
E3
E3
E3
E3
E3
E3
E3
E7
E7
E7
E7
E6
ENDCHAR
STARTCHAR cid1027
ENCODING 929
SWIDTH 534 0
DWIDTH 10 0
BBX 8 15 1 -1
BITMAP
FC
FE
FF
C7
C7
C7
C7
C7
C6
FE
FC
C0
C0
C0
C0
ENDCHAR
STARTCHAR cid1028
ENCODING 931
SWIDTH 541 0
DWIDTH 10 0
BBX 8 15 1 -1
BITMAP
FF
FF
FF
F0
70
38
1C
1C
1C
38
70
E0
FF
FF
FF
ENDCHAR
STARTCHAR cid1029
ENCODING 932
SWIDTH 524 0
DWIDTH 9 0
BBX 8 15 1 -1
BITMAP
FF
FF
FF
38
38
38
38
38
38
38
38
38
38
38
38
ENDCHAR
STARTCHAR cid1030
ENCODING 933
SWIDTH 561 0
DWIDTH 10 0
BBX 8 15 1 -1
BITMAP
E3
E3
E7
67
66
76
7E
3E
3C
3C
3C
3C
3C
38
38
ENDCHAR
STARTCHAR cid1031
ENCODING 934
SWIDTH 631 0
DWIDTH 11 0
BBX 11 15 0 -1
BITMAP
0E00
0E00
3FC0
7FC0
EE60
EE60
EE60
EE60
E660
E660
7FE0
7FC0
1F80
0600
0600
ENDCHAR
STARTCHAR cid1032
ENCODING 935
SWIDTH 485 0
DWIDTH 9 0
BBX 7 15 1 -1
BITMAP
EE
EE
EC
7C
7C
78
38
38
38
78
7C
7C
EC
CE
CE
ENDCHAR
STARTCHAR cid1033
ENCODING 936
SWIDTH 693 0
DWIDTH 12 0
BBX 11 15 1 -1
BITMAP
CCE0
CCE0
CCE0
CCE0
CCE0
CCC0
CCC0
CCC0
CCC0
FFC0
7F80
3D00
0C00
0C00
0C00
ENDCHAR
STARTCHAR cid1034
ENCODING 937
SWIDTH 718 0
DWIDTH 13 0
BBX 11 15 1 -1
BITMAP
1F00
3F80
7FC0
E0E0
E0E0
E0E0
E0E0
C060
C0E0
E0E0
71C0
3B80
FBE0
FBE0
8020
ENDCHAR
STARTCHAR cid472
ENCODING 938
SWIDTH 372 0
DWIDTH 7 0
BBX 6 19 0 -1
BITMAP
EC
EC
EC
00
38
38
38
38
38
38
38
38
38
38
38
38
30
30
30
ENDCHAR
STARTCHAR cid473
ENCODING 939
SWIDTH 545 0
DWIDTH 10 0
BBX 8 19 1 -1
BITMAP
66
66
66
00
C3
E7
E6
E6
66
6E
7C
7C
3C
3C
38
38
38
38
38
ENDCHAR
STARTCHAR cid474
ENCODING 940
SWIDTH 625 0
DWIDTH 11 0
BBX 11 15 0 -1
BITMAP
0600
0600
0600
0000
3C00
7C40
FEE0
E7C0
E780
6700
6700
7F80
7DC0
78C0
2000
ENDCHAR
STARTCHAR cid475
ENCODING 941
SWIDTH 513 0
DWIDTH 9 0
BBX 8 15 1 -1
BITMAP
38
18
10
08
7E
FF
C6
C0
F8
78
C0
C2
F6
7E
3C
ENDCHAR
STARTCHAR cid476
ENCODING 942
SWIDTH 553 0
DWIDTH 10 0
BBX 9 18 0 -4
BITMAP
0C00
0C00
0C00
0000
FF00
7F80
3180
3180
3180
3180
7180
7180
7180
7180
7180
0180
0180
0180
ENDCHAR
STARTCHAR cid477
ENCODING 943
SWIDTH 330 0
DWIDTH 6 0
BBX 5 15 1 -1
BITMAP
C0
C0
C0
00
C0
C0
C0
C0
C0
C0
C0
C0
F8
78
38
ENDCHAR
STARTCHAR cid478
ENCODING 944
SWIDTH 492 0
DWIDTH 9 0
BBX 7 19 1 -1
BITMAP
38
38
18
00
6E
6E
00
00
C6
C6
C6
C6
C6
C6
C6
C6
FE
7C
38
ENDCHAR
STARTCHAR cid1035
ENCODING 945
SWIDTH 625 0
DWIDTH 11 0
BBX 11 11 0 -1
BITMAP
3C00
7C40
FEE0
E7C0
E780
6700
6700
7F80
7DC0
78C0
2000
ENDCHAR
STARTCHAR cid1036
ENCODING 946
SWIDTH 534 0
DWIDTH 10 0
BBX 8 19 1 -5
BITMAP
3C
FE
F7
C6
C6
C6
CE
DE
D8
CF
C7
C7
F7
FF
CC
C0
C0
C0
C0
ENDCHAR
STARTCHAR cid1037
ENCODING 947
SWIDTH 609 0
DWIDTH 11 0
BBX 10 15 1 -4
BITMAP
01C0
E180
F380
7B80
3B00
1B00
1F00
1F00
1E00
0E00
0E00
0E00
0C00
0C00
0E00
ENDCHAR
STARTCHAR cid1038
ENCODING 948
SWIDTH 564 0
DWIDTH 10 0
BBX 10 15 0 -1
BITMAP
7F80
7F80
EF80
7800
1C00
1F00
3F80
7180
71C0
6180
6180
7180
7380
3F00
1E00
ENDCHAR
STARTCHAR cid1039
ENCODING 949
SWIDTH 513 0
DWIDTH 9 0
BBX 8 12 1 -1
BITMAP
08
7E
FF
C6
C0
F8
78
C0
C2
F6
7E
3C
ENDCHAR
STARTCHAR cid1040
ENCODING 950
SWIDTH 649 0
DWIDTH 12 0
BBX 10 19 1 -5
BITMAP
7F80
7F80
7FC0
0780
0F00
1E00
3C00
7800
F000
E000
C000
C400
FF00
FF80
7B80
0380
0FC0
0F00
0C00
ENDCHAR
STARTCHAR cid1041
ENCODING 951
SWIDTH 553 0
DWIDTH 10 0
BBX 9 14 0 -4
BITMAP
FF00
7F80
3180
3180
3180
3180
7180
7180
7180
7180
7180
0180
0180
0180
ENDCHAR
STARTCHAR cid1042
ENCODING 952
SWIDTH 512 0
DWIDTH 9 0
BBX 8 15 1 -1
BITMAP
3C
7C
FE
C7
C6
C6
FE
FE
FE
C6
C6
C6
FE
7C
38
ENDCHAR
STARTCHAR cid1043
ENCODING 953
SWIDTH 330 0
DWIDTH 6 0
BBX 5 11 1 -1
BITMAP
C0
C0
C0
C0
C0
C0
C0
C0
F8
78
38
ENDCHAR
STARTCHAR cid1044
ENCODING 954
SWIDTH 505 0
DWIDTH 9 0
BBX 8 11 0 -1
BITMAP
E3
E7
E6
6E
7C
7C
7E
6E
67
63
62
ENDCHAR
STARTCHAR cid1045
ENCODING 955
SWIDTH 611 0
DWIDTH 11 0
BBX 11 15 0 -1
BITMAP
7000
7800
1C00
1C00
0C00
0C00
1E00
1E00
1E00
3E00
3600
7700
73E0
61C0
E0C0
ENDCHAR
STARTCHAR cid1046
ENCODING 956
SWIDTH 540 0
DWIDTH 10 0
BBX 8 15 1 -5
BITMAP
E7
E7
E6
C6
C6
C6
C6
C6
FE
FF
F9
C0
C0
C0
C0
ENDCHAR
STARTCHAR cid1047
ENCODING 957
SWIDTH 512 0
DWIDTH 9 0
BBX 8 11 1 -1
BITMAP
E7
E6
E6
66
6E
6C
7C
3C
3C
38
38
ENDCHAR
STARTCHAR cid1048
ENCODING 958
SWIDTH 660 0
DWIDTH 12 0
BBX 10 19 1 -5
BITMAP
FFC0
FFC0
3F80
F800
E000
E000
7F00
3E00
7200
E000
E000
E200
7F80
7FC0
3DC0
01C0
0FC0
0F00
0400
ENDCHAR
STARTCHAR cid1049
ENCODING 959
SWIDTH 476 0
DWIDTH 9 0
BBX 7 11 1 -1
BITMAP
78
FC
CE
CE
CE
CE
CE
CE
CE
7C
38
ENDCHAR
STARTCHAR cid1050
ENCODING 960
SWIDTH 724 0
DWIDTH 13 0
BBX 11 11 1 -1
BITMAP
FFE0
FFE0
3B00
3B00
3B00
3300
3300
3300
3360
71E0
60E0
ENDCHAR
STARTCHAR cid1051
ENCODING 961
SWIDTH 498 0
DWIDTH 9 0
BBX 7 15 1 -5
BITMAP
7C
FE
E6
E6
E6
E6
E6
C6
FE
FC
F0
C0
C0
C0
C0
ENDCHAR
STARTCHAR cid479
ENCODING 962
SWIDTH 531 0
DWIDTH 10 0
BBX 8 14 1 -4
BITMAP
3E
7F
F7
C2
C0
C0
C0
C0
FC
7E
3F
06
3E
1E
ENDCHAR
STARTCHAR cid1052
ENCODING 963
SWIDTH 565 0
DWIDTH 10 0
BBX 9 11 1 -1
BITMAP
7F80
FF80
C600
C600
C600
C600
C600
C600
FE00
7C00
3800
ENDCHAR
STARTCHAR cid1053
ENCODING 964
SWIDTH 411 0
DWIDTH 7 0
BBX 7 11 0 -1
BITMAP
FE
FE
38
38
38
38
38
38
38
3E
0E
ENDCHAR
STARTCHAR cid1054
ENCODING 965
SWIDTH 511 0
DWIDTH 9 0
BBX 7 11 1 -1
BITMAP
C6
C6
C6
C6
C6
C6
C6
C6
FE
7C
38
ENDCHAR
STARTCHAR cid1055
ENCODING 966
SWIDTH 668 0
DWIDTH 12 0
BBX 10 18 1 -4
BITMAP
0C00
0C00
0C00
0C00
7F80
FFC0
CCC0
CCC0
CCC0
CCC0
CCC0
CCC0
7F80
3F00
0C00
0C00
0C00
0C00
ENDCHAR
STARTCHAR cid1056
ENCODING 967
SWIDTH 594 0
DWIDTH 11 0
BBX 10 15 0 -5
BITMAP
71C0
FB80
1B80
0F00
0F00
0E00
0E00
0C00
0C00
1C00
1E00
1F00
3BC0
33C0
7040
ENDCHAR
STARTCHAR cid1057
ENCODING 968
SWIDTH 706 0
DWIDTH 13 0
BBX 11 15 1 -5
BITMAP
CEE0
CCE0
CCE0
CCE0
CCE0
CCE0
CCE0
CCC0
FFC0
7F80
3C00
0C00
0C00
0C00
0C00
ENDCHAR
STARTCHAR cid1058
ENCODING 969
SWIDTH 828 0
DWIDTH 15 0
BBX 13 11 1 -1
BITMAP
6030
F070
E038
C018
C718
C718
C718
C718
FFF8
7FF0
39E0
ENDCHAR
STARTCHAR cid480
ENCODING 970
SWIDTH 413 0
DWIDTH 7 0
BBX 6 15 1 -1
BITMAP
DC
DC
DC
00
70
70
70
70
70
70
70
70
7C
3C
0C
ENDCHAR
STARTCHAR cid481
ENCODING 971
SWIDTH 489 0
DWIDTH 9 0
BBX 7 15 1 -1
BITMAP
EC
EC
EC
00
C6
C6
C6
C6
C6
C6
C6
C6
FE
7C
38
ENDCHAR
STARTCHAR cid482
ENCODING 972
SWIDTH 459 0
DWIDTH 8 0
BBX 7 15 1 -1
BITMAP
30
30
30
00
78
FC
CE
CE
CE
CE
CE
CE
CE
7C
38
ENDCHAR
STARTCHAR cid483
ENCODING 973
SWIDTH 475 0
DWIDTH 9 0
BBX 8 15 0 -1
BITMAP
18
18
18
00
E7
E7
E7
E7
E7
E7
E7
E7
FF
3E
1C
ENDCHAR
STARTCHAR cid484
ENCODING 974
SWIDTH 828 0
DWIDTH 15 0
BBX 13 15 1 -1
BITMAP
0600
0600
0600
0000
6030
F070
E038
C018
C718
C718
C718
C718
FFF8
7FF0
39E0
ENDCHAR
STARTCHAR cid486
ENCODING 1025
SWIDTH 468 0
DWIDTH 8 0
BBX 7 19 1 -1
BITMAP
CC
CC
CC
00
FE
FE
FE
C0
C0
C0
C0
DC
FC
FC
C0
C0
FE
FE
FE
ENDCHAR
STARTCHAR cid1059
ENCODING 1040
SWIDTH 707 0
DWIDTH 13 0
BBX 11 14 1 0
BITMAP
1E00
1E00
1F00
1B00
3B00
3300
3380
3180
7180
71C0
7FC0
FFC0
E0C0
C0E0
ENDCHAR
STARTCHAR cid1060
ENCODING 1041
SWIDTH 495 0
DWIDTH 9 0
BBX 8 14 0 0
BITMAP
FF
FF
60
60
60
60
7C
7F
63
63
63
63
7F
7E
ENDCHAR
STARTCHAR cid1061
ENCODING 1042
SWIDTH 509 0
DWIDTH 9 0
BBX 8 15 1 -1
BITMAP
FC
FE
FF
C7
C6
C6
C6
E6
FC
FE
E6
E6
E6
FC
F8
ENDCHAR
STARTCHAR cid1062
ENCODING 1043
SWIDTH 453 0
DWIDTH 8 0
BBX 7 15 1 -1
BITMAP
FE
FE
FE
C0
C0
C0
C0
C0
C0
C0
C0
C0
C0
C0
C0
ENDCHAR
STARTCHAR cid1063
ENCODING 1044
SWIDTH 707 0
DWIDTH 13 0
BBX 12 17 0 -3
BITMAP
0FE0
0FE0
0FE0
0C60
0C60
0C60
0C60
1C60
1C60
1860
1860
3860
FFF0
FFF0
FFF0
E070
E070
ENDCHAR
STARTCHAR cid1064
ENCODING 1045
SWIDTH 468 0
DWIDTH 8 0
BBX 7 15 1 -1
BITMAP
FE
FE
FE
C0
C0
C0
C0
DC
FC
FC
C0
C0
FE
FE
FE
ENDCHAR
STARTCHAR cid1066
ENCODING 1046
SWIDTH 745 0
DWIDTH 13 0
BBX 12 15 1 -1
BITMAP
E670
E6F0
F6F0
37C0
3780
1F80
1F00
1F00
1F80
3F80
3FC0
7EC0
6EE0
EEE0
6E60
ENDCHAR
STARTCHAR cid1067
ENCODING 1047
SWIDTH 510 0
DWIDTH 9 0
BBX 8 15 1 -1
BITMAP
7C
FE
FF
47
07
07
27
3C
3E
07
07
47
E7
FE
7C
ENDCHAR
STARTCHAR cid1068
ENCODING 1048
SWIDTH 563 0
DWIDTH 10 0
BBX 8 15 1 -1
BITMAP
C3
C7
C7
C7
CF
CF
DF
DB
DB
FB
F3
F3
E7
E7
C7
ENDCHAR
STARTCHAR cid1069
ENCODING 1049
SWIDTH 563 0
DWIDTH 10 0
BBX 8 19 1 -1
BITMAP
62
FF
3E
00
C3
C7
C7
C7
CF
CF
DF
DB
DB
FB
F3
F3
E7
E7
C7
ENDCHAR
STARTCHAR cid1070
ENCODING 1050
SWIDTH 514 0
DWIDTH 9 0
BBX 8 15 1 -1
BITMAP
CF
CF
DF
F8
F0
F0
F0
F0
F0
F8
D8
DC
DC
CC
C8
ENDCHAR
STARTCHAR cid1071
ENCODING 1051
SWIDTH 724 0
DWIDTH 13 0
BBX 12 15 0 -1
BITMAP
07F0
07F0
0E30
0E30
0E30
0E30
0E30
0E30
0E30
0C30
0C30
1C30
FC70
7870
7070
ENDCHAR
STARTCHAR cid1072
ENCODING 1052
SWIDTH 662 0
DWIDTH 12 0
BBX 10 15 1 -1
BITMAP
E1C0
E1C0
E1C0
E3C0
F3C0
F3C0
F3C0
F7C0
DEC0
DEC0
DEC0
DCC0
CCC0
C0C0
C0C0
ENDCHAR
STARTCHAR cid1073
ENCODING 1053
SWIDTH 518 0
DWIDTH 9 0
BBX 8 15 1 -1
BITMAP
E7
E7
E7
E7
E7
E7
C7
C7
FF
FE
C6
C6
C6
C6
C6
ENDCHAR
STARTCHAR cid1074
ENCODING 1054
SWIDTH 532 0
DWIDTH 10 0
BBX 8 15 1 -1
BITMAP
7C
7E
FE
C7
C7
C7
C7
C7
C6
C6
C6
C6
FE
7C
38
ENDCHAR
STARTCHAR cid1075
ENCODING 1055
SWIDTH 550 0
DWIDTH 10 0
BBX 8 15 1 -1
BITMAP
FF
FF
FF
E3
E3
E3
E3
E3
E3
E3
E7
E7
E7
E7
E6
ENDCHAR
STARTCHAR cid1076
ENCODING 1056
SWIDTH 534 0
DWIDTH 10 0
BBX 8 15 1 -1
BITMAP
FC
FE
FF
C7
C7
C7
C7
C7
C6
FE
FC
C0
C0
C0
C0
ENDCHAR
STARTCHAR cid1077
ENCODING 1057
SWIDTH 510 0
DWIDTH 9 0
BBX 8 15 1 -1
BITMAP
7C
7E
FE
C7
C6
C6
C6
C0
C0
C0
C6
C6
FE
7C
38
ENDCHAR
STARTCHAR cid1078
ENCODING 1058
SWIDTH 524 0
DWIDTH 9 0
BBX 8 15 1 -1
BITMAP
FF
FF
FF
38
38
38
38
38
38
38
38
38
38
38
38
ENDCHAR
STARTCHAR cid1079
ENCODING 1059
SWIDTH 517 0
DWIDTH 9 0
BBX 8 15 1 -1
BITMAP
E7
EE
EE
6E
6C
7C
3C
3C
38
38
38
38
30
30
70
ENDCHAR
STARTCHAR cid1080
ENCODING 1060
SWIDTH 631 0
DWIDTH 11 0
BBX 11 15 0 -1
BITMAP
0E00
0E00
3FC0
7FC0
EE60
EE60
EE60
EE60
E660
E660
7FE0
7FC0
1F80
0600
0600
ENDCHAR
STARTCHAR cid1081
ENCODING 1061
SWIDTH 485 0
DWIDTH 9 0
BBX 7 15 1 -1
BITMAP
EE
EE
EC
7C
7C
78
38
38
38
78
7C
7C
EC
CE
CE
ENDCHAR
STARTCHAR cid1082
ENCODING 1062
SWIDTH 563 0
DWIDTH 10 0
BBX 8 17 1 -3
BITMAP
E7
E7
E7
E7
E7
E7
C6
C6
C6
C6
C6
C6
FE
FF
03
03
03
ENDCHAR
STARTCHAR cid1083
ENCODING 1063
SWIDTH 510 0
DWIDTH 9 0
BBX 8 15 0 -1
BITMAP
E3
63
63
63
63
63
63
7F
3F
03
03
03
03
03
06
ENDCHAR
STARTCHAR cid1084
ENCODING 1064
SWIDTH 801 0
DWIDTH 14 0
BBX 13 14 1 0
BITMAP
E738
E738
E738
E738
E738
E738
E638
E638
E638
C638
C638
C630
FFF0
FFF0
ENDCHAR
STARTCHAR cid1085
ENCODING 1065
SWIDTH 843 0
DWIDTH 15 0
BBX 14 17 0 -3
BITMAP
F39C
F39C
639C
639C
639C
639C
639C
6398
6398
6398
6398
6398
7FFC
7FFC
000C
000C
000C
ENDCHAR
STARTCHAR cid1086
ENCODING 1066
SWIDTH 592 0
DWIDTH 11 0
BBX 10 15 0 -1
BITMAP
F800
F800
F800
3800
3800
3800
3F00
3FC0
38C0
38C0
38C0
38C0
3FC0
3F80
0F00
ENDCHAR
STARTCHAR cid1087
ENCODING 1067
SWIDTH 721 0
DWIDTH 13 0
BBX 12 15 0 -1
BITMAP
E070
E070
E070
E070
6070
6070
7E70
7F30
63B0
63B0
63B0
63B0
7FB0
7F30
3E30
ENDCHAR
STARTCHAR cid1088
ENCODING 1068
SWIDTH 519 0
DWIDTH 9 0
BBX 9 15 0 -1
BITMAP
E000
E000
E000
E000
E000
6000
7E00
7F00
6380
6380
6380
6380
7F80
7F00
3E00
ENDCHAR
STARTCHAR cid1089
ENCODING 1069
SWIDTH 567 0
DWIDTH 10 0
BBX 9 15 1 -1
BITMAP
7C00
FE00
FF00
4700
0300
0380
1F80
1F80
1F80
0380
0300
4300
E700
FE00
7C00
ENDCHAR
STARTCHAR cid1090
ENCODING 1070
SWIDTH 712 0
DWIDTH 13 0
BBX 11 15 1 -1
BITMAP
C7C0
C7C0
CFE0
CC60
CC60
CC60
FC60
FC60
FC60
CC60
CC60
CC60
CFE0
C7C0
C380
ENDCHAR
STARTCHAR cid1091
ENCODING 1071
SWIDTH 488 0
DWIDTH 9 0
BBX 8 15 0 -1
BITMAP
3F
7F
E7
E3
63
63
63
63
63
7F
3F
1B
7B
73
73
ENDCHAR
STARTCHAR cid1092
ENCODING 1072
SWIDTH 493 0
DWIDTH 9 0
BBX 8 11 1 -1
BITMAP
7C
7E
06
7E
FE
CE
CE
CC
CE
FF
30
ENDCHAR
STARTCHAR cid1093
ENCODING 1073
SWIDTH 478 0
DWIDTH 9 0
BBX 8 15 0 -1
BITMAP
1E
3E
70
E0
7C
7E
6F
63
63
63
63
67
67
3E
1C
ENDCHAR
STARTCHAR cid1094
ENCODING 1074
SWIDTH 462 0
DWIDTH 8 0
BBX 8 11 0 -1
BITMAP
FE
FF
67
67
7E
7C
67
66
66
7E
7C
ENDCHAR
STARTCHAR cid1095
ENCODING 1075
SWIDTH 415 0
DWIDTH 7 0
BBX 6 11 1 -1
BITMAP
FC
FC
C0
C0
C0
C0
C0
C0
C0
C0
C0
ENDCHAR
STARTCHAR cid1096
ENCODING 1076
SWIDTH 590 0
DWIDTH 11 0
BBX 9 13 1 -3
BITMAP
3F00
3F00
3300
3300
3300
3300
7300
6300
FF00
FF80
FF80
C180
C180
ENDCHAR
STARTCHAR cid1097
ENCODING 1077
SWIDTH 482 0
DWIDTH 9 0
BBX 7 12 1 -1
BITMAP
78
7C
FE
C6
C6
FE
FC
C0
CE
CE
FC
38
ENDCHAR
STARTCHAR cid1099
ENCODING 1078
SWIDTH 731 0
DWIDTH 13 0
BBX 11 11 1 -1
BITMAP
E6E0
E6E0
3580
3780
1F00
1F00
3F80
7FC0
6EC0
EEE0
EE60
ENDCHAR
STARTCHAR cid1100
ENCODING 1079
SWIDTH 513 0
DWIDTH 9 0
BBX 8 12 1 -1
BITMAP
20
FC
FE
C7
07
3E
3C
3F
07
E7
FE
7C
ENDCHAR
STARTCHAR cid1101
ENCODING 1080
SWIDTH 516 0
DWIDTH 9 0
BBX 9 12 0 -1
BITMAP
E000
E380
E380
E780
6780
6F80
7F80
7B80
7B80
7380
6380
4380
ENDCHAR
STARTCHAR cid1102
ENCODING 1081
SWIDTH 516 0
DWIDTH 9 0
BBX 9 15 0 -1
BITMAP
7F00
7F00
1C00
E000
E380
E380
E780
6780
6F80
7F80
7B80
7B80
7380
6380
4380
ENDCHAR
STARTCHAR cid1103
ENCODING 1082
SWIDTH 456 0
DWIDTH 8 0
BBX 8 12 0 -1
BITMAP
E7
EF
6F
78
78
70
78
78
7C
6C
6E
6C
ENDCHAR
STARTCHAR cid1104
ENCODING 1083
SWIDTH 592 0
DWIDTH 11 0
BBX 10 11 0 -1
BITMAP
1FC0
1FC0
18C0
18C0
18C0
18C0
18C0
38C0
F0C0
70C0
60C0
ENDCHAR
STARTCHAR cid1105
ENCODING 1084
SWIDTH 673 0
DWIDTH 12 0
BBX 11 11 1 -1
BITMAP
E1E0
E1C0
F1C0
F3C0
F3C0
FBC0
DEC0
DEC0
CEC0
CCC0
CC00
ENDCHAR
STARTCHAR cid1106
ENCODING 1085
SWIDTH 526 0
DWIDTH 9 0
BBX 8 11 1 -1
BITMAP
E7
E7
E7
E7
C7
FF
FF
C6
C6
C6
C6
ENDCHAR
STARTCHAR cid1107
ENCODING 1086
SWIDTH 459 0
DWIDTH 8 0
BBX 7 12 1 -1
BITMAP
18
7C
FE
CE
CE
CE
CE
CE
CE
CE
7C
38
ENDCHAR
STARTCHAR cid1108
ENCODING 1087
SWIDTH 500 0
DWIDTH 9 0
BBX 7 11 1 -1
BITMAP
FE
FE
C6
C6
C6
C6
C6
C6
C6
C6
C6
ENDCHAR
STARTCHAR cid1109
ENCODING 1088
SWIDTH 464 0
DWIDTH 8 0
BBX 7 15 1 -5
BITMAP
FC
FE
CE
CE
CE
CE
CE
CE
FC
F8
E0
C0
C0
C0
C0
ENDCHAR
STARTCHAR cid1110
ENCODING 1089
SWIDTH 478 0
DWIDTH 9 0
BBX 7 11 1 -1
BITMAP
7C
FE
C6
C6
C0
C0
C0
CE
CE
7C
38
ENDCHAR
STARTCHAR cid1111
ENCODING 1090
SWIDTH 483 0
DWIDTH 9 0
BBX 8 12 0 -1
BITMAP
0F
FF
7F
1C
1C
1C
1C
1C
18
18
18
18
ENDCHAR
STARTCHAR cid1112
ENCODING 1091
SWIDTH 491 0
DWIDTH 9 0
BBX 7 14 1 -4
BITMAP
EE
EE
EE
6C
7C
7C
3C
38
38
38
38
30
30
70
ENDCHAR
STARTCHAR cid1113
ENCODING 1092
SWIDTH 668 0
DWIDTH 12 0
BBX 10 18 1 -4
BITMAP
0C00
0C00
0C00
0C00
7F80
FFC0
CCC0
CCC0
CCC0
CCC0
CCC0
CCC0
7F80
3F00
0C00
0C00
0C00
0C00
ENDCHAR
STARTCHAR cid1114
ENCODING 1093
SWIDTH 462 0
DWIDTH 8 0
BBX 6 12 1 -1
BITMAP
48
EC
EC
FC
78
78
38
78
78
FC
CC
48
ENDCHAR
STARTCHAR cid1115
ENCODING 1094
SWIDTH 529 0
DWIDTH 10 0
BBX 8 13 1 -3
BITMAP
C6
C6
C6
C6
C6
C6
C6
C6
C6
FF
FF
03
03
ENDCHAR
STARTCHAR cid1116
ENCODING 1095
SWIDTH 476 0
DWIDTH 9 0
BBX 8 11 0 -1
BITMAP
E3
63
63
63
63
7F
3F
1B
03
03
03
ENDCHAR
STARTCHAR cid1117
ENCODING 1096
SWIDTH 740 0
DWIDTH 13 0
BBX 13 12 0 -1
BITMAP
E320
E738
E738
E738
E738
E738
6738
6738
6738
7338
7FF8
7FF8
ENDCHAR
STARTCHAR cid1118
ENCODING 1097
SWIDTH 790 0
DWIDTH 14 0
BBX 14 14 0 -3
BITMAP
E320
E738
E738
E738
E738
E738
E738
E738
E738
F738
7FFC
7FFC
001C
001C
ENDCHAR
STARTCHAR cid1119
ENCODING 1098
SWIDTH 503 0
DWIDTH 9 0
BBX 8 12 1 -1
BITMAP
E0
E0
E0
60
60
7C
7E
63
63
7E
7E
3C
ENDCHAR
STARTCHAR cid1120
ENCODING 1099
SWIDTH 590 0
DWIDTH 11 0
BBX 9 12 1 -1
BITMAP
C180
C180
C180
C180
C180
F980
FD80
CD80
CD80
FD80
F980
7180
ENDCHAR
STARTCHAR cid1121
ENCODING 1100
SWIDTH 485 0
DWIDTH 9 0
BBX 7 12 1 -1
BITMAP
C0
C0
C0
C0
C0
FC
FE
C6
C6
C6
FC
F8
ENDCHAR
STARTCHAR cid1122
ENCODING 1101
SWIDTH 545 0
DWIDTH 10 0
BBX 8 12 1 -1
BITMAP
30
FC
FF
C7
03
1F
1F
03
47
FF
FC
30
ENDCHAR
STARTCHAR cid1123
ENCODING 1102
SWIDTH 679 0
DWIDTH 12 0
BBX 11 11 1 -1
BITMAP
C780
CFC0
DCE0
DCC0
DCC0
FCC0
DCC0
DCC0
DCC0
CFC0
C700
ENDCHAR
STARTCHAR cid1124
ENCODING 1103
SWIDTH 474 0
DWIDTH 9 0
BBX 7 11 1 -1
BITMAP
7E
FE
C6
C6
C6
FE
7E
36
36
E6
E6
ENDCHAR
STARTCHAR cid487
ENCODING 1105
SWIDTH 482 0
DWIDTH 9 0
BBX 7 15 1 -1
BITMAP
EC
EC
EC
00
7C
FE
C6
C6
FE
FE
C0
CE
CE
FC
38
ENDCHAR
STARTCHAR cid633
ENCODING 8195
SWIDTH 296 0
DWIDTH 5 0
BBX 1 1 0 0
BITMAP
00
ENDCHAR
STARTCHAR uni2011
ENCODING 8209
SWIDTH 503 0
DWIDTH 9 0
BBX 7 3 1 3
BITMAP
FE
FE
FE
ENDCHAR
STARTCHAR cid114
ENCODING 8210
SWIDTH 517 0
DWIDTH 9 0
BBX 7 3 1 5
BITMAP
FE
FE
FE
ENDCHAR
STARTCHAR endash
ENCODING 8211
SWIDTH 543 0
DWIDTH 10 0
BBX 9 3 0 3
BITMAP
FF80
7F80
7F80
ENDCHAR
STARTCHAR emdash
ENCODING 8212
SWIDTH 754 0
DWIDTH 14 0
BBX 12 4 1 2
BITMAP
FFF0
FFF0
FFE0
8000
ENDCHAR
STARTCHAR cid661
ENCODING 8213
SWIDTH 755 0
DWIDTH 14 0
BBX 12 2 1 5
BITMAP
FFF0
FFF0
ENDCHAR
STARTCHAR cid666
ENCODING 8214
SWIDTH 470 0
DWIDTH 8 0
BBX 7 16 1 -1
BITMAP
EE
EE
EE
EE
EE
EE
EE
EE
EE
EE
EE
EE
EE
EE
EE
EE
ENDCHAR
STARTCHAR quoteleft
ENCODING 8216
SWIDTH 291 0
DWIDTH 5 0
BBX 3 6 1 9
BITMAP
40
C0
E0
E0
E0
E0
ENDCHAR
STARTCHAR quoteright
ENCODING 8217
SWIDTH 277 0
DWIDTH 5 0
BBX 3 6 1 9
BITMAP
E0
E0
E0
E0
60
40
ENDCHAR
STARTCHAR cid120
ENCODING 8218
SWIDTH 285 0
DWIDTH 5 0
BBX 3 6 1 -4
BITMAP
E0
E0
E0
60
40
40
ENDCHAR
STARTCHAR cid105
ENCODING 8219
SWIDTH 276 0
DWIDTH 5 0
BBX 3 6 1 9
BITMAP
E0
E0
E0
E0
C0
40
ENDCHAR
STARTCHAR cid108
ENCODING 8220
SWIDTH 541 0
DWIDTH 10 0
BBX 8 6 1 9
BITMAP
46
C6
EF
EF
EF
EF
ENDCHAR
STARTCHAR cid122
ENCODING 8221
SWIDTH 527 0
DWIDTH 9 0
BBX 8 6 1 9
BITMAP
EF
EE
EE
EE
66
44
ENDCHAR
STARTCHAR cid121
ENCODING 8222
SWIDTH 541 0
DWIDTH 10 0
BBX 8 6 1 -4
BITMAP
FF
EF
EF
63
66
42
ENDCHAR
STARTCHAR cid776
ENCODING 8224
SWIDTH 520 0
DWIDTH 9 0
BBX 7 17 1 -2
BITMAP
38
38
38
38
FE
FE
FE
38
38
38
38
38
38
38
38
38
38
ENDCHAR
STARTCHAR cid777
ENCODING 8225
SWIDTH 520 0
DWIDTH 9 0
BBX 7 17 1 -2
BITMAP
38
38
38
38
FE
FE
FE
38
38
38
FE
FE
FE
38
38
38
38
ENDCHAR
STARTCHAR cid119
ENCODING 8226
SWIDTH 517 0
DWIDTH 9 0
BBX 3 3 3 5
BITMAP
E0
E0
E0
ENDCHAR
STARTCHAR cid668
ENCODING 8230
SWIDTH 823 0
DWIDTH 15 0
BBX 13 3 1 -1
BITMAP
F778
E778
E778
ENDCHAR
STARTCHAR cid772
ENCODING 8240
SWIDTH 983 0
DWIDTH 18 0
BBX 16 16 1 -1
BITMAP
01C0
0380
6380
F380
9700
9700
FE00
6E00
0C00
1DCE
1BFF
3B7B
3B7B
31CE
7000
6000
ENDCHAR
STARTCHAR cid708
ENCODING 8242
SWIDTH 257 0
DWIDTH 5 0
BBX 4 5 0 11
BITMAP
70
70
70
70
E0
ENDCHAR
STARTCHAR cid709
ENCODING 8243
SWIDTH 629 0
DWIDTH 11 0
BBX 8 5 2 11
BITMAP
FF
EF
EE
EE
EE
ENDCHAR
STARTCHAR cid110
ENCODING 8249
SWIDTH 410 0
DWIDTH 7 0
BBX 5 9 1 0
BITMAP
10
38
F0
E0
C0
E0
70
38
10
ENDCHAR
STARTCHAR cid111
ENCODING 8250
SWIDTH 410 0
DWIDTH 7 0
BBX 6 9 1 0
BITMAP
60
F0
78
3C
1C
38
70
E0
40
ENDCHAR
STARTCHAR cid734
ENCODING 8251
SWIDTH 862 0
DWIDTH 16 0
BBX 14 14 1 0
BITMAP
0300
0300
1320
38F0
3DE0
1FC0
CF9C
CF9C
DFDC
3DE0
78F0
3060
1300
0300
ENDCHAR
STARTCHAR uni203E
ENCODING 8254
SWIDTH 296 0
DWIDTH 5 0
BBX 1 1 0 0
BITMAP
00
ENDCHAR
STARTCHAR cid104
ENCODING 8260
SWIDTH 721 0
DWIDTH 13 0
BBX 9 16 2 -1
BITMAP
0380
0700
0700
0700
0E00
0E00
1C00
1C00
1800
3800
3000
7000
7000
6000
E000
C000
ENDCHAR
STARTCHAR cid8721
ENCODING 8364
SWIDTH 583 0
DWIDTH 11 0
BBX 9 15 1 -1
BITMAP
3E00
3F00
7F80
6380
6380
FB00
FB00
6000
F800
F800
6300
6300
7F00
3E00
1C00
ENDCHAR
STARTCHAR cid1176
ENCODING 8470
SWIDTH 848 0
DWIDTH 15 0
BBX 15 15 0 -1
BITMAP
E300
E300
E300
F300
7338
737C
7BE6
7B66
6B64
6F64
6F7C
6738
6700
677C
677C
ENDCHAR
STARTCHAR cid228
ENCODING 8482
SWIDTH 741 0
DWIDTH 13 0
BBX 11 7 1 7
BITMAP
F660
6760
6760
6760
67A0
66A0
66A0
ENDCHAR
STARTCHAR cid737
ENCODING 8592
SWIDTH 807 0
DWIDTH 15 0
BBX 13 9 1 2
BITMAP
1000
3800
7800
F018
FFF8
FFF8
F000
3C00
1800
ENDCHAR
STARTCHAR cid738
ENCODING 8593
SWIDTH 625 0
DWIDTH 11 0
BBX 9 12 1 1
BITMAP
1C00
3E00
7F00
EF80
CD80
5C00
1C00
1C00
1C00
1C00
1C00
1C00
ENDCHAR
STARTCHAR cid736
ENCODING 8594
SWIDTH 807 0
DWIDTH 15 0
BBX 13 9 1 2
BITMAP
0080
01C0
00F0
F078
FFF8
FFF0
00E0
01C0
0080
ENDCHAR
STARTCHAR cid739
ENCODING 8595
SWIDTH 625 0
DWIDTH 11 0
BBX 9 13 1 0
BITMAP
1C00
1C00
1C00
1C00
1C00
1C00
0C00
0C00
ED80
FF80
7F00
1E00
0C00
ENDCHAR
STARTCHAR cid752
ENCODING 8658
SWIDTH 807 0
DWIDTH 15 0
BBX 13 9 1 2
BITMAP
0080
01C0
00F0
FFF8
0038
FFF0
FFE0
01C0
0080
ENDCHAR
STARTCHAR cid753
ENCODING 8660
SWIDTH 894 0
DWIDTH 16 0
BBX 15 9 1 2
BITMAP
1020
3870
7878
FFFE
C00E
FFFC
7FF8
3C70
1030
ENDCHAR
STARTCHAR cid754
ENCODING 8704
SWIDTH 706 0
DWIDTH 13 0
BBX 11 15 1 -1
BITMAP
E0E0
E0C0
E1C0
7FC0
7FC0
7180
7380
3380
3380
3B00
3F00
1F00
1F00
1E00
1E00
ENDCHAR
STARTCHAR cid759
ENCODING 8706
SWIDTH 566 0
DWIDTH 10 0
BBX 8 15 1 -1
BITMAP
1E
3F
7F
73
03
03
0F
3F
7B
E3
E3
E3
FF
7E
3C
ENDCHAR
STARTCHAR cid755
ENCODING 8707
SWIDTH 469 0
DWIDTH 8 0
BBX 7 15 1 -1
BITMAP
FE
FE
FE
0E
0E
0E
0E
FC
FC
FC
0C
0C
FC
FC
FC
ENDCHAR
STARTCHAR cid760
ENCODING 8711
SWIDTH 840 0
DWIDTH 15 0
BBX 13 14 1 -1
BITMAP
FFF8
7FF8
7FF0
3070
3870
18E0
1CE0
0DC0
0FC0
0780
0780
0700
0200
0200
ENDCHAR
STARTCHAR cid741
ENCODING 8712
SWIDTH 682 0
DWIDTH 12 0
BBX 10 13 1 0
BITMAP
3FC0
7FC0
FFC0
C000
C000
C0C0
FFC0
FFC0
C000
C000
FFC0
FFC0
7FC0
ENDCHAR
STARTCHAR cid742
ENCODING 8715
SWIDTH 682 0
DWIDTH 12 0
BBX 11 13 1 0
BITMAP
FF00
FF80
FFC0
00E0
00E0
E0E0
FFE0
FFE0
00E0
00E0
FFE0
FFC0
FF80
ENDCHAR
STARTCHAR uni2219
ENCODING 8729
SWIDTH 303 0
DWIDTH 5 0
BBX 4 3 1 4
BITMAP
F0
E0
E0
ENDCHAR
STARTCHAR cid765
ENCODING 8730
SWIDTH 901 0
DWIDTH 16 0
BBX 15 17 1 -1
BITMAP
03FE
03FC
03FC
0300
0300
0300
0700
7700
F600
F600
F600
3600
3600
3C00
1C00
1C00
1C00
ENDCHAR
STARTCHAR cid703
ENCODING 8734
SWIDTH 821 0
DWIDTH 15 0
BBX 13 8 1 2
BITMAP
2000
7DF0
FFF8
C718
C718
DFF8
FDF0
7020
ENDCHAR
STARTCHAR cid756
ENCODING 8736
SWIDTH 723 0
DWIDTH 13 0
BBX 10 14 1 -1
BITMAP
01C0
01C0
0380
0780
0700
0E00
1E00
1C00
3800
7800
7000
FFC0
7FC0
7FC0
ENDCHAR
STARTCHAR cid749
ENCODING 8743
SWIDTH 692 0
DWIDTH 12 0
BBX 11 15 1 -1
BITMAP
1E00
1E00
1F00
3F00
3F00
3B00
3380
7380
7380
7380
71C0
E1C0
E1C0
E1E0
E0C0
ENDCHAR
STARTCHAR cid750
ENCODING 8744
SWIDTH 692 0
DWIDTH 12 0
BBX 11 15 1 -1
BITMAP
E0E0
E1C0
E1C0
E1C0
71C0
7180
7380
3380
3B80
3B00
3F00
1F00
1F00
1E00
1E00
ENDCHAR
STARTCHAR cid748
ENCODING 8745
SWIDTH 682 0
DWIDTH 12 0
BBX 11 13 1 0
BITMAP
3F00
7F80
FFC0
C0E0
C0E0
C0E0
C0E0
C0E0
C0E0
E0E0
E0E0
E0E0
E0E0
ENDCHAR
STARTCHAR cid747
ENCODING 8746
SWIDTH 682 0
DWIDTH 12 0
BBX 11 13 1 0
BITMAP
E0E0
E0E0
E0E0
E0E0
E0E0
E0E0
E0E0
E0E0
E0E0
E0E0
FFE0
7FC0
3F80
ENDCHAR
STARTCHAR cid769
ENCODING 8747
SWIDTH 579 0
DWIDTH 10 0
BBX 10 15 0 -1
BITMAP
01C0
07C0
07C0
0E00
0C00
0C00
0C00
0C00
1C00
1C00
1C00
3800
F800
7000
7000
ENDCHAR
STARTCHAR cid770
ENCODING 8748
SWIDTH 913 0
DWIDTH 16 0
BBX 16 15 0 -1
BITMAP
01C7
07CF
07DF
0E3C
0C38
0C30
0C30
0C30
1C30
1C70
1C70
3870
F9E0
71C0
71C0
ENDCHAR
STARTCHAR cid704
ENCODING 8756
SWIDTH 660 0
DWIDTH 12 0
BBX 10 9 1 1
BITMAP
0C00
0C00
0000
0000
0000
0000
0000
C1C0
C1C0
ENDCHAR
STARTCHAR cid768
ENCODING 8757
SWIDTH 660 0
DWIDTH 12 0
BBX 10 9 1 1
BITMAP
C0C0
E0C0
0000
0000
0000
0000
0C00
0C00
0C00
ENDCHAR
STARTCHAR similar
ENCODING 8764
SWIDTH 586 0
DWIDTH 11 0
BBX 9 4 1 11
BITMAP
2000
7300
FF80
4E00
ENDCHAR
STARTCHAR cid1182
ENCODING 8776
SWIDTH 629 0
DWIDTH 11 0
BBX 9 7 1 3
BITMAP
FB00
FF80
6F00
1400
7D80
FF80
6F80
ENDCHAR
STARTCHAR cid762
ENCODING 8786
SWIDTH 688 0
DWIDTH 12 0
BBX 9 13 2 0
BITMAP
C000
C000
0000
FF80
FF00
FF00
0000
FF80
FF80
FF00
C000
0300
0300
ENDCHAR
STARTCHAR cid698
ENCODING 8800
SWIDTH 688 0
DWIDTH 12 0
BBX 9 12 2 0
BITMAP
0700
0600
FF80
FF80
FF80
1800
FF80
FF80
FF80
FF80
6000
E000
ENDCHAR
STARTCHAR cid761
ENCODING 8801
SWIDTH 622 0
DWIDTH 11 0
BBX 9 9 1 2
BITMAP
FF80
FF80
0000
FF80
FF80
FF80
0000
FF80
FF80
ENDCHAR
STARTCHAR cid1180
ENCODING 8804
SWIDTH 536 0
DWIDTH 10 0
BBX 9 10 0 1
BITMAP
0780
7F80
7F00
7C00
3F80
0700
0100
FF80
FF80
0F80
ENDCHAR
STARTCHAR cid1181
ENCODING 8805
SWIDTH 536 0
DWIDTH 10 0
BBX 8 10 1 1
BITMAP
F0
FE
7F
3F
FE
F0
80
FF
FF
F0
ENDCHAR
STARTCHAR cid701
ENCODING 8806
SWIDTH 435 0
DWIDTH 8 0
BBX 6 11 1 1
BITMAP
18
7C
F0
E0
78
1C
00
FC
FC
FC
FC
ENDCHAR
STARTCHAR cid702
ENCODING 8807
SWIDTH 435 0
DWIDTH 8 0
BBX 6 11 1 1
BITMAP
60
F8
3C
1C
78
E0
00
FC
FC
FC
FC
ENDCHAR
STARTCHAR cid763
ENCODING 8810
SWIDTH 649 0
DWIDTH 12 0
BBX 10 10 1 1
BITMAP
1000
3980
7BC0
F780
CE00
CE00
F700
7BC0
39C0
0080
ENDCHAR
STARTCHAR cid764
ENCODING 8811
SWIDTH 649 0
DWIDTH 12 0
BBX 10 9 1 1
BITMAP
C600
E700
7B80
19C0
19C0
7BC0
F780
E700
4200
ENDCHAR
STARTCHAR cid745
ENCODING 8834
SWIDTH 682 0
DWIDTH 12 0
BBX 10 13 1 0
BITMAP
3FC0
7FC0
FFC0
C000
C000
C000
C000
C000
C000
C000
FFC0
7FC0
3FC0
ENDCHAR
STARTCHAR cid746
ENCODING 8835
SWIDTH 682 0
DWIDTH 12 0
BBX 11 13 1 0
BITMAP
FF00
FF80
FFC0
00E0
00E0
00E0
00E0
00E0
00E0
00E0
FFC0
FFC0
FF80
ENDCHAR
STARTCHAR cid743
ENCODING 8838
SWIDTH 682 0
DWIDTH 12 0
BBX 11 13 1 0
BITMAP
3FE0
7FE0
FFE0
E000
E000
C000
FFE0
7FE0
3FE0
0000
0000
FFE0
FFE0
ENDCHAR
STARTCHAR cid744
ENCODING 8839
SWIDTH 682 0
DWIDTH 12 0
BBX 11 13 1 0
BITMAP
FF00
FF80
FFC0
00E0
00E0
00E0
FFC0
FFC0
FF80
0000
0000
FFC0
FFC0
ENDCHAR
STARTCHAR cid757
ENCODING 8869
SWIDTH 585 0
DWIDTH 11 0
BBX 9 15 1 -1
BITMAP
1C00
1C00
1C00
1C00
1C00
1C00
1C00
1C00
1C00
1C00
1C00
1C00
FF80
FF80
FF80
ENDCHAR
STARTCHAR cid758
ENCODING 8978
SWIDTH 796 0
DWIDTH 14 0
BBX 13 4 1 11
BITMAP
3FC0
FFF0
E038
4010
ENDCHAR
STARTCHAR cid729
ENCODING 9632
SWIDTH 771 0
DWIDTH 14 0
BBX 12 12 1 1
BITMAP
FF80
FFF0
FFF0
FFF0
FFF0
FFF0
FFF0
FFF0
FFE0
FFE0
FFE0
FFE0
ENDCHAR
STARTCHAR cid728
ENCODING 9633
SWIDTH 771 0
DWIDTH 14 0
BBX 12 12 1 1
BITMAP
FFF0
FFF0
FFF0
E070
E070
E070
E070
E070
E070
E070
FFF0
FFF0
ENDCHAR
STARTCHAR cid731
ENCODING 9650
SWIDTH 840 0
DWIDTH 15 0
BBX 12 12 2 0
BITMAP
0400
0600
0E00
0F00
1F00
1F80
3F80
3FC0
7FC0
7FE0
FFE0
FFF0
ENDCHAR
STARTCHAR cid730
ENCODING 9651
SWIDTH 840 0
DWIDTH 15 0
BBX 13 13 1 0
BITMAP
0200
0300
0700
0780
0F80
0DC0
1CC0
18E0
38E0
3070
7070
7FF0
FFF8
ENDCHAR
STARTCHAR cid733
ENCODING 9660
SWIDTH 840 0
DWIDTH 15 0
BBX 12 12 1 0
BITMAP
FFF0
7FF0
7FE0
3FE0
3FC0
1FC0
1F80
0F80
0F00
0700
0600
0200
ENDCHAR
STARTCHAR cid732
ENCODING 9661
SWIDTH 840 0
DWIDTH 15 0
BBX 13 14 1 -1
BITMAP
FFF8
7FF8
7FF0
3070
3870
18E0
1CE0
0DC0
0FC0
0780
0780
0700
0200
0200
ENDCHAR
STARTCHAR cid727
ENCODING 9670
SWIDTH 788 0
DWIDTH 14 0
BBX 12 15 1 -1
BITMAP
0200
0700
0F00
1F80
1FC0
3FC0
7FE0
FFF0
FFF0
7FE0
3FC0
1F80
0F00
0700
0600
ENDCHAR
STARTCHAR cid726
ENCODING 9671
SWIDTH 788 0
DWIDTH 14 0
BBX 13 16 1 -1
BITMAP
0200
0600
0700
0F80
1F80
39C0
30E0
7070
E070
E038
7070
38E0
19C0
0F80
0F00
0600
ENDCHAR
STARTCHAR cid723
ENCODING 9675
SWIDTH 875 0
DWIDTH 16 0
BBX 14 15 1 -1
BITMAP
0FC0
3FE0
7FF0
7078
E03C
E01C
E01C
E01C
E01C
E018
7038
7038
3CF0
1FE0
0FC0
ENDCHAR
STARTCHAR cid725
ENCODING 9678
SWIDTH 875 0
DWIDTH 16 0
BBX 14 15 1 -1
BITMAP
0FC0
3FE0
7FF0
7078
E73C
EF9C
ECDC
ECD8
ECD8
EF98
6738
7078
3CF0
1FE0
0FC0
ENDCHAR
STARTCHAR cid724
ENCODING 9679
SWIDTH 875 0
DWIDTH 16 0
BBX 12 13 2 0
BITMAP
3F80
7FC0
7FE0
FFF0
FFF0
FFF0
FFF0
FFF0
FFF0
FFF0
7FE0
3FC0
1F80
ENDCHAR
STARTCHAR cid779
ENCODING 9711
SWIDTH 795 0
DWIDTH 14 0
BBX 12 15 1 -1
BITMAP
0F80
3FC0
7FE0
70F0
E070
E030
C030
E030
E030
E030
E070
7070
3DE0
1FC0
0F80
ENDCHAR
STARTCHAR cid722
ENCODING 9733
SWIDTH 947 0
DWIDTH 17 0
BBX 15 16 1 -1
BITMAP
0100
0180
0380
03C0
07C0
0FC0
FFFE
7FFE
3FFC
1FF8
0FF0
0FF0
1FF0
1FF8
1C78
3008
ENDCHAR
STARTCHAR cid721
ENCODING 9734
SWIDTH 947 0
DWIDTH 17 0
BBX 15 16 1 -1
BITMAP
0100
0180
0380
03C0
07C0
0E60
FE7E
701C
381C
1C38
0C30
1930
1BD0
1FF8
1C38
3008
ENDCHAR
STARTCHAR cid706
ENCODING 9792
SWIDTH 580 0
DWIDTH 10 0
BBX 9 16 1 -1
BITMAP
0C00
7E00
FF00
E780
C380
C300
E700
7E00
3C00
1800
1800
7E00
7E00
1800
1800
1800
ENDCHAR
STARTCHAR cid705
ENCODING 9794
SWIDTH 694 0
DWIDTH 12 0
BBX 11 15 1 -1
BITMAP
03C0
1FC0
1FC0
03C0
0360
0740
3E00
7F00
E300
E180
C180
E380
7F80
7F00
0C00
ENDCHAR
STARTCHAR cid775
ENCODING 9834
SWIDTH 667 0
DWIDTH 12 0
BBX 10 16 1 -1
BITMAP
0400
0E00
1F80
1BC0
18C0
18C0
18C0
1980
1800
1800
1800
F800
F800
F800
F800
2000
ENDCHAR
STARTCHAR cid774
ENCODING 9837
SWIDTH 464 0
DWIDTH 8 0
BBX 8 16 0 -1
BITMAP
E0
E0
E0
E0
60
6E
7E
7B
63
63
62
66
6E
7C
78
40
ENDCHAR
STARTCHAR cid773
ENCODING 9839
SWIDTH 673 0
DWIDTH 12 0
BBX 10 15 1 -1
BITMAP
1B00
3B00
3BC0
3FC0
FFC0
FF80
F300
3300
3780
7F80
FFC0
7E00
3600
3600
3400
ENDCHAR
STARTCHAR uni3000
ENCODING 12288
SWIDTH 446 0
DWIDTH 8 0
BBX 1 1 0 0
BITMAP
00
ENDCHAR
STARTCHAR cid634
ENCODING 12289
SWIDTH 335 0
DWIDTH 6 0
BBX 4 4 1 -1
BITMAP
40
E0
70
20
ENDCHAR
STARTCHAR cid635
ENCODING 12290
SWIDTH 298 0
DWIDTH 5 0
BBX 4 5 1 -1
BITMAP
60
F0
90
F0
60
ENDCHAR
STARTCHAR cid655
ENCODING 12291
SWIDTH 618 0
DWIDTH 11 0
BBX 9 7 1 4
BITMAP
3B80
7B80
7780
F700
EF00
EE00
0200
ENDCHAR
STARTCHAR cid657
ENCODING 12293
SWIDTH 590 0
DWIDTH 11 0
BBX 9 13 1 0
BITMAP
6000
7F00
7F00
E380
E380
C700
0700
0600
2E00
7C00
3E00
0F00
0600
ENDCHAR
STARTCHAR cid658
ENCODING 12294
SWIDTH 716 0
DWIDTH 13 0
BBX 11 14 1 0
BITMAP
0080
00E0
00C0
01C0
01C0
3F80
7F80
7FE0
67E0
EE60
DC00
F800
F000
E000
ENDCHAR
STARTCHAR cid659
ENCODING 12295
SWIDTH 795 0
DWIDTH 14 0
BBX 12 15 1 -1
BITMAP
0F80
3FC0
7FE0
70F0
E070
E030
C030
E030
E030
E030
E070
7070
3DE0
1FC0
0F80
ENDCHAR
STARTCHAR cid682
ENCODING 12296
SWIDTH 662 0
DWIDTH 12 0
BBX 8 16 2 -1
BITMAP
02
07
0F
1E
3C
78
E0
C0
C0
E0
78
3C
1E
0F
07
02
ENDCHAR
STARTCHAR cid683
ENCODING 12297
SWIDTH 672 0
DWIDTH 12 0
BBX 8 16 2 -1
BITMAP
40
E0
F0
78
1C
0E
07
03
03
07
0E
3C
78
F0
E0
40
ENDCHAR
STARTCHAR cid684
ENCODING 12298
SWIDTH 850 0
DWIDTH 15 0
BBX 13 16 1 -1
BITMAP
0630
0F38
0E70
1CE0
39E0
73C0
F780
E700
E700
6300
7380
39C0
1CE0
0E70
0F38
0430
ENDCHAR
STARTCHAR cid685
ENCODING 12299
SWIDTH 846 0
DWIDTH 15 0
BBX 13 16 1 -1
BITMAP
6300
F780
7BC0
39C0
1CE0
0E70
0738
0318
0318
0738
0E70
1CE0
3CE0
79C0
7380
2100
ENDCHAR
STARTCHAR cid686
ENCODING 12300
SWIDTH 472 0
DWIDTH 9 0
BBX 6 17 1 -1
BITMAP
FC
FC
FC
E0
E0
E0
E0
E0
E0
E0
E0
E0
E0
E0
E0
E0
E0
ENDCHAR
STARTCHAR cid687
ENCODING 12301
SWIDTH 471 0
DWIDTH 8 0
BBX 6 17 1 -2
BITMAP
1C
1C
1C
0C
0C
0C
0C
0C
0C
0C
0C
0C
0C
0C
FC
FC
FC
ENDCHAR
STARTCHAR cid688
ENCODING 12302
SWIDTH 472 0
DWIDTH 9 0
BBX 8 18 0 -1
BITMAP
7F
41
41
5F
5F
58
58
58
58
58
58
D8
D8
D8
D8
D8
D8
F8
ENDCHAR
STARTCHAR cid689
ENCODING 12303
SWIDTH 471 0
DWIDTH 8 0
BBX 8 19 0 -3
BITMAP
0F
0F
09
09
09
09
09
09
09
09
09
09
09
09
79
41
43
7F
FF
ENDCHAR
STARTCHAR cid690
ENCODING 12304
SWIDTH 487 0
DWIDTH 9 0
BBX 6 18 1 -2
BITMAP
FC
FC
FC
E0
E0
E0
E0
E0
E0
E0
E0
E0
E0
E0
E0
FC
FC
FC
ENDCHAR
STARTCHAR cid691
ENCODING 12305
SWIDTH 485 0
DWIDTH 9 0
BBX 5 18 2 -2
BITMAP
F8
F8
F8
18
18
18
18
18
18
18
18
18
18
18
18
F8
F8
F8
ENDCHAR
STARTCHAR cid735
ENCODING 12306
SWIDTH 596 0
DWIDTH 11 0
BBX 9 15 1 -1
BITMAP
FF80
FF80
FF80
FC00
0000
FF80
FF80
FF80
3C00
1C00
1C00
1C00
1C00
1C00
1C00
ENDCHAR
STARTCHAR cid740
ENCODING 12307
SWIDTH 688 0
DWIDTH 12 0
BBX 9 8 2 2
BITMAP
FF80
FF80
FF80
0000
FF80
FF80
FF80
C000
ENDCHAR
STARTCHAR cid676
ENCODING 12308
SWIDTH 460 0
DWIDTH 8 0
BBX 5 18 1 -2
BITMAP
10
38
78
F0
E0
E0
E0
E0
E0
E0
E0
E0
E0
E0
F0
78
38
10
ENDCHAR
STARTCHAR cid677
ENCODING 12309
SWIDTH 460 0
DWIDTH 8 0
BBX 5 18 2 -2
BITMAP
40
E0
F8
78
38
38
38
38
38
38
38
38
38
38
78
F0
E0
40
ENDCHAR
STARTCHAR cid665
ENCODING 12316
SWIDTH 822 0
DWIDTH 15 0
BBX 13 6 1 4
BITMAP
1800
3C30
FFF8
F7F8
63E0
0180
ENDCHAR
STARTCHAR cid1174
ENCODING 12317
SWIDTH 576 0
DWIDTH 10 0
BBX 10 6 0 11
BITMAP
1100
F780
7780
7B80
3BC0
1100
ENDCHAR
STARTCHAR cid1175
ENCODING 12319
SWIDTH 590 0
DWIDTH 11 0
BBX 10 5 0 -2
BITMAP
F700
7780
7B80
3BC0
3B80
ENDCHAR
STARTCHAR cid842
ENCODING 12353
SWIDTH 592 0
DWIDTH 11 0
BBX 9 12 1 -1
BITMAP
3000
FF00
FF00
3000
3600
7E00
F780
9D80
D980
FB80
FB00
4800
ENDCHAR
STARTCHAR cid843
ENCODING 12354
SWIDTH 732 0
DWIDTH 13 0
BBX 12 14 0 0
BITMAP
0C00
7FF0
7FF0
7FE0
0C80
1CC0
3FC0
7FE0
EDF0
6F30
6730
6E70
7EF0
3EC0
ENDCHAR
STARTCHAR cid844
ENCODING 12355
SWIDTH 591 0
DWIDTH 11 0
BBX 9 11 1 -1
BITMAP
E000
E380
E380
E380
E380
E300
E300
E300
E300
7000
3000
ENDCHAR
STARTCHAR cid845
ENCODING 12356
SWIDTH 711 0
DWIDTH 13 0
BBX 11 12 1 0
BITMAP
F000
F0E0
F0E0
F0E0
F0E0
F0E0
70C0
70C0
71C0
71C0
7840
3800
ENDCHAR
STARTCHAR cid846
ENCODING 12357
SWIDTH 533 0
DWIDTH 10 0
BBX 8 12 1 -1
BITMAP
7C
7C
00
7C
FE
C7
06
06
06
3C
38
20
ENDCHAR
STARTCHAR cid847
ENCODING 12358
SWIDTH 650 0
DWIDTH 12 0
BBX 10 15 1 -1
BITMAP
7E00
7F00
3E00
0000
3F00
7F80
FF80
61C0
0180
0380
0380
0380
3F00
1E00
1C00
ENDCHAR
STARTCHAR cid848
ENCODING 12359
SWIDTH 550 0
DWIDTH 10 0
BBX 9 12 0 -1
BITMAP
3E00
3E00
0000
7F00
7F00
6600
0C00
1C00
3E00
7580
E780
0780
ENDCHAR
STARTCHAR cid849
ENCODING 12360
SWIDTH 687 0
DWIDTH 12 0
BBX 11 15 1 -1
BITMAP
3E00
3E00
3E00
0300
FF80
FF80
F300
0600
0C00
1E00
3E00
7E20
E7E0
C7E0
0700
ENDCHAR
STARTCHAR cid850
ENCODING 12361
SWIDTH 588 0
DWIDTH 11 0
BBX 10 12 0 -1
BITMAP
1800
5800
7EC0
78C0
18C0
18C0
7F80
7FC0
D8C0
59C0
7980
3080
ENDCHAR
STARTCHAR cid851
ENCODING 12362
SWIDTH 713 0
DWIDTH 13 0
BBX 11 15 1 -1
BITMAP
3800
3840
FFE0
FEE0
FCE0
1860
1800
3F80
7FE0
FFE0
DC60
DC60
DCE0
F9C0
3080
ENDCHAR
STARTCHAR cid852
ENCODING 12363
SWIDTH 715 0
DWIDTH 13 0
BBX 11 16 1 -1
BITMAP
0080
3980
39C0
38E0
3840
3F00
FF80
FFC0
F1C0
71C0
71C0
71C0
71C0
73C0
0780
0300
ENDCHAR
STARTCHAR cid853
ENCODING 12364
SWIDTH 712 0
DWIDTH 13 0
BBX 11 20 1 -1
BITMAP
0360
0360
0360
0060
0080
3980
39C0
38E0
3840
3F00
FF80
FFC0
F1C0
71C0
71C0
71C0
71C0
73C0
0780
0300
ENDCHAR
STARTCHAR cid854
ENCODING 12365
SWIDTH 661 0
DWIDTH 12 0
BBX 10 15 1 -1
BITMAP
0E00
0FC0
FFC0
FFC0
0600
7FC0
7FC0
0300
3F00
7F00
7E00
7000
7F80
3F80
1E00
ENDCHAR
STARTCHAR cid855
ENCODING 12366
SWIDTH 661 0
DWIDTH 12 0
BBX 10 19 1 -1
BITMAP
06C0
06C0
06C0
0000
0E00
0FC0
FFC0
FFC0
0600
7FC0
7FC0
0300
3F00
7F00
7E00
7000
7F80
3F80
1E00
ENDCHAR
STARTCHAR cid856
ENCODING 12367
SWIDTH 582 0
DWIDTH 10 0
BBX 8 14 1 -1
BITMAP
04
0E
0F
1E
3C
78
F0
E0
E0
F8
7C
1F
0F
06
ENDCHAR
STARTCHAR cid857
ENCODING 12368
SWIDTH 659 0
DWIDTH 12 0
BBX 10 18 1 -1
BITMAP
06C0
06C0
06C0
0000
0400
0E00
0F00
1E00
3C00
7800
F000
E000
E000
F800
7C00
1F00
0F00
0600
ENDCHAR
STARTCHAR cid858
ENCODING 12369
SWIDTH 719 0
DWIDTH 13 0
BBX 11 15 1 -1
BITMAP
01C0
01C0
E1C0
E7C0
E7E0
E7E0
E1C0
E1C0
E1C0
E1C0
E180
E180
7380
2700
0100
ENDCHAR
STARTCHAR cid859
ENCODING 12370
SWIDTH 719 0
DWIDTH 13 0
BBX 11 19 1 -1
BITMAP
0360
0360
0360
0000
01C0
01C0
E1C0
E7C0
E7E0
E7E0
E1C0
E1C0
E1C0
E1C0
E180
E180
7380
2700
0100
ENDCHAR
STARTCHAR cid860
ENCODING 12371
SWIDTH 646 0
DWIDTH 12 0
BBX 9 13 1 0
BITMAP
0380
FF80
FF80
F180
0380
0000
0000
0000
0000
6000
7F80
7F80
7F80
ENDCHAR
STARTCHAR cid861
ENCODING 12372
SWIDTH 646 0
DWIDTH 12 0
BBX 10 17 1 0
BITMAP
06C0
06C0
06C0
02C0
0380
FF80
FF80
F180
0380
0000
0000
0000
0000
6000
7F80
7F80
7F80
ENDCHAR
STARTCHAR cid862
ENCODING 12373
SWIDTH 659 0
DWIDTH 12 0
BBX 10 15 1 -1
BITMAP
1E00
0E00
FE00
FFC0
FFC0
0700
0300
3B80
7F80
6F80
6000
6000
FF00
FF00
0700
ENDCHAR
STARTCHAR cid863
ENCODING 12374
SWIDTH 659 0
DWIDTH 12 0
BBX 10 19 1 -1
BITMAP
06C0
06C0
06C0
0000
1E00
0E00
FE00
FFC0
FFC0
0700
0300
3B80
7F80
6F80
6000
6000
FF00
FF00
0700
ENDCHAR
STARTCHAR cid864
ENCODING 12375
SWIDTH 633 0
DWIDTH 11 0
BBX 10 13 1 -1
BITMAP
E000
E000
E000
E000
E000
E000
E000
E000
E1C0
E380
FF80
7F80
3E00
ENDCHAR
STARTCHAR cid865
ENCODING 12376
SWIDTH 633 0
DWIDTH 11 0
BBX 10 15 1 -1
BITMAP
0D80
0D80
ED80
E000
E000
E000
E000
E000
E000
E000
E1C0
E380
FF80
7F80
3E00
ENDCHAR
STARTCHAR cid866
ENCODING 12377
SWIDTH 691 0
DWIDTH 12 0
BBX 10 15 1 -1
BITMAP
0700
FF00
FFC0
FFC0
0700
1F00
3F00
6700
7300
3F00
3F00
0300
2700
3E00
3C00
ENDCHAR
STARTCHAR cid867
ENCODING 12378
SWIDTH 691 0
DWIDTH 12 0
BBX 11 19 1 -1
BITMAP
0360
0360
0360
0000
0700
FF00
FFC0
FFC0
0700
1F00
3F00
6700
7300
3F00
3F00
0300
2700
3E00
3C00
ENDCHAR
STARTCHAR cid868
ENCODING 12379
SWIDTH 735 0
DWIDTH 13 0
BBX 11 15 1 -1
BITMAP
71C0
71C0
71C0
FFE0
FFE0
FFE0
71C0
71C0
7000
7000
7180
31C0
3FC0
1FC0
0800
ENDCHAR
STARTCHAR cid869
ENCODING 12380
SWIDTH 732 0
DWIDTH 13 0
BBX 11 19 1 -1
BITMAP
0360
0360
0360
0000
71C0
71C0
71C0
FFE0
FFE0
FFE0
71C0
71C0
7000
7000
7180
31C0
3FC0
1FC0
0800
ENDCHAR
STARTCHAR cid870
ENCODING 12381
SWIDTH 614 0
DWIDTH 11 0
BBX 9 15 1 -1
BITMAP
0F00
7F00
7F00
7E00
3800
F700
FF00
FF80
0F80
3E00
7800
7000
7000
3F00
1F00
ENDCHAR
STARTCHAR cid871
ENCODING 12382
SWIDTH 666 0
DWIDTH 12 0
BBX 10 19 1 -1
BITMAP
06C0
06C0
06C0
06C0
0F00
7F00
7F00
7E00
3800
F700
FF00
FF80
0F80
3E00
7800
7000
7000
3F00
1F00
ENDCHAR
STARTCHAR cid872
ENCODING 12383
SWIDTH 683 0
DWIDTH 12 0
BBX 10 15 1 -1
BITMAP
7000
7000
7F80
FF80
FF80
7000
7380
77C0
77C0
60C0
6000
6800
EFC0
EFC0
0180
ENDCHAR
STARTCHAR cid873
ENCODING 12384
SWIDTH 683 0
DWIDTH 12 0
BBX 10 17 1 -1
BITMAP
03C0
03C0
73C0
7000
7F80
FF80
FF80
7000
7380
77C0
77C0
60C0
6000
6800
EFC0
EFC0
0180
ENDCHAR
STARTCHAR cid874
ENCODING 12385
SWIDTH 657 0
DWIDTH 12 0
BBX 10 15 1 -1
BITMAP
1800
1C00
FFC0
FFC0
FFC0
3000
7000
7F00
7F80
39C0
01C0
0180
1980
1F80
1F80
ENDCHAR
STARTCHAR cid875
ENCODING 12386
SWIDTH 657 0
DWIDTH 12 0
BBX 10 18 1 -1
BITMAP
06C0
06C0
06C0
1800
1C00
FFC0
FFC0
FFC0
3000
7000
7F00
7F80
39C0
01C0
0180
1980
1F80
1F80
ENDCHAR
STARTCHAR cid876
ENCODING 12387
SWIDTH 528 0
DWIDTH 10 0
BBX 8 10 1 -1
BITMAP
FC
FE
F7
07
07
07
07
3E
3C
30
ENDCHAR
STARTCHAR cid877
ENCODING 12388
SWIDTH 674 0
DWIDTH 12 0
BBX 10 12 1 0
BITMAP
FF00
FFC0
FDC0
01C0
01C0
01C0
01C0
01C0
01C0
3F80
1F00
1C00
ENDCHAR
STARTCHAR cid878
ENCODING 12389
SWIDTH 678 0
DWIDTH 12 0
BBX 10 17 1 0
BITMAP
06C0
06C0
06C0
06C0
0000
FF00
FFC0
FDC0
01C0
01C0
01C0
01C0
01C0
01C0
3F80
1F00
1C00
ENDCHAR
STARTCHAR cid879
ENCODING 12390
SWIDTH 619 0
DWIDTH 11 0
BBX 9 14 1 -1
BITMAP
FF80
FF80
FF80
CF00
1E00
3C00
7800
7000
7000
7000
7800
3F00
1F00
0300
ENDCHAR
STARTCHAR cid880
ENCODING 12391
SWIDTH 619 0
DWIDTH 11 0
BBX 9 18 1 -1
BITMAP
0780
0780
0780
0000
FF80
FF80
FF80
CF00
1E00
3C00
7800
7000
7000
7000
7800
3F00
1F00
0300
ENDCHAR
STARTCHAR cid881
ENCODING 12392
SWIDTH 634 0
DWIDTH 11 0
BBX 9 14 1 -1
BITMAP
3000
7100
7300
3F80
3F00
7E00
F800
E000
E000
E000
E780
7F80
7F80
3800
ENDCHAR
STARTCHAR cid882
ENCODING 12393
SWIDTH 634 0
DWIDTH 11 0
BBX 10 17 1 -1
BITMAP
06C0
06C0
06C0
3000
7100
7300
3F80
3F00
3E00
F800
E000
E000
E000
E380
7F80
7F80
3800
ENDCHAR
STARTCHAR cid883
ENCODING 12394
SWIDTH 755 0
DWIDTH 14 0
BBX 12 15 1 -1
BITMAP
30C0
38E0
FAE0
FE60
FE70
7000
7000
61C0
61C0
6FC0
1FF0
1DE0
1DC0
0F80
0600
ENDCHAR
STARTCHAR cid884
ENCODING 12395
SWIDTH 706 0
DWIDTH 13 0
BBX 11 14 1 -1
BITMAP
E000
E000
EFC0
EFE0
EEC0
E0C0
E000
E000
E000
E000
E440
6FC0
0FC0
0180
ENDCHAR
STARTCHAR cid885
ENCODING 12396
SWIDTH 812 0
DWIDTH 15 0
BBX 13 13 1 0
BITMAP
0180
3180
3380
3FC0
3FE0
7B70
FB30
DF30
DE30
FFF8
FDF8
7F68
6DE0
ENDCHAR
STARTCHAR cid886
ENCODING 12397
SWIDTH 775 0
DWIDTH 14 0
BBX 13 15 1 -1
BITMAP
7000
7000
FC00
F800
FB80
7FC0
7FE0
7CF0
F070
F160
77E0
77F8
76F0
77C0
6380
ENDCHAR
STARTCHAR cid887
ENCODING 12398
SWIDTH 717 0
DWIDTH 13 0
BBX 11 14 1 -1
BITMAP
0E00
0E00
0F80
7FC0
FFE0
CEE0
CEE0
CEE0
ECE0
ECE0
7CE0
39C0
0380
0180
ENDCHAR
STARTCHAR cid888
ENCODING 12399
SWIDTH 748 0
DWIDTH 13 0
BBX 12 14 1 -1
BITMAP
01C0
E0C0
EFC0
EFF0
EFF0
E0C0
E0C0
E0C0
E7F0
E7F0
E6D0
F6C0
67C0
0380
ENDCHAR
STARTCHAR cid889
ENCODING 12400
SWIDTH 748 0
DWIDTH 13 0
BBX 12 18 1 -1
BITMAP
01B0
01B0
01E0
0000
01C0
E0C0
EFC0
EFF0
EFF0
E0C0
E0C0
E0C0
E7F0
E7F0
E6D0
F6C0
67C0
0380
ENDCHAR
STARTCHAR cid890
ENCODING 12401
SWIDTH 748 0
DWIDTH 13 0
BBX 12 20 1 -1
BITMAP
0040
01E0
01E0
01E0
00C0
0000
01C0
E0C0
EFC0
EFF0
EFF0
E0C0
E0C0
E0C0
E7F0
E7F0
E6D0
F6C0
67C0
0380
ENDCHAR
STARTCHAR cid891
ENCODING 12402
SWIDTH 717 0
DWIDTH 13 0
BBX 11 14 1 -1
BITMAP
F000
FC00
FC00
1800
3BE0
33E0
7340
E380
E380
C380
E380
7F80
3F00
3F00
ENDCHAR
STARTCHAR cid892
ENCODING 12403
SWIDTH 717 0
DWIDTH 13 0
BBX 11 17 1 -1
BITMAP
0360
0360
0360
F360
FC00
FC00
1800
3BE0
33E0
7340
E380
E380
C380
E380
7F80
3F00
3F00
ENDCHAR
STARTCHAR cid893
ENCODING 12404
SWIDTH 717 0
DWIDTH 13 0
BBX 11 16 1 -1
BITMAP
01E0
0160
F1E0
FCC0
FC00
1800
3BE0
33E0
7340
E380
E380
C380
E380
7F80
3F00
3F00
ENDCHAR
STARTCHAR cid894
ENCODING 12405
SWIDTH 794 0
DWIDTH 14 0
BBX 12 15 1 -1
BITMAP
3E00
3E00
3F00
0700
1E00
1800
1E00
0F00
E770
E770
E770
E770
FF70
FF70
1800
ENDCHAR
STARTCHAR cid895
ENCODING 12406
SWIDTH 794 0
DWIDTH 14 0
BBX 12 18 1 -1
BITMAP
01B0
01B0
01B0
3E00
3E00
3F00
0700
1E00
1800
1E00
0F00
E770
E770
E770
E770
FF70
FF70
1800
ENDCHAR
STARTCHAR cid896
ENCODING 12407
SWIDTH 794 0
DWIDTH 14 0
BBX 12 17 1 -1
BITMAP
0060
00F0
3EF0
3EF0
3F00
0700
1E00
1800
1E00
0F00
E770
E770
E770
E770
FF70
FF70
1800
ENDCHAR
STARTCHAR cid897
ENCODING 12408
SWIDTH 662 0
DWIDTH 12 0
BBX 9 13 1 0
BITMAP
1000
3C00
3C00
7C00
7E00
EE00
E600
0700
0700
0380
0380
0380
0180
ENDCHAR
STARTCHAR cid898
ENCODING 12409
SWIDTH 662 0
DWIDTH 12 0
BBX 10 17 1 0
BITMAP
06C0
06C0
06C0
06C0
1000
3C00
3C00
7C00
7E00
EE00
E600
0700
0700
0380
0380
0380
0180
ENDCHAR
STARTCHAR cid899
ENCODING 12410
SWIDTH 662 0
DWIDTH 12 0
BBX 10 16 1 0
BITMAP
03C0
03C0
03C0
1180
3C00
3C00
7C00
7E00
EE00
E600
0700
0700
0380
0380
0380
0180
ENDCHAR
STARTCHAR cid900
ENCODING 12411
SWIDTH 784 0
DWIDTH 14 0
BBX 12 15 1 -1
BITMAP
0FF0
EFF0
EDC0
E1C0
EFF0
EFF0
E0C0
E0C0
E0C0
E7F0
EFF0
ECE0
ECC0
0F80
0700
ENDCHAR
STARTCHAR cid901
ENCODING 12412
SWIDTH 784 0
DWIDTH 14 0
BBX 12 19 1 -1
BITMAP
01B0
01B0
01B0
01B0
0FF0
EFF0
EDC0
E1C0
EFF0
EFF0
E0C0
E0C0
E0C0
E7F0
EFF0
ECE0
ECC0
0F80
0700
ENDCHAR
STARTCHAR cid902
ENCODING 12413
SWIDTH 784 0
DWIDTH 14 0
BBX 12 19 1 -1
BITMAP
00F0
00D0
00F0
0060
0FF0
EFF0
EDC0
E1C0
EFF0
EFF0
E0C0
E0C0
E0C0
E7F0
EFF0
ECE0
ECC0
0F80
0700
ENDCHAR
STARTCHAR cid903
ENCODING 12414
SWIDTH 638 0
DWIDTH 11 0
BBX 9 15 1 -1
BITMAP
0E00
0E00
FF80
FF80
0E00
FE00
FF80
FF80
0C00
3F00
FF80
CF80
CC00
FC00
3800
ENDCHAR
STARTCHAR cid904
ENCODING 12415
SWIDTH 750 0
DWIDTH 14 0
BBX 12 14 1 -1
BITMAP
FC00
FC00
FC00
1C00
0CC0
0DC0
2DC0
7FF0
FFE0
CDE0
CDC0
F980
7180
0380
ENDCHAR
STARTCHAR cid905
ENCODING 12416
SWIDTH 803 0
DWIDTH 14 0
BBX 12 15 1 -1
BITMAP
1C00
1C00
7F70
7F70
7C70
1C70
1C70
1C00
7C00
FC40
DC70
DC70
FC70
6FF0
07F0
ENDCHAR
STARTCHAR cid906
ENCODING 12417
SWIDTH 827 0
DWIDTH 15 0
BBX 13 14 1 -1
BITMAP
39C0
3980
3FC0
7FE0
7FF0
FBB8
DF38
DF30
FF30
7E70
7C70
7CE0
0DE0
00C0
ENDCHAR
STARTCHAR cid907
ENCODING 12418
SWIDTH 634 0
DWIDTH 11 0
BBX 9 15 1 -1
BITMAP
3000
3000
FF80
FF80
FC00
3000
FF80
FF80
F000
3000
3180
3380
3F80
1F00
0C00
ENDCHAR
STARTCHAR cid908
ENCODING 12419
SWIDTH 632 0
DWIDTH 11 0
BBX 10 12 1 -1
BITMAP
2600
6600
7F80
FFC0
FEC0
70C0
3380
3380
3000
3000
3000
3800
ENDCHAR
STARTCHAR cid909
ENCODING 12420
SWIDTH 723 0
DWIDTH 13 0
BBX 11 15 1 -1
BITMAP
0300
7300
7300
FFC0
FFE0
FF60
B660
30E0
39E0
39C0
3800
1800
1800
1800
1800
ENDCHAR
STARTCHAR cid910
ENCODING 12421
SWIDTH 632 0
DWIDTH 11 0
BBX 9 12 1 -1
BITMAP
0C00
CC00
FF00
FF80
ED80
ED80
CD80
0D80
3F00
3F00
0800
0800
ENDCHAR
STARTCHAR cid911
ENCODING 12422
SWIDTH 746 0
DWIDTH 13 0
BBX 12 14 1 -1
BITMAP
0700
C600
DFC0
FFE0
F670
F660
E660
E660
0660
3FE0
3FC0
3F80
0E00
0C00
ENDCHAR
STARTCHAR cid912
ENCODING 12423
SWIDTH 547 0
DWIDTH 10 0
BBX 8 12 1 -1
BITMAP
18
18
1F
1F
18
18
78
FF
DF
D8
F8
70
ENDCHAR
STARTCHAR cid913
ENCODING 12424
SWIDTH 644 0
DWIDTH 12 0
BBX 10 14 1 -1
BITMAP
1C00
1C40
0FC0
0FC0
0C00
0C00
0C00
7C00
FFC0
DF80
CD80
CC00
FC00
7800
ENDCHAR
STARTCHAR cid914
ENCODING 12425
SWIDTH 644 0
DWIDTH 12 0
BBX 9 16 1 -1
BITMAP
0200
0700
0780
7380
6100
6000
E000
E000
FF80
7F80
3180
0180
0180
3F80
1F80
1C00
ENDCHAR
STARTCHAR cid915
ENCODING 12426
SWIDTH 625 0
DWIDTH 11 0
BBX 9 14 1 -1
BITMAP
0380
0380
E380
E380
E380
E380
E380
4300
0300
0300
0F00
1E00
3C00
1800
ENDCHAR
STARTCHAR cid916
ENCODING 12427
SWIDTH 620 0
DWIDTH 11 0
BBX 10 14 1 -1
BITMAP
FE00
FF00
1E00
3800
7000
FE00
FF00
E380
61C0
7180
D980
D980
7F00
7E00
ENDCHAR
STARTCHAR cid917
ENCODING 12428
SWIDTH 715 0
DWIDTH 13 0
BBX 11 15 1 -1
BITMAP
7000
6000
F800
F800
F900
77C0
7FC0
7EC0
F9C0
F1C0
F180
7180
71E0
71E0
71E0
ENDCHAR
STARTCHAR cid918
ENCODING 12429
SWIDTH 600 0
DWIDTH 11 0
BBX 9 16 1 -2
BITMAP
7E00
7F00
7F00
0F00
1C00
3A00
7F00
7F80
7B80
0180
0180
6180
F780
FF00
3C00
0800
ENDCHAR
STARTCHAR cid919
ENCODING 12430
SWIDTH 595 0
DWIDTH 11 0
BBX 9 12 1 -1
BITMAP
6000
7000
F000
F600
7F00
7F00
E380
E180
6180
6780
6F00
6400
ENDCHAR
STARTCHAR cid920
ENCODING 12431
SWIDTH 717 0
DWIDTH 13 0
BBX 11 15 1 -1
BITMAP
7000
7000
7800
F800
F900
77C0
7FC0
7EC0
70E0
F0E0
7060
71E0
77E0
7380
7200
ENDCHAR
STARTCHAR cid923
ENCODING 12434
SWIDTH 653 0
DWIDTH 12 0
BBX 10 15 1 -1
BITMAP
0C00
1F00
FF00
FF00
7000
7180
7FC0
3F00
3F00
7F00
E700
E000
FF80
7F80
3C00
ENDCHAR
STARTCHAR cid924
ENCODING 12435
SWIDTH 681 0
DWIDTH 12 0
BBX 10 14 1 -1
BITMAP
3800
3000
7000
7000
7000
7000
6700
6F00
7F00
FF00
FF00
F3C0
E3C0
43C0
ENDCHAR
STARTCHAR cid1177
ENCODING 12436
SWIDTH 666 0
DWIDTH 12 0
BBX 10 19 1 -1
BITMAP
06C0
06C0
06C0
7000
7F00
7E00
0000
3C00
7F00
FF80
E1C0
61C0
0380
0380
0380
0F00
3F00
1E00
1000
ENDCHAR
STARTCHAR cid1178
ENCODING 12437
SWIDTH 551 0
DWIDTH 10 0
BBX 8 12 1 -1
BITMAP
76
77
73
7D
FE
F3
63
67
67
66
6E
04
ENDCHAR
STARTCHAR cid1179
ENCODING 12438
SWIDTH 575 0
DWIDTH 10 0
BBX 9 11 1 0
BITMAP
0700
4700
C700
CF80
CF80
C600
C600
C600
C600
E600
6E00
ENDCHAR
STARTCHAR cid643
ENCODING 12443
SWIDTH 366 0
DWIDTH 7 0
BBX 5 4 2 14
BITMAP
D8
D8
D8
D8
ENDCHAR
STARTCHAR cid644
ENCODING 12444
SWIDTH 311 0
DWIDTH 6 0
BBX 4 4 1 15
BITMAP
F0
90
B0
60
ENDCHAR
STARTCHAR cid653
ENCODING 12445
SWIDTH 410 0
DWIDTH 7 0
BBX 6 12 1 1
BITMAP
40
E0
E0
70
78
3C
1C
1C
78
F0
60
40
ENDCHAR
STARTCHAR cid654
ENCODING 12446
SWIDTH 543 0
DWIDTH 10 0
BBX 8 13 1 1
BITMAP
03
5F
ED
EC
70
78
3C
1C
1C
78
F0
60
40
ENDCHAR
STARTCHAR cid925
ENCODING 12449
SWIDTH 603 0
DWIDTH 11 0
BBX 9 11 1 -1
BITMAP
FF00
FF80
C380
3B00
3F00
3800
3000
3000
7000
6000
6000
ENDCHAR
STARTCHAR cid926
ENCODING 12450
SWIDTH 701 0
DWIDTH 13 0
BBX 11 14 1 -1
BITMAP
FFC0
FFC0
FFE0
01C0
19C0
3B80
3980
3800
3800
3800
3800
7000
E000
2000
ENDCHAR
STARTCHAR cid927
ENCODING 12451
SWIDTH 540 0
DWIDTH 10 0
BBX 8 12 1 -1
BITMAP
04
0F
1E
3C
78
F8
7C
1C
1C
1C
1C
1C
ENDCHAR
STARTCHAR cid928
ENCODING 12452
SWIDTH 630 0
DWIDTH 11 0
BBX 9 15 1 -1
BITMAP
0100
0380
0780
0F00
1E00
3E00
7E00
FE00
6E00
0E00
0E00
0E00
0E00
0E00
0E00
ENDCHAR
STARTCHAR cid929
ENCODING 12453
SWIDTH 571 0
DWIDTH 10 0
BBX 8 11 1 0
BITMAP
18
18
FE
FF
C3
03
03
03
07
1E
1C
ENDCHAR
STARTCHAR cid930
ENCODING 12454
SWIDTH 689 0
DWIDTH 12 0
BBX 10 14 1 0
BITMAP
1C00
1C00
1F00
FF80
FFC0
C0C0
E1C0
01C0
01C0
01C0
0180
0F80
1F00
1E00
ENDCHAR
STARTCHAR cid931
ENCODING 12455
SWIDTH 501 0
DWIDTH 9 0
BBX 7 10 1 -1
BITMAP
FE
FE
38
38
38
38
38
FE
FE
FE
ENDCHAR
STARTCHAR cid932
ENCODING 12456
SWIDTH 585 0
DWIDTH 11 0
BBX 8 13 1 -1
BITMAP
FF
FF
FF
18
18
18
18
18
18
FF
FF
FF
FF
ENDCHAR
STARTCHAR cid933
ENCODING 12457
SWIDTH 555 0
DWIDTH 10 0
BBX 8 12 1 -1
BITMAP
0E
0E
FF
FF
1E
1E
1E
3E
36
76
EE
4E
ENDCHAR
STARTCHAR cid934
ENCODING 12458
SWIDTH 694 0
DWIDTH 12 0
BBX 10 14 1 -1
BITMAP
0700
0700
FFC0
FFC0
8F00
0F00
0F00
1F00
1F00
1B00
3B00
FB00
7300
2300
ENDCHAR
STARTCHAR cid935
ENCODING 12459
SWIDTH 652 0
DWIDTH 12 0
BBX 10 14 1 -1
BITMAP
3800
3800
3F00
FF80
FFC0
F9C0
31C0
31C0
31C0
7180
7180
7380
7380
0380
ENDCHAR
STARTCHAR cid936
ENCODING 12460
SWIDTH 678 0
DWIDTH 12 0
BBX 11 15 1 -1
BITMAP
03E0
3BC0
3BC0
3F00
FF80
FFC0
F9C0
31C0
31C0
31C0
7180
7180
7380
7380
0380
ENDCHAR
STARTCHAR cid937
ENCODING 12461
SWIDTH 651 0
DWIDTH 12 0
BBX 9 15 1 -1
BITMAP
0800
3C00
3F80
FF80
FF80
9C00
1F80
FF80
FF00
9C00
0C00
0C00
0E00
0E00
0E00
ENDCHAR
STARTCHAR cid938
ENCODING 12462
SWIDTH 690 0
DWIDTH 12 0
BBX 11 17 1 -1
BITMAP
0360
0360
0B60
3C60
3F80
FF80
FF80
9C00
1F80
FF80
FF00
9C00
0C00
0C00
0E00
0E00
0E00
ENDCHAR
STARTCHAR cid939
ENCODING 12463
SWIDTH 652 0
DWIDTH 12 0
BBX 10 13 1 0
BITMAP
7F00
7F80
7FC0
E380
E380
2380
0700
0700
0700
0E00
1E00
3C00
3C00
ENDCHAR
STARTCHAR cid940
ENCODING 12464
SWIDTH 652 0
DWIDTH 12 0
BBX 10 17 1 0
BITMAP
06C0
06C0
06C0
0000
7F00
7F80
7FC0
E380
E380
2380
0700
0700
0700
0E00
1E00
3C00
3C00
ENDCHAR
STARTCHAR cid941
ENCODING 12465
SWIDTH 644 0
DWIDTH 12 0
BBX 10 15 1 -1
BITMAP
7000
7000
7FC0
7FC0
FFC0
E300
E300
0700
0700
0700
0700
0F00
3E00
3C00
1000
ENDCHAR
STARTCHAR cid942
ENCODING 12466
SWIDTH 644 0
DWIDTH 12 0
BBX 10 17 1 -1
BITMAP
06C0
06C0
76C0
7000
7FC0
7FC0
FFC0
E300
E300
0700
0700
0700
0700
0F00
3E00
3C00
1000
ENDCHAR
STARTCHAR cid943
ENCODING 12467
SWIDTH 631 0
DWIDTH 11 0
BBX 9 12 1 0
BITMAP
FF00
FF80
FF80
0380
0380
0380
0180
0180
0180
FF80
FF80
FF00
ENDCHAR
STARTCHAR cid944
ENCODING 12468
SWIDTH 631 0
DWIDTH 11 0
BBX 10 16 1 0
BITMAP
06C0
06C0
0780
0000
FF00
FF80
FF80
0380
0380
0380
0180
0180
0180
FF80
FF80
FF00
ENDCHAR
STARTCHAR cid945
ENCODING 12469
SWIDTH 728 0
DWIDTH 13 0
BBX 11 15 1 -1
BITMAP
71C0
71C0
73C0
FFE0
FFE0
3180
3180
3380
0380
0380
0300
0700
0F00
0E00
0400
ENDCHAR
STARTCHAR cid946
ENCODING 12470
SWIDTH 728 0
DWIDTH 13 0
BBX 11 19 1 -1
BITMAP
01E0
01E0
01E0
0000
71C0
71C0
73C0
FFE0
FFE0
3180
3180
3380
0380
0380
0300
0700
0F00
0E00
0400
ENDCHAR
STARTCHAR cid947
ENCODING 12471
SWIDTH 708 0
DWIDTH 13 0
BBX 11 14 1 -1
BITMAP
60C0
F8E0
7DC0
49C0
F1C0
F980
3B80
0380
0380
0700
7F00
FF00
7800
4000
ENDCHAR
STARTCHAR cid948
ENCODING 12472
SWIDTH 708 0
DWIDTH 13 0
BBX 11 18 1 -1
BITMAP
0360
0360
0360
0000
60C0
F8E0
7DC0
49C0
F1C0
F980
3B80
0380
0380
0700
7F00
FF00
7800
4000
ENDCHAR
STARTCHAR cid949
ENCODING 12473
SWIDTH 723 0
DWIDTH 13 0
BBX 10 14 1 -1
BITMAP
FE00
FF00
FF80
0780
0700
0700
0700
0E00
0E00
1F00
3F80
7BC0
F1C0
6080
ENDCHAR
STARTCHAR cid950
ENCODING 12474
SWIDTH 723 0
DWIDTH 13 0
BBX 11 18 1 -1
BITMAP
0360
0360
0360
0000
FE00
FF00
FF80
0780
0700
0700
0700
0E00
0E00
1F00
3F80
7BC0
F1C0
6080
ENDCHAR
STARTCHAR cid951
ENCODING 12475
SWIDTH 665 0
DWIDTH 12 0
BBX 11 14 0 0
BITMAP
3C00
3800
3800
3F80
FFC0
7EC0
39C0
39C0
3800
3800
3800
31E0
3FE0
1FE0
ENDCHAR
STARTCHAR cid952
ENCODING 12476
SWIDTH 665 0
DWIDTH 12 0
BBX 11 15 0 0
BITMAP
01E0
3DE0
3B60
3800
3F80
FFC0
7EC0
39C0
39C0
3800
3800
3800
31E0
3FE0
1FE0
ENDCHAR
STARTCHAR cid953
ENCODING 12477
SWIDTH 678 0
DWIDTH 12 0
BBX 10 14 1 -1
BITMAP
61C0
E1C0
71C0
71C0
7380
7380
0380
0380
0380
0700
0F00
1E00
3C00
1800
ENDCHAR
STARTCHAR cid954
ENCODING 12478
SWIDTH 678 0
DWIDTH 12 0
BBX 10 18 1 -1
BITMAP
03C0
03C0
03C0
0000
61C0
E1C0
71C0
71C0
7380
7380
0380
0380
0380
0700
0F00
1E00
3C00
1800
ENDCHAR
STARTCHAR cid955
ENCODING 12479
SWIDTH 683 0
DWIDTH 12 0
BBX 10 14 1 -1
BITMAP
3F00
3F80
77C0
71C0
FD80
FF80
E780
0300
0300
0700
0E00
3E00
1C00
1000
ENDCHAR
STARTCHAR cid956
ENCODING 12480
SWIDTH 683 0
DWIDTH 12 0
BBX 10 18 1 -1
BITMAP
03C0
03C0
03C0
0000
3F00
3F80
77C0
71C0
FD80
FF80
E780
0300
0300
0700
0E00
3E00
1C00
1000
ENDCHAR
STARTCHAR cid957
ENCODING 12481
SWIDTH 614 0
DWIDTH 11 0
BBX 9 15 1 -1
BITMAP
0600
7F00
7F00
7C00
1C00
FF80
FF80
FF80
1C00
1C00
1C00
1C00
3C00
7800
1000
ENDCHAR
STARTCHAR cid958
ENCODING 12482
SWIDTH 614 0
DWIDTH 11 0
BBX 9 19 1 -1
BITMAP
0D80
0D80
0D80
0000
0600
3E00
7F00
7C00
1C00
FF80
FF80
1F80
1C00
1C00
1C00
1C00
3800
7800
1000
ENDCHAR
STARTCHAR cid959
ENCODING 12483
SWIDTH 625 0
DWIDTH 11 0
BBX 9 11 1 -1
BITMAP
0100
D980
DB80
DB80
0300
0700
0700
0600
0E00
1C00
0800
ENDCHAR
STARTCHAR cid960
ENCODING 12484
SWIDTH 748 0
DWIDTH 13 0
BBX 11 13 1 -1
BITMAP
00E0
FCE0
ECE0
EDE0
6DC0
01C0
01C0
0380
0380
0780
0F00
1E00
0C00
ENDCHAR
STARTCHAR cid961
ENCODING 12485
SWIDTH 748 0
DWIDTH 13 0
BBX 11 17 1 -1
BITMAP
01E0
01E0
01E0
0000
00E0
FCE0
ECE0
EDE0
6DC0
01C0
01C0
0380
0380
0780
0F00
1E00
0C00
ENDCHAR
STARTCHAR cid962
ENCODING 12486
SWIDTH 696 0
DWIDTH 13 0
BBX 10 14 1 -1
BITMAP
3F00
3F00
0000
0FC0
FFC0
FFC0
0700
0700
0700
0700
0F00
7E00
7C00
7000
ENDCHAR
STARTCHAR cid963
ENCODING 12487
SWIDTH 696 0
DWIDTH 13 0
BBX 11 18 1 -1
BITMAP
0360
0360
0360
0000
3F00
3F00
0000
0FC0
FFC0
FFC0
0700
0700
0700
0700
0F00
7E00
7C00
7000
ENDCHAR
STARTCHAR cid964
ENCODING 12488
SWIDTH 625 0
DWIDTH 11 0
BBX 9 14 1 -1
BITMAP
F000
F000
F000
F000
F000
FE00
FF80
F700
E000
6000
6000
6000
6000
6000
ENDCHAR
STARTCHAR cid965
ENCODING 12489
SWIDTH 625 0
DWIDTH 11 0
BBX 9 16 1 -1
BITMAP
0F80
0D80
FD80
F000
F000
F000
F000
FE00
FF80
F700
E000
6000
6000
6000
6000
6000
ENDCHAR
STARTCHAR cid966
ENCODING 12490
SWIDTH 670 0
DWIDTH 12 0
BBX 10 15 1 -1
BITMAP
0F00
0F00
0700
FFC0
FFC0
FFC0
0700
0700
0700
0700
0600
0E00
3E00
3C00
1800
ENDCHAR
STARTCHAR cid967
ENCODING 12491
SWIDTH 610 0
DWIDTH 11 0
BBX 9 11 1 1
BITMAP
7E00
7E00
7E00
0000
0000
0000
0000
0000
FF80
FF80
FF80
ENDCHAR
STARTCHAR cid968
ENCODING 12492
SWIDTH 653 0
DWIDTH 12 0
BBX 10 14 1 -1
BITMAP
FF00
FF80
C1C0
0380
0380
2380
7700
3F00
1E00
0F00
1F80
7B00
F000
2000
ENDCHAR
STARTCHAR cid969
ENCODING 12493
SWIDTH 657 0
DWIDTH 12 0
BBX 10 15 1 -1
BITMAP
1C00
1C00
1C00
FF80
FF80
F380
0700
0E00
0E00
FF80
FFC0
EC80
0C00
0C00
1C00
ENDCHAR
STARTCHAR cid970
ENCODING 12494
SWIDTH 653 0
DWIDTH 12 0
BBX 9 14 1 -1
BITMAP
0300
0380
0380
0780
0780
0700
0700
0700
0E00
0E00
1C00
7800
F800
3000
ENDCHAR
STARTCHAR cid971
ENCODING 12495
SWIDTH 676 0
DWIDTH 12 0
BBX 10 14 1 -1
BITMAP
3000
3000
3000
7300
7380
7380
7380
7380
7380
E1C0
E1C0
E1C0
E1C0
0100
ENDCHAR
STARTCHAR cid972
ENCODING 12496
SWIDTH 676 0
DWIDTH 12 0
BBX 10 17 1 -1
BITMAP
06C0
06C0
06C0
3000
3000
3000
7300
7380
7380
7380
7380
7380
E1C0
E1C0
E1C0
E1C0
0100
ENDCHAR
STARTCHAR cid973
ENCODING 12497
SWIDTH 676 0
DWIDTH 12 0
BBX 10 17 1 -1
BITMAP
03C0
03C0
03C0
3180
3000
3000
7300
7380
7380
7380
7380
7380
E1C0
E1C0
E1C0
E1C0
0100
ENDCHAR
STARTCHAR cid974
ENCODING 12498
SWIDTH 647 0
DWIDTH 12 0
BBX 9 14 1 -1
BITMAP
F000
F000
F000
E000
FF80
FF80
E000
E000
E000
E000
E000
FF80
7F80
3F80
ENDCHAR
STARTCHAR cid975
ENCODING 12499
SWIDTH 647 0
DWIDTH 12 0
BBX 9 15 1 -1
BITMAP
0780
F780
F780
F000
E000
FF80
FF80
E000
E000
E000
E000
E000
FF80
7F80
3F80
ENDCHAR
STARTCHAR cid976
ENCODING 12500
SWIDTH 647 0
DWIDTH 12 0
BBX 10 16 1 -1
BITMAP
0380
07C0
F6C0
F380
F000
E000
FF80
FF80
E000
E000
E000
E000
E000
FF80
7F80
3F80
ENDCHAR
STARTCHAR cid977
ENCODING 12501
SWIDTH 661 0
DWIDTH 12 0
BBX 10 14 1 -1
BITMAP
FE00
FF00
FF80
E1C0
01C0
0380
0380
0380
0300
0700
1F00
7E00
3800
2000
ENDCHAR
STARTCHAR cid978
ENCODING 12502
SWIDTH 661 0
DWIDTH 12 0
BBX 10 18 1 -1
BITMAP
06C0
06C0
06C0
0000
FE00
FF00
FF80
E1C0
01C0
0380
0380
0380
0300
0700
1F00
7E00
3800
2000
ENDCHAR
STARTCHAR cid979
ENCODING 12503
SWIDTH 661 0
DWIDTH 12 0
BBX 10 19 1 -1
BITMAP
0180
03C0
03C0
03C0
0180
FE00
FF00
FF80
E1C0
01C0
0380
0380
0380
0300
0700
1F00
7E00
3800
2000
ENDCHAR
STARTCHAR cid980
ENCODING 12504
SWIDTH 654 0
DWIDTH 12 0
BBX 9 12 1 0
BITMAP
3800
3C00
7C00
7C00
EE00
E600
0700
0700
0380
0380
0380
0180
ENDCHAR
STARTCHAR cid981
ENCODING 12505
SWIDTH 654 0
DWIDTH 12 0
BBX 10 16 1 0
BITMAP
06C0
06C0
06C0
0000
3800
3C00
7C00
7C00
EE00
E600
0700
0700
0380
0380
0380
0180
ENDCHAR
STARTCHAR cid982
ENCODING 12506
SWIDTH 654 0
DWIDTH 12 0
BBX 10 16 1 0
BITMAP
0380
03C0
02C0
0380
3800
3C00
7C00
7C00
EE00
E600
0700
0700
0380
0380
0380
0180
ENDCHAR
STARTCHAR cid983
ENCODING 12507
SWIDTH 700 0
DWIDTH 13 0
BBX 11 15 1 -1
BITMAP
0E00
0E00
7FC0
7FC0
7FC0
0E00
6FC0
6FC0
6EC0
EEC0
EEE0
EEE0
CEE0
0E80
0E00
ENDCHAR
STARTCHAR cid984
ENCODING 12508
SWIDTH 700 0
DWIDTH 13 0
BBX 11 19 1 -1
BITMAP
0360
0360
0360
0000
0E00
0E00
7FC0
7FC0
7FC0
0E00
6FC0
6FC0
6EC0
EEC0
EEE0
EEE0
CEE0
0E80
0E00
ENDCHAR
STARTCHAR cid985
ENCODING 12509
SWIDTH 700 0
DWIDTH 13 0
BBX 11 19 1 -1
BITMAP
00C0
01E0
0160
01E0
0E00
0E00
7FC0
7FC0
7FC0
0E00
6FC0
6FC0
6EC0
EEC0
EEE0
EEE0
CEE0
0E80
0E00
ENDCHAR
STARTCHAR cid986
ENCODING 12510
SWIDTH 657 0
DWIDTH 12 0
BBX 10 13 1 -1
BITMAP
FF80
FF80
F9C0
0380
0780
0700
0E00
6E00
7C00
7C00
1F00
0E00
0400
ENDCHAR
STARTCHAR cid987
ENCODING 12511
SWIDTH 652 0
DWIDTH 12 0
BBX 9 14 1 -1
BITMAP
4000
7E00
FF80
3F80
0380
2000
3F00
7F00
0F00
0000
F800
FF80
3F80
0380
ENDCHAR
STARTCHAR cid988
ENCODING 12512
SWIDTH 675 0
DWIDTH 12 0
BBX 11 13 1 0
BITMAP
0800
0E00
1C00
1C00
3800
3800
7800
7000
7380
E380
FFC0
FFC0
79E0
ENDCHAR
STARTCHAR cid989
ENCODING 12513
SWIDTH 653 0
DWIDTH 12 0
BBX 9 15 1 -1
BITMAP
0200
0380
0780
0700
2700
7F00
3E00
1F00
0F80
1F80
1C80
3C00
7800
F000
6000
ENDCHAR
STARTCHAR cid990
ENCODING 12514
SWIDTH 636 0
DWIDTH 11 0
BBX 9 14 1 -1
BITMAP
7F00
7F00
3800
3800
FF80
FF80
FF80
3800
3800
3800
3800
3F80
1F80
0F80
ENDCHAR
STARTCHAR cid991
ENCODING 12515
SWIDTH 576 0
DWIDTH 10 0
BBX 9 12 1 -1
BITMAP
6000
6000
7F00
FF00
FB80
7700
7600
3000
3000
3000
3000
3800
ENDCHAR
STARTCHAR cid992
ENCODING 12516
SWIDTH 690 0
DWIDTH 12 0
BBX 10 15 1 -1
BITMAP
7000
7000
3180
FFC0
FFC0
FDC0
F1C0
3380
3900
3800
3800
3800
1800
1800
1800
ENDCHAR
STARTCHAR cid993
ENCODING 12517
SWIDTH 584 0
DWIDTH 11 0
BBX 8 10 1 0
BITMAP
78
7C
7E
0E
0E
0E
0E
FC
FF
FF
ENDCHAR
STARTCHAR cid994
ENCODING 12518
SWIDTH 672 0
DWIDTH 12 0
BBX 10 12 1 0
BITMAP
7E00
7F00
7F00
0700
0700
0700
0700
0700
0700
FFC0
FFC0
FFC0
ENDCHAR
STARTCHAR cid995
ENCODING 12519
SWIDTH 543 0
DWIDTH 10 0
BBX 8 11 1 -1
BITMAP
FC
FE
FF
07
FF
FF
FF
06
FE
FE
FC
ENDCHAR
STARTCHAR cid996
ENCODING 12520
SWIDTH 657 0
DWIDTH 12 0
BBX 10 13 1 0
BITMAP
FE00
FF80
FFC0
01C0
01C0
01C0
FFC0
7FC0
7F80
0180
0180
7F80
7F00
ENDCHAR
STARTCHAR cid997
ENCODING 12521
SWIDTH 657 0
DWIDTH 12 0
BBX 10 15 1 -1
BITMAP
7F00
7F00
7F00
0000
FF00
FF80
FFC0
01C0
0180
0380
0300
0F00
3E00
3E00
3000
ENDCHAR
STARTCHAR cid998
ENCODING 12522
SWIDTH 631 0
DWIDTH 11 0
BBX 9 14 1 -1
BITMAP
3380
F380
E380
E380
E380
6380
6380
0380
0380
0300
0300
7F00
7E00
3000
ENDCHAR
STARTCHAR cid999
ENCODING 12523
SWIDTH 793 0
DWIDTH 14 0
BBX 12 13 1 0
BITMAP
0380
0380
0380
3B80
3B80
3B80
3B80
3B80
3B80
3BA0
73F0
F3F0
61C0
ENDCHAR
STARTCHAR cid1000
ENCODING 12524
SWIDTH 628 0
DWIDTH 11 0
BBX 10 14 1 -1
BITMAP
E000
E000
E000
E000
E000
E000
E000
E100
E3C0
E380
EF80
FF00
7E00
3000
ENDCHAR
STARTCHAR cid1001
ENCODING 12525
SWIDTH 670 0
DWIDTH 12 0
BBX 10 13 1 0
BITMAP
3800
7F00
FF80
FFC0
E1C0
E1C0
E1C0
E1C0
E1C0
E180
FF80
7F80
3F00
ENDCHAR
STARTCHAR cid1002
ENCODING 12526
SWIDTH 612 0
DWIDTH 11 0
BBX 9 11 1 0
BITMAP
7E00
FF00
FF80
C380
C380
0380
0300
0300
0700
1F00
1C00
ENDCHAR
STARTCHAR cid1003
ENCODING 12527
SWIDTH 720 0
DWIDTH 13 0
BBX 11 13 1 0
BITMAP
7F80
FFC0
FFE0
E0E0
E0E0
C0C0
01C0
01C0
01C0
03C0
0780
0F00
0E00
ENDCHAR
STARTCHAR cid1006
ENCODING 12530
SWIDTH 653 0
DWIDTH 12 0
BBX 10 14 1 -1
BITMAP
FF00
FF80
01C0
0180
FF80
FF80
FF80
0300
0700
0700
0F00
3E00
7C00
3000
ENDCHAR
STARTCHAR cid1007
ENCODING 12531
SWIDTH 673 0
DWIDTH 12 0
BBX 10 13 1 0
BITMAP
00C0
01C0
F1C0
F9C0
F9C0
01C0
01C0
0180
0380
0380
7F80
7F00
7E00
ENDCHAR
STARTCHAR cid1008
ENCODING 12532
SWIDTH 689 0
DWIDTH 12 0
BBX 11 18 1 0
BITMAP
0360
0360
0360
0000
1C00
1C00
1F00
FF80
FFC0
C0C0
E1C0
01C0
01C0
01C0
0180
0F80
1F00
1E00
ENDCHAR
STARTCHAR cid1009
ENCODING 12533
SWIDTH 539 0
DWIDTH 10 0
BBX 8 12 1 -1
BITMAP
30
30
70
FE
FF
F3
73
67
67
67
67
67
ENDCHAR
STARTCHAR cid1010
ENCODING 12534
SWIDTH 533 0
DWIDTH 10 0
BBX 8 13 1 -1
BITMAP
40
60
E7
FF
FF
CE
CE
0C
0C
0C
3C
38
20
ENDCHAR
STARTCHAR cid638
ENCODING 12539
SWIDTH 303 0
DWIDTH 5 0
BBX 4 3 1 4
BITMAP
F0
E0
E0
ENDCHAR
STARTCHAR cid660
ENCODING 12540
SWIDTH 484 0
DWIDTH 9 0
BBX 7 3 1 5
BITMAP
FE
FE
FE
ENDCHAR
STARTCHAR cid651
ENCODING 12541
SWIDTH 439 0
DWIDTH 8 0
BBX 6 9 1 3
BITMAP
40
C0
E0
70
70
38
38
1C
1C
ENDCHAR
STARTCHAR cid652
ENCODING 12542
SWIDTH 573 0
DWIDTH 10 0
BBX 9 9 1 3
BITMAP
4000
C700
ED80
7500
7000
3800
3800
1C00
1C00
ENDCHAR
STARTCHAR cid656
ENCODING 20189
SWIDTH 657 0
DWIDTH 12 0
BBX 10 16 1 -1
BITMAP
0C00
1E00
3F00
F380
E1C0
4080
0000
FF80
FF80
0C00
0C00
0C00
0C00
FFC0
FFC0
FFC0
ENDCHAR
STARTCHAR uniE000
ENCODING 57344
SWIDTH 984 0
DWIDTH 18 0
BBX 16 14 1 0
BITMAP
FFFF
FFFF
FFFF
E387
E387
FFFF
FFFF
FFFF
E000
E000
E000
FF80
FF80
FF80
ENDCHAR
STARTCHAR uniE001
ENCODING 57345
SWIDTH 709 0
DWIDTH 13 0
BBX 11 14 1 0
BITMAP
FFE0
FFE0
FFE0
E0E0
E0E0
E0E0
E0E0
E0E0
E0E0
E0E0
E0E0
FFE0
FFE0
FFE0
ENDCHAR
STARTCHAR uniE002
ENCODING 57346
SWIDTH 827 0
DWIDTH 15 0
BBX 13 14 1 0
BITMAP
FFF8
FFF8
FFF8
E738
E738
E738
E738
E738
E738
E738
E738
E738
E738
E738
ENDCHAR
STARTCHAR uniE003
ENCODING 57347
SWIDTH 766 0
DWIDTH 14 0
BBX 12 14 1 0
BITMAP
1FF0
1FF0
1FF0
1C00
1C00
FC00
FC00
FC00
1C00
1C00
1C00
1FF0
1FF0
1FF0
ENDCHAR
STARTCHAR uniE004
ENCODING 57348
SWIDTH 715 0
DWIDTH 13 0
BBX 11 14 1 0
BITMAP
FFE0
FFE0
FFE0
E0E0
E0E0
E0E0
E0E0
E0E0
E0E0
E0E0
E0E0
E0E0
E0E0
E0E0
ENDCHAR
STARTCHAR uniE005
ENCODING 57349
SWIDTH 836 0
DWIDTH 15 0
BBX 13 14 1 0
BITMAP
0380
0380
0380
0380
0380
0380
FFF8
FFF8
FFF8
0380
0380
FF80
FF80
FF80
ENDCHAR
STARTCHAR uniE006
ENCODING 57350
SWIDTH 492 0
DWIDTH 9 0
BBX 7 14 1 0
BITMAP
FE
FE
FE
00
00
00
FE
FE
00
00
00
FE
FE
FE
ENDCHAR
STARTCHAR uniE007
ENCODING 57351
SWIDTH 852 0
DWIDTH 15 0
BBX 13 14 1 0
BITMAP
FFF8
FFF8
FFF8
0700
0700
0700
0700
0700
0700
0700
0700
FFF8
FFF8
FFF8
ENDCHAR
STARTCHAR uniE008
ENCODING 57352
SWIDTH 807 0
DWIDTH 15 0
BBX 13 14 1 0
BITMAP
FF80
FF80
FF80
0380
0380
0380
0380
E380
E380
E380
0380
E3F8
E3F8
E3F8
ENDCHAR
STARTCHAR uniE009
ENCODING 57353
SWIDTH 836 0
DWIDTH 15 0
BBX 13 14 1 0
BITMAP
FFF8
FFF8
FFF8
0380
0380
0380
FFF8
FFF8
FFF8
0380
0380
FF80
FF80
FF80
ENDCHAR
STARTCHAR uniE00A
ENCODING 57354
SWIDTH 740 0
DWIDTH 13 0
BBX 11 14 1 0
BITMAP
FFE0
FFE0
FFE0
1CE0
1CE0
1CE0
1CE0
1CE0
1CE0
1CE0
1CE0
FFE0
FFE0
FFE0
ENDCHAR
STARTCHAR uniE00B
ENCODING 57355
SWIDTH 643 0
DWIDTH 12 0
BBX 10 14 1 0
BITMAP
FFC0
FFC0
FFC0
1C00
1C00
1C00
1C00
1C00
1C00
1C00
1C00
1C00
1C00
1C00
ENDCHAR
STARTCHAR uniE00C
ENCODING 57356
SWIDTH 833 0
DWIDTH 15 0
BBX 13 14 1 0
BITMAP
0E38
0E38
0E38
0E38
0E38
FFF8
FFF8
0E00
0E00
0E00
0E00
FE00
FE00
FE00
ENDCHAR
STARTCHAR uniE00D
ENCODING 57357
SWIDTH 735 0
DWIDTH 13 0
BBX 11 14 1 0
BITMAP
E0E0
E0E0
E0E0
E0E0
E0E0
E0E0
E0E0
E0E0
E0E0
E0E0
E0E0
FFE0
FFE0
FFE0
ENDCHAR
STARTCHAR uniE00E
ENCODING 57358
SWIDTH 888 0
DWIDTH 16 0
BBX 14 14 1 0
BITMAP
FF00
FF00
FF00
0F00
0F00
FF00
FFFC
FFFC
0FFC
0F1C
0F1C
0FFC
0FFC
0FFC
ENDCHAR
STARTCHAR uniE00F
ENCODING 57359
SWIDTH 280 0
DWIDTH 5 0
BBX 3 14 1 0
BITMAP
E0
E0
E0
E0
E0
E0
E0
E0
E0
E0
E0
E0
E0
E0
ENDCHAR
STARTCHAR uniE010
ENCODING 57360
SWIDTH 906 0
DWIDTH 16 0
BBX 14 14 1 0
BITMAP
FFC0
FFC0
FFC0
E3C0
E3C0
FFC0
FFFC
FFFC
03FC
03C0
03C0
03FC
03FC
03FC
ENDCHAR
STARTCHAR uniE011
ENCODING 57361
SWIDTH 735 0
DWIDTH 13 0
BBX 11 14 1 0
BITMAP
E0E0
E0E0
E0E0
E0E0
E0E0
E0E0
FFE0
FFE0
FFE0
E0E0
E0E0
FFE0
FFE0
FFE0
ENDCHAR
STARTCHAR uniE012
ENCODING 57362
SWIDTH 889 0
DWIDTH 16 0
BBX 14 14 1 0
BITMAP
FFFC
FFFC
FFFC
071C
071C
0700
0700
E700
E700
E700
E700
FF00
FF00
FF00
ENDCHAR
STARTCHAR uniE013
ENCODING 57363
SWIDTH 666 0
DWIDTH 12 0
BBX 10 14 1 0
BITMAP
FFC0
FFC0
FFC0
E1C0
E1C0
FFC0
FFC0
FFC0
01C0
01C0
01C0
07C0
07C0
07C0
ENDCHAR
STARTCHAR uniE014
ENCODING 57364
SWIDTH 883 0
DWIDTH 16 0
BBX 14 14 1 0
BITMAP
0700
0700
0700
0700
FFFC
FFFC
FFFC
071C
071C
071C
071C
071C
071C
071C
ENDCHAR
STARTCHAR cid608
ENCODING 57442
SWIDTH 1408 0
DWIDTH 25 0
BBX 24 14 1 -1
BITMAP
200004
70001C
787C1E
10FE18
01FF00
03C700
E3878F
E3838F
03C380
01FB80
11FB98
787B9E
70001C
200004
ENDCHAR
STARTCHAR cid609
ENCODING 57443
SWIDTH 929 0
DWIDTH 17 0
BBX 13 16 2 -1
BITMAP
1FC0
1FC0
0700
0F80
3FE0
70F0
70F0
F0F8
F8F8
F808
F808
FFC8
7FF0
7FF0
3FE0
0F80
ENDCHAR
STARTCHAR cid610
ENCODING 57444
SWIDTH 920 0
DWIDTH 17 0
BBX 15 15 1 -1
BITMAP
1FF0
7FF8
FFFC
FFFE
FFFE
FFFE
FFFE
FFFC
6D6C
34A0
1CE0
4104
FFBC
7FDC
0EC0
ENDCHAR
STARTCHAR cid611
ENCODING 57445
SWIDTH 891 0
DWIDTH 16 0
BBX 15 17 1 -1
BITMAP
0100
0780
0FC0
1FE0
3FF0
3FF8
73F8
FF3C
F12C
FB6E
6FEC
2030
1FE0
1FE0
1FE0
1FE0
17A0
ENDCHAR
STARTCHAR cid612
ENCODING 57446
SWIDTH 935 0
DWIDTH 17 0
BBX 15 16 1 -1
BITMAP
07C0
1FF0
3FFC
5FFC
A83E
D03E
E000
E000
0004
0016
F016
F82A
FEF4
FFF8
1FF0
07C0
ENDCHAR
STARTCHAR cid613
ENCODING 57447
SWIDTH 974 0
DWIDTH 18 0
BBX 16 16 1 -1
BITMAP
1800
0900
0D00
0F10
6FD0
7FF0
1FFE
FFFC
3FFE
3C0E
F806
F926
1926
1807
0E0C
01F0
ENDCHAR
STARTCHAR uniE068
ENCODING 57448
SWIDTH 454 0
DWIDTH 8 0
BBX 7 5 1 10
BITMAP
EE
AC
E8
A8
E8
ENDCHAR
STARTCHAR cid615
ENCODING 57449
SWIDTH 454 0
DWIDTH 8 0
BBX 6 5 1 10
BITMAP
DC
94
9C
94
9C
ENDCHAR
STARTCHAR cid616
ENCODING 57450
SWIDTH 260 0
DWIDTH 5 0
BBX 4 5 0 10
BITMAP
70
D0
70
50
70
ENDCHAR
STARTCHAR cid617
ENCODING 57451
SWIDTH 990 0
DWIDTH 18 0
BBX 16 15 1 0
BITMAP
FFFF
FFFF
FC3F
F81F
F38F
FB8F
FF9F
FF1F
FE7F
FE7F
FFFF
FE7F
FE7F
FE7F
FFFF
ENDCHAR
STARTCHAR cid112
ENCODING 64257
SWIDTH 659 0
DWIDTH 12 0
BBX 11 15 0 -1
BITMAP
1EE0
3EE0
3EE0
3000
30E0
3EE0
FEE0
FEE0
30E0
30E0
30E0
30E0
30E0
30E0
30E0
ENDCHAR
STARTCHAR cid113
ENCODING 64258
SWIDTH 659 0
DWIDTH 12 0
BBX 10 15 1 -1
BITMAP
1DC0
7DC0
7DC0
61C0
61C0
6DC0
FDC0
FDC0
61C0
61C0
61C0
61C0
61C0
61C0
61C0
ENDCHAR
STARTCHAR cid642
ENCODING 65281
SWIDTH 388 0
DWIDTH 7 0
BBX 4 15 2 -1
BITMAP
F0
E0
E0
E0
E0
E0
E0
E0
E0
E0
E0
00
00
E0
E0
ENDCHAR
STARTCHAR cid716
ENCODING 65283
SWIDTH 735 0
DWIDTH 13 0
BBX 11 16 1 -1
BITMAP
0EE0
0EE0
0EE0
1CC0
7FE0
7FE0
7FE0
3B80
3B00
FF80
FF80
FF80
FF80
EE00
EC00
DC00
ENDCHAR
STARTCHAR cid712
ENCODING 65284
SWIDTH 597 0
DWIDTH 11 0
BBX 9 18 1 -2
BITMAP
1C00
1C00
7E00
FF00
FD80
DD80
DD80
DC00
DC00
FE00
7F00
3F80
1D80
FD80
FD80
7F00
3E00
1C00
ENDCHAR
STARTCHAR cid715
ENCODING 65285
SWIDTH 797 0
DWIDTH 14 0
BBX 13 16 1 -1
BITMAP
00C0
01E0
61C0
F3C0
DB80
DB80
7700
2700
0F00
0E60
0EF0
1DB8
1DB0
38F0
3800
3800
ENDCHAR
STARTCHAR cid717
ENCODING 65286
SWIDTH 795 0
DWIDTH 14 0
BBX 12 16 1 -1
BITMAP
0C00
1F00
3F00
3700
3300
3700
3E00
1C60
3C60
7EE0
6FC0
67F0
E3F0
FFF0
7E70
3C00
ENDCHAR
STARTCHAR cid674
ENCODING 65288
SWIDTH 460 0
DWIDTH 8 0
BBX 6 17 1 -1
BITMAP
10
3C
7C
78
F0
E0
E0
E0
E0
E0
E0
E0
E0
F0
78
3C
1C
ENDCHAR
STARTCHAR cid675
ENCODING 65289
SWIDTH 463 0
DWIDTH 8 0
BBX 6 17 1 -1
BITMAP
20
70
F8
78
3C
1C
1C
1C
1C
1C
1C
1C
1C
1C
38
70
60
ENDCHAR
STARTCHAR cid718
ENCODING 65290
SWIDTH 425 0
DWIDTH 8 0
BBX 5 5 1 10
BITMAP
30
F8
78
F8
30
ENDCHAR
STARTCHAR cid692
ENCODING 65291
SWIDTH 661 0
DWIDTH 12 0
BBX 10 11 1 1
BITMAP
1E00
1E00
1E00
1C00
FFC0
FFC0
FFC0
1C00
1C00
1C00
0C00
ENDCHAR
STARTCHAR cid636
ENCODING 65292
SWIDTH 285 0
DWIDTH 5 0
BBX 3 6 1 -4
BITMAP
E0
E0
E0
60
40
40
ENDCHAR
STARTCHAR cid693
ENCODING 65293
SWIDTH 517 0
DWIDTH 9 0
BBX 7 3 1 5
BITMAP
FE
FE
FE
ENDCHAR
STARTCHAR cid637
ENCODING 65294
SWIDTH 303 0
DWIDTH 5 0
BBX 4 3 1 -1
BITMAP
F0
F0
E0
ENDCHAR
STARTCHAR cid663
ENCODING 65295
SWIDTH 721 0
DWIDTH 13 0
BBX 9 16 2 -1
BITMAP
0380
0700
0700
0700
0E00
0E00
1C00
1C00
1800
3800
3000
7000
7000
6000
E000
C000
ENDCHAR
STARTCHAR cid780
ENCODING 65296
SWIDTH 599 0
DWIDTH 11 0
BBX 9 15 1 -1
BITMAP
3E00
7F00
FF00
E380
E380
E380
E380
E380
E380
E380
E300
E300
FF00
7E00
3C00
ENDCHAR
STARTCHAR cid781
ENCODING 65297
SWIDTH 598 0
DWIDTH 11 0
BBX 4 15 3 -1
BITMAP
F0
F0
F0
30
30
30
70
70
70
70
70
70
70
70
70
ENDCHAR
STARTCHAR cid782
ENCODING 65298
SWIDTH 598 0
DWIDTH 11 0
BBX 9 15 1 -1
BITMAP
3E00
7F00
FF80
E380
E380
E380
0300
0700
3F00
7E00
EC00
E000
FF80
7F80
7F80
ENDCHAR
STARTCHAR cid783
ENCODING 65299
SWIDTH 598 0
DWIDTH 11 0
BBX 9 15 1 -1
BITMAP
7E00
7F00
3F00
0300
0300
0700
1E00
1F00
0300
0380
E380
E380
FF80
7F00
3E00
ENDCHAR
STARTCHAR cid784
ENCODING 65300
SWIDTH 598 0
DWIDTH 11 0
BBX 9 15 1 -1
BITMAP
0700
6700
E700
E700
E700
E700
E700
E680
FF80
7F80
0600
0600
0600
0600
0E00
ENDCHAR
STARTCHAR cid785
ENCODING 65301
SWIDTH 598 0
DWIDTH 11 0
BBX 8 15 1 -1
BITMAP
7F
7F
67
60
60
7C
7E
3F
03
03
E3
E3
FF
7F
3E
ENDCHAR
STARTCHAR cid786
ENCODING 65302
SWIDTH 598 0
DWIDTH 11 0
BBX 9 15 1 -1
BITMAP
3E00
7F00
FF80
E380
E000
E000
FE00
FF00
E380
E380
E380
E380
FF80
7F00
3E00
ENDCHAR
STARTCHAR cid787
ENCODING 65303
SWIDTH 598 0
DWIDTH 11 0
BBX 8 15 1 -1
BITMAP
FF
FF
FF
07
07
06
06
0E
0E
0E
0E
0E
0C
0C
0C
ENDCHAR
STARTCHAR cid788
ENCODING 65304
SWIDTH 598 0
DWIDTH 11 0
BBX 9 15 1 -1
BITMAP
3E00
7F00
E380
E380
E300
E300
7F00
7E00
7F00
E300
E300
E300
FF00
7E00
3C00
ENDCHAR
STARTCHAR cid789
ENCODING 65305
SWIDTH 598 0
DWIDTH 11 0
BBX 9 15 1 -1
BITMAP
3E00
7F00
FF80
E380
E380
E300
6300
6300
7F00
3F00
0300
0300
0F00
0F00
0F00
ENDCHAR
STARTCHAR cid639
ENCODING 65306
SWIDTH 396 0
DWIDTH 7 0
BBX 3 11 2 -1
BITMAP
E0
E0
E0
E0
00
00
00
E0
E0
E0
E0
ENDCHAR
STARTCHAR cid640
ENCODING 65307
SWIDTH 376 0
DWIDTH 7 0
BBX 4 14 1 -4
BITMAP
F0
70
70
70
00
00
00
00
70
70
70
30
30
20
ENDCHAR
STARTCHAR cid699
ENCODING 65308
SWIDTH 410 0
DWIDTH 7 0
BBX 5 8 1 2
BITMAP
18
78
F0
C0
E0
70
38
18
ENDCHAR
STARTCHAR cid697
ENCODING 65309
SWIDTH 688 0
DWIDTH 12 0
BBX 9 8 2 2
BITMAP
FF80
FF80
FF80
0000
FF80
FF80
FF80
C000
ENDCHAR
STARTCHAR cid700
ENCODING 65310
SWIDTH 410 0
DWIDTH 7 0
BBX 6 10 1 1
BITMAP
40
E0
70
38
1C
1C
78
F0
60
40
ENDCHAR
STARTCHAR cid641
ENCODING 65311
SWIDTH 704 0
DWIDTH 13 0
BBX 11 16 1 -1
BITMAP
3F00
7F80
7FC0
FFE0
E1E0
E1E0
81C0
01C0
07C0
0F80
0C00
0C00
0000
0800
0C00
0C00
ENDCHAR
STARTCHAR cid719
ENCODING 65312
SWIDTH 858 0
DWIDTH 15 0
BBX 14 15 1 -2
BITMAP
3FC0
3FE0
7070
EFB8
CFDC
C0D8
C7D8
CFD8
DCD8
EC98
6CB8
6FF0
7700
3980
0F80
ENDCHAR
STARTCHAR cid790
ENCODING 65313
SWIDTH 515 0
DWIDTH 9 0
BBX 8 15 1 -1
BITMAP
7C
FE
FF
C7
C7
C7
C7
C7
E6
FE
FE
E6
E6
E6
E6
ENDCHAR
STARTCHAR cid791
ENCODING 65314
SWIDTH 509 0
DWIDTH 9 0
BBX 8 15 1 -1
BITMAP
FC
FE
FF
C7
C6
C6
C6
E6
FC
FE
E6
E6
E6
FC
F8
ENDCHAR
STARTCHAR cid792
ENCODING 65315
SWIDTH 510 0
DWIDTH 9 0
BBX 8 15 1 -1
BITMAP
7C
7E
FE
C7
C6
C6
C6
C0
C0
C0
C6
C6
FE
7C
38
ENDCHAR
STARTCHAR cid793
ENCODING 65316
SWIDTH 517 0
DWIDTH 9 0
BBX 9 15 0 -1
BITMAP
FE00
7F00
7F80
6380
6380
6380
6380
6300
6300
6300
6300
6300
7F00
7E00
7C00
ENDCHAR
STARTCHAR cid794
ENCODING 65317
SWIDTH 468 0
DWIDTH 8 0
BBX 7 15 1 -1
BITMAP
FE
FE
FE
C0
C0
C0
C0
DC
FC
FC
C0
C0
FE
FE
FE
ENDCHAR
STARTCHAR cid795
ENCODING 65318
SWIDTH 457 0
DWIDTH 8 0
BBX 7 15 1 -1
BITMAP
FE
FE
FE
E0
E0
E0
E0
E0
FC
FC
E0
E0
E0
E0
E0
ENDCHAR
STARTCHAR cid796
ENCODING 65319
SWIDTH 548 0
DWIDTH 10 0
BBX 8 15 1 -1
BITMAP
3E
7E
FF
E7
E7
E0
E0
E0
E0
EF
EF
E7
FF
7E
3C
ENDCHAR
STARTCHAR cid797
ENCODING 65320
SWIDTH 518 0
DWIDTH 9 0
BBX 8 15 1 -1
BITMAP
E7
E7
E7
E7
E7
E7
C7
C7
FF
FE
C6
C6
C6
C6
C6
ENDCHAR
STARTCHAR cid798
ENCODING 65321
SWIDTH 237 0
DWIDTH 4 0
BBX 3 15 1 -1
BITMAP
E0
E0
E0
E0
E0
E0
E0
E0
E0
C0
C0
C0
C0
C0
C0
ENDCHAR
STARTCHAR cid799
ENCODING 65322
SWIDTH 524 0
DWIDTH 9 0
BBX 8 15 1 -1
BITMAP
07
07
07
07
07
07
06
06
06
06
E6
E6
FE
7C
38
ENDCHAR
STARTCHAR cid800
ENCODING 65323
SWIDTH 498 0
DWIDTH 9 0
BBX 7 15 1 -1
BITMAP
E4
EE
EC
FC
F8
F8
F0
E0
E0
F0
F0
F8
FE
EE
EE
ENDCHAR
STARTCHAR cid801
ENCODING 65324
SWIDTH 383 0
DWIDTH 7 0
BBX 5 15 1 -1
BITMAP
E0
E0
E0
E0
E0
E0
C0
C0
C0
C0
C0
C0
F8
F8
F8
ENDCHAR
STARTCHAR cid802
ENCODING 65325
SWIDTH 662 0
DWIDTH 12 0
BBX 10 15 1 -1
BITMAP
E1C0
E1C0
E1C0
E3C0
F3C0
F3C0
F3C0
F7C0
DEC0
DEC0
DEC0
DCC0
CCC0
C0C0
C0C0
ENDCHAR
STARTCHAR cid803
ENCODING 65326
SWIDTH 563 0
DWIDTH 10 0
BBX 9 15 1 -1
BITMAP
C380
E380
E300
E300
F300
F300
FB00
DB00
DB00
FF00
EF00
EF00
E700
E700
E700
ENDCHAR
STARTCHAR cid804
ENCODING 65327
SWIDTH 532 0
DWIDTH 10 0
BBX 8 15 1 -1
BITMAP
7C
7E
FE
C7
C7
C7
C7
C7
C6
C6
C6
C6
FE
7C
38
ENDCHAR
STARTCHAR cid805
ENCODING 65328
SWIDTH 534 0
DWIDTH 10 0
BBX 8 15 1 -1
BITMAP
FC
FE
FF
C7
C7
C7
C7
C7
C6
FE
FC
C0
C0
C0
C0
ENDCHAR
STARTCHAR cid806
ENCODING 65329
SWIDTH 559 0
DWIDTH 10 0
BBX 8 18 1 -4
BITMAP
3E
7E
FF
C3
C3
C3
C3
C3
C3
C3
C3
C3
FF
7E
3C
0C
0F
0F
ENDCHAR
STARTCHAR cid807
ENCODING 65330
SWIDTH 508 0
DWIDTH 9 0
BBX 8 15 1 -1
BITMAP
FC
FE
E7
C7
C6
C6
C6
C6
C6
FE
F8
D8
DF
CE
C6
ENDCHAR
STARTCHAR cid808
ENCODING 65331
SWIDTH 544 0
DWIDTH 10 0
BBX 8 15 1 -1
BITMAP
7C
FE
F3
C3
C3
E0
E0
FC
7E
3F
07
E7
E7
7E
3C
ENDCHAR
STARTCHAR cid809
ENCODING 65332
SWIDTH 524 0
DWIDTH 9 0
BBX 8 15 1 -1
BITMAP
FF
FF
FF
38
38
38
38
38
38
38
38
38
38
38
38
ENDCHAR
STARTCHAR cid810
ENCODING 65333
SWIDTH 530 0
DWIDTH 10 0
BBX 8 15 1 -1
BITMAP
E7
E7
E7
E7
E7
E7
E7
E7
E7
E7
E7
E7
FE
7C
3C
ENDCHAR
STARTCHAR cid811
ENCODING 65334
SWIDTH 546 0
DWIDTH 10 0
BBX 9 15 0 -1
BITMAP
F180
7180
7380
7380
7380
7300
3300
3B00
3F00
3F00
3E00
1E00
1E00
1E00
1E00
ENDCHAR
STARTCHAR cid812
ENCODING 65335
SWIDTH 724 0
DWIDTH 13 0
BBX 11 15 1 -1
BITMAP
CC60
CE60
CEE0
EEE0
FEE0
FEE0
FBE0
FBE0
FBE0
FBE0
7BC0
79C0
71C0
71C0
71C0
ENDCHAR
STARTCHAR cid813
ENCODING 65336
SWIDTH 485 0
DWIDTH 9 0
BBX 7 15 1 -1
BITMAP
EE
EE
EC
7C
7C
78
38
38
38
78
7C
7C
EC
CE
CE
ENDCHAR
STARTCHAR cid814
ENCODING 65337
SWIDTH 482 0
DWIDTH 9 0
BBX 8 15 0 -1
BITMAP
E7
67
67
67
67
67
67
67
77
3E
1C
18
18
18
18
ENDCHAR
STARTCHAR cid815
ENCODING 65338
SWIDTH 502 0
DWIDTH 9 0
BBX 8 15 1 -1
BITMAP
FC
FE
FE
07
0E
1C
1C
38
30
70
E0
C0
FE
FE
FE
ENDCHAR
STARTCHAR cid678
ENCODING 65339
SWIDTH 487 0
DWIDTH 9 0
BBX 6 18 1 -2
BITMAP
FC
FC
FC
E0
E0
E0
E0
E0
E0
E0
E0
E0
60
60
64
7C
7C
7C
ENDCHAR
STARTCHAR cid664
ENCODING 65340
SWIDTH 634 0
DWIDTH 11 0
BBX 9 17 1 -2
BITMAP
E000
E000
7000
7000
3800
3800
3800
1C00
1C00
0E00
0E00
0700
0700
0700
0380
0380
0100
ENDCHAR
STARTCHAR cid679
ENCODING 65341
SWIDTH 485 0
DWIDTH 9 0
BBX 7 18 1 -2
BITMAP
7E
7E
7E
6E
0E
0E
0C
0C
0C
0C
0C
0C
0C
0C
4C
7C
FC
FC
ENDCHAR
STARTCHAR cid648
ENCODING 65342
SWIDTH 502 0
DWIDTH 9 0
BBX 7 4 1 12
BITMAP
38
6C
E6
C6
ENDCHAR
STARTCHAR cid650
ENCODING 65343
SWIDTH 755 0
DWIDTH 14 0
BBX 11 3 1 -1
BITMAP
FFE0
FFE0
FFE0
ENDCHAR
STARTCHAR cid646
ENCODING 65344
SWIDTH 345 0
DWIDTH 6 0
BBX 5 5 1 11
BITMAP
E0
F0
70
78
30
ENDCHAR
STARTCHAR cid816
ENCODING 65345
SWIDTH 511 0
DWIDTH 9 0
BBX 8 11 1 -1
BITMAP
7C
7E
06
7E
FE
CE
CE
CC
CC
FF
3A
ENDCHAR
STARTCHAR cid817
ENCODING 65346
SWIDTH 491 0
DWIDTH 9 0
BBX 7 15 1 -1
BITMAP
C0
C0
C0
C0
FC
FE
C6
C6
C6
C6
C6
C6
C6
FC
F8
ENDCHAR
STARTCHAR cid818
ENCODING 65347
SWIDTH 478 0
DWIDTH 9 0
BBX 7 11 1 -1
BITMAP
78
FC
C6
C6
C0
C0
C0
CE
CE
7C
38
ENDCHAR
STARTCHAR cid819
ENCODING 65348
SWIDTH 480 0
DWIDTH 9 0
BBX 7 15 1 -1
BITMAP
06
06
06
06
7E
FE
C6
C6
C6
C6
C6
C6
C6
7E
3E
ENDCHAR
STARTCHAR cid820
ENCODING 65349
SWIDTH 482 0
DWIDTH 9 0
BBX 7 11 1 -1
BITMAP
7C
FE
C6
C6
FE
FE
C0
CE
CE
FC
38
ENDCHAR
STARTCHAR cid821
ENCODING 65350
SWIDTH 433 0
DWIDTH 8 0
BBX 6 15 1 -1
BITMAP
1C
7C
7C
60
60
6C
FC
FC
60
60
60
60
60
60
60
ENDCHAR
STARTCHAR cid822
ENCODING 65351
SWIDTH 475 0
DWIDTH 9 0
BBX 7 15 1 -5
BITMAP
78
FC
C6
C6
CE
CE
CE
CE
CE
7C
3C
CC
CC
7C
30
ENDCHAR
STARTCHAR cid823
ENCODING 65352
SWIDTH 498 0
DWIDTH 9 0
BBX 7 15 1 -1
BITMAP
C0
C0
C0
C0
FC
FE
FE
C6
C6
C6
C6
C6
C6
C6
C6
ENDCHAR
STARTCHAR cid824
ENCODING 65353
SWIDTH 236 0
DWIDTH 4 0
BBX 3 15 1 -1
BITMAP
E0
E0
E0
00
C0
C0
C0
C0
C0
C0
C0
C0
C0
C0
C0
ENDCHAR
STARTCHAR cid825
ENCODING 65354
SWIDTH 292 0
DWIDTH 5 0
BBX 5 18 0 -4
BITMAP
78
78
38
00
38
30
30
30
30
30
30
30
30
30
30
30
E0
E0
ENDCHAR
STARTCHAR cid826
ENCODING 65355
SWIDTH 482 0
DWIDTH 9 0
BBX 7 15 1 -1
BITMAP
E0
E0
E0
C0
CC
DC
D8
F0
F0
F0
F0
D8
DE
CE
CE
ENDCHAR
STARTCHAR cid827
ENCODING 65356
SWIDTH 233 0
DWIDTH 4 0
BBX 3 15 1 -1
BITMAP
E0
E0
C0
C0
C0
C0
C0
C0
C0
C0
C0
C0
C0
C0
C0
ENDCHAR
STARTCHAR cid828
ENCODING 65357
SWIDTH 687 0
DWIDTH 12 0
BBX 11 11 1 -1
BITMAP
7380
7FC0
FFE0
CEE0
CEE0
CEE0
CCE0
CCE0
CCC0
CCC0
C0C0
ENDCHAR
STARTCHAR cid829
ENCODING 65358
SWIDTH 475 0
DWIDTH 9 0
BBX 7 11 1 -1
BITMAP
38
7C
FE
C6
C6
C6
C6
C6
C6
C6
C6
ENDCHAR
STARTCHAR cid830
ENCODING 65359
SWIDTH 459 0
DWIDTH 8 0
BBX 7 11 1 -1
BITMAP
78
FC
CE
CE
CE
CE
CE
CE
CE
7C
38
ENDCHAR
STARTCHAR cid831
ENCODING 65360
SWIDTH 464 0
DWIDTH 8 0
BBX 7 15 1 -5
BITMAP
F8
FC
CE
CE
CE
CE
CE
CE
FC
F8
E0
C0
C0
C0
C0
ENDCHAR
STARTCHAR cid832
ENCODING 65361
SWIDTH 458 0
DWIDTH 8 0
BBX 8 15 0 -5
BITMAP
3F
7F
E7
E7
67
67
66
66
7E
3E
1E
06
06
06
06
ENDCHAR
STARTCHAR cid833
ENCODING 65362
SWIDTH 395 0
DWIDTH 7 0
BBX 6 11 1 -1
BITMAP
FC
FC
F8
E0
C0
C0
C0
C0
C0
C0
C0
ENDCHAR
STARTCHAR cid834
ENCODING 65363
SWIDTH 491 0
DWIDTH 9 0
BBX 7 11 1 -1
BITMAP
38
7E
C6
C6
E8
7C
3E
0E
CE
7C
38
ENDCHAR
STARTCHAR cid835
ENCODING 65364
SWIDTH 428 0
DWIDTH 8 0
BBX 6 13 1 -1
BITMAP
60
60
FC
FC
64
60
60
60
60
60
7C
3C
1C
ENDCHAR
STARTCHAR cid836
ENCODING 65365
SWIDTH 520 0
DWIDTH 9 0
BBX 8 11 1 -1
BITMAP
E7
E7
E6
C6
C6
C6
C6
C6
FE
7F
39
ENDCHAR
STARTCHAR cid837
ENCODING 65366
SWIDTH 512 0
DWIDTH 9 0
BBX 8 11 1 -1
BITMAP
E7
E6
E6
66
6E
6C
7C
3C
3C
38
38
ENDCHAR
STARTCHAR cid838
ENCODING 65367
SWIDTH 602 0
DWIDTH 11 0
BBX 10 11 0 -1
BITMAP
E4C0
6EC0
6EC0
6EC0
6EC0
7EC0
7BC0
7BC0
7BC0
7380
7180
ENDCHAR
STARTCHAR cid839
ENCODING 65368
SWIDTH 462 0
DWIDTH 8 0
BBX 7 11 1 -1
BITMAP
EE
EC
FC
78
78
30
78
78
FC
CC
CC
ENDCHAR
STARTCHAR cid840
ENCODING 65369
SWIDTH 481 0
DWIDTH 9 0
BBX 8 15 0 -5
BITMAP
E7
67
67
67
67
67
67
66
66
3E
1E
06
06
06
06
ENDCHAR
STARTCHAR cid841
ENCODING 65370
SWIDTH 496 0
DWIDTH 9 0
BBX 8 11 0 -1
BITMAP
7F
7F
7F
06
0E
1C
38
70
FF
7F
7F
ENDCHAR
STARTCHAR cid680
ENCODING 65371
SWIDTH 517 0
DWIDTH 9 0
BBX 5 17 2 -1
BITMAP
10
38
78
E0
E0
E0
60
70
E0
E0
70
60
60
E0
E0
78
30
ENDCHAR
STARTCHAR cid667
ENCODING 65372
SWIDTH 279 0
DWIDTH 5 0
BBX 3 16 1 -1
BITMAP
E0
E0
E0
E0
E0
E0
E0
E0
E0
E0
E0
E0
E0
E0
E0
E0
ENDCHAR
STARTCHAR cid681
ENCODING 65373
SWIDTH 524 0
DWIDTH 9 0
BBX 5 17 3 -1
BITMAP
40
E0
F0
38
38
38
30
70
38
38
70
30
30
38
38
F0
E0
ENDCHAR
STARTCHAR uniFF5E
ENCODING 65374
SWIDTH 822 0
DWIDTH 15 0
BBX 13 6 1 4
BITMAP
1800
3C30
FFF8
F7F8
63E0
0180
ENDCHAR
STARTCHAR cid223
ENCODING 65380
SWIDTH 335 0
DWIDTH 6 0
BBX 4 4 1 -1
BITMAP
40
E0
70
20
ENDCHAR
STARTCHAR cid227
ENCODING 65381
SWIDTH 303 0
DWIDTH 5 0
BBX 4 3 1 4
BITMAP
F0
F0
E0
ENDCHAR
STARTCHAR cid495
ENCODING 65382
SWIDTH 435 0
DWIDTH 8 0
BBX 7 14 0 -1
BITMAP
FC
FE
06
06
7E
7E
66
06
0C
0C
0C
3C
78
20
ENDCHAR
STARTCHAR cid496
ENCODING 65383
SWIDTH 402 0
DWIDTH 7 0
BBX 7 11 0 -1
BITMAP
FC
7E
46
34
3C
34
30
20
60
60
40
ENDCHAR
STARTCHAR cid497
ENCODING 65384
SWIDTH 360 0
DWIDTH 6 0
BBX 5 12 1 -1
BITMAP
10
18
30
70
60
E0
A0
20
20
30
30
30
ENDCHAR
STARTCHAR cid498
ENCODING 65385
SWIDTH 381 0
DWIDTH 7 0
BBX 6 12 1 -1
BITMAP
60
60
F8
F8
8C
88
08
18
18
18
78
70
ENDCHAR
STARTCHAR cid499
ENCODING 65386
SWIDTH 334 0
DWIDTH 6 0
BBX 6 10 0 -1
BITMAP
7C
78
30
30
30
30
30
FC
FC
7C
ENDCHAR
STARTCHAR cid500
ENCODING 65387
SWIDTH 370 0
DWIDTH 7 0
BBX 6 12 0 -1
BITMAP
08
08
FC
FC
18
18
18
38
38
68
68
48
ENDCHAR
STARTCHAR cid501
ENCODING 65388
SWIDTH 384 0
DWIDTH 7 0
BBX 6 12 0 -1
BITMAP
60
60
7C
FC
F4
6C
68
20
20
20
30
30
ENDCHAR
STARTCHAR cid502
ENCODING 65389
SWIDTH 372 0
DWIDTH 7 0
BBX 6 10 0 0
BITMAP
70
78
78
18
18
18
18
F8
FC
FC
ENDCHAR
STARTCHAR cid503
ENCODING 65390
SWIDTH 362 0
DWIDTH 7 0
BBX 5 11 1 -1
BITMAP
F0
F8
F8
18
F8
F8
F8
18
F8
F0
E0
ENDCHAR
STARTCHAR cid504
ENCODING 65391
SWIDTH 416 0
DWIDTH 7 0
BBX 6 11 1 -1
BITMAP
28
AC
AC
A8
18
18
18
18
30
70
20
ENDCHAR
STARTCHAR cid505
ENCODING 65392
SWIDTH 467 0
DWIDTH 8 0
BBX 6 3 1 5
BITMAP
80
FC
FC
ENDCHAR
STARTCHAR cid506
ENCODING 65393
SWIDTH 467 0
DWIDTH 8 0
BBX 8 14 0 -1
BITMAP
FE
FF
FF
03
1E
36
36
30
30
30
30
60
60
20
ENDCHAR
STARTCHAR cid507
ENCODING 65394
SWIDTH 420 0
DWIDTH 8 0
BBX 6 15 1 -1
BITMAP
08
0C
1C
38
30
70
F0
F0
F0
30
30
30
30
30
30
ENDCHAR
STARTCHAR cid508
ENCODING 65395
SWIDTH 459 0
DWIDTH 8 0
BBX 8 15 0 -1
BITMAP
18
18
18
FE
FF
C3
C3
03
06
06
06
06
3E
3C
18
ENDCHAR
STARTCHAR cid509
ENCODING 65396
SWIDTH 390 0
DWIDTH 7 0
BBX 7 13 0 -1
BITMAP
7C
7C
7C
10
10
10
10
10
10
FE
FC
FC
7C
ENDCHAR
STARTCHAR cid510
ENCODING 65397
SWIDTH 463 0
DWIDTH 8 0
BBX 7 14 1 -1
BITMAP
1C
1C
FE
FE
98
18
38
38
38
68
68
E8
E8
48
ENDCHAR
STARTCHAR cid511
ENCODING 65398
SWIDTH 435 0
DWIDTH 8 0
BBX 7 14 0 -1
BITMAP
30
30
30
FC
FE
7A
36
36
36
26
66
66
66
26
ENDCHAR
STARTCHAR cid512
ENCODING 65399
SWIDTH 434 0
DWIDTH 8 0
BBX 7 15 0 -1
BITMAP
10
30
3E
FE
FE
18
1E
7E
7C
18
18
18
18
18
18
ENDCHAR
STARTCHAR cid513
ENCODING 65400
SWIDTH 435 0
DWIDTH 8 0
BBX 7 14 0 -1
BITMAP
3C
7E
7E
66
E6
06
04
0C
0C
0C
18
38
38
20
ENDCHAR
STARTCHAR cid514
ENCODING 65401
SWIDTH 429 0
DWIDTH 8 0
BBX 6 15 1 -1
BITMAP
C0
C0
FC
FC
FC
D8
D8
18
18
18
18
38
78
70
20
ENDCHAR
STARTCHAR cid515
ENCODING 65402
SWIDTH 421 0
DWIDTH 8 0
BBX 7 12 0 0
BITMAP
7C
7E
7E
06
06
06
06
06
06
FE
FE
FC
ENDCHAR
STARTCHAR cid516
ENCODING 65403
SWIDTH 485 0
DWIDTH 9 0
BBX 8 15 0 -1
BITMAP
36
36
3E
FF
FF
36
36
36
06
04
04
0C
0C
1C
08
ENDCHAR
STARTCHAR cid517
ENCODING 65404
SWIDTH 472 0
DWIDTH 9 0
BBX 8 14 0 -1
BITMAP
63
73
7B
53
66
F6
36
06
06
0C
7C
7C
78
60
ENDCHAR
STARTCHAR cid518
ENCODING 65405
SWIDTH 482 0
DWIDTH 9 0
BBX 7 14 1 -1
BITMAP
F0
F8
FC
0C
18
18
18
18
38
78
6C
EE
C6
84
ENDCHAR
STARTCHAR cid519
ENCODING 65406
SWIDTH 430 0
DWIDTH 8 0
BBX 7 15 0 -1
BITMAP
30
30
30
FC
FE
FE
36
66
60
60
60
60
7E
3E
1E
ENDCHAR
STARTCHAR cid520
ENCODING 65407
SWIDTH 452 0
DWIDTH 8 0
BBX 7 14 1 -1
BITMAP
CE
CE
CC
CC
CC
6C
0C
0C
1C
18
38
78
70
20
ENDCHAR
STARTCHAR cid521
ENCODING 65408
SWIDTH 455 0
DWIDTH 8 0
BBX 7 14 1 -1
BITMAP
7C
7C
66
EE
FC
FC
CC
1C
18
18
18
30
70
20
ENDCHAR
STARTCHAR cid522
ENCODING 65409
SWIDTH 409 0
DWIDTH 7 0
BBX 7 15 0 -1
BITMAP
0C
7C
7C
78
18
FE
FE
FE
18
18
18
18
38
30
20
ENDCHAR
STARTCHAR cid523
ENCODING 65410
SWIDTH 499 0
DWIDTH 9 0
BBX 9 13 0 -1
BITMAP
DB80
7B00
7B00
7B00
0300
0700
0600
0600
0600
0E00
1C00
1800
1800
ENDCHAR
STARTCHAR cid524
ENCODING 65411
SWIDTH 464 0
DWIDTH 8 0
BBX 7 14 1 -1
BITMAP
78
78
00
FE
FE
FE
18
18
18
18
38
F0
F0
E0
ENDCHAR
STARTCHAR cid525
ENCODING 65412
SWIDTH 416 0
DWIDTH 7 0
BBX 6 14 1 -1
BITMAP
C0
C0
C0
C0
C0
F0
FC
DC
C0
C0
C0
C0
C0
C0
ENDCHAR
STARTCHAR cid526
ENCODING 65413
SWIDTH 446 0
DWIDTH 8 0
BBX 7 15 1 -1
BITMAP
18
18
18
FE
FE
FC
18
18
18
18
18
38
70
70
60
ENDCHAR
STARTCHAR cid527
ENCODING 65414
SWIDTH 407 0
DWIDTH 7 0
BBX 7 11 0 1
BITMAP
7C
7C
7C
00
00
00
00
00
FE
7E
7E
ENDCHAR
STARTCHAR cid528
ENCODING 65415
SWIDTH 435 0
DWIDTH 8 0
BBX 7 14 0 -1
BITMAP
FC
7E
66
06
06
26
7C
3C
3C
1C
3E
34
70
20
ENDCHAR
STARTCHAR cid529
ENCODING 65416
SWIDTH 438 0
DWIDTH 8 0
BBX 7 15 0 -1
BITMAP
18
18
18
FE
FE
F6
0C
0C
18
7E
7E
7A
18
18
18
ENDCHAR
STARTCHAR cid530
ENCODING 65417
SWIDTH 435 0
DWIDTH 8 0
BBX 6 14 1 -1
BITMAP
08
0C
1C
1C
1C
18
18
18
18
38
70
60
E0
40
ENDCHAR
STARTCHAR cid531
ENCODING 65418
SWIDTH 451 0
DWIDTH 8 0
BBX 7 14 1 -1
BITMAP
40
48
48
CC
CC
CC
CC
CC
CC
CC
CC
CC
CE
48
ENDCHAR
STARTCHAR cid532
ENCODING 65419
SWIDTH 431 0
DWIDTH 8 0
BBX 6 14 1 -1
BITMAP
C0
C0
C4
FC
FC
C0
C0
C0
C0
C0
C0
FC
7C
7C
ENDCHAR
STARTCHAR cid533
ENCODING 65420
SWIDTH 440 0
DWIDTH 8 0
BBX 6 14 1 -1
BITMAP
F8
F8
FC
CC
0C
0C
0C
0C
18
18
38
F0
60
40
ENDCHAR
STARTCHAR cid534
ENCODING 65421
SWIDTH 436 0
DWIDTH 8 0
BBX 6 12 1 0
BITMAP
60
70
F0
F0
F0
D8
18
18
1C
0C
0C
0C
ENDCHAR
STARTCHAR cid535
ENCODING 65422
SWIDTH 467 0
DWIDTH 8 0
BBX 8 15 0 -1
BITMAP
18
18
7F
7F
7F
18
7E
7A
7A
7B
7B
5B
DB
5A
18
ENDCHAR
STARTCHAR cid536
ENCODING 65423
SWIDTH 438 0
DWIDTH 8 0
BBX 7 13 0 -1
BITMAP
FE
7E
76
06
0E
0C
0C
78
78
38
1C
18
08
ENDCHAR
STARTCHAR cid537
ENCODING 65424
SWIDTH 435 0
DWIDTH 8 0
BBX 6 14 1 -1
BITMAP
80
F0
FC
7C
0C
40
78
78
38
80
E0
FC
7C
0C
ENDCHAR
STARTCHAR cid538
ENCODING 65425
SWIDTH 450 0
DWIDTH 8 0
BBX 8 14 0 -1
BITMAP
18
18
38
30
30
30
60
60
64
66
FE
7E
77
40
ENDCHAR
STARTCHAR cid539
ENCODING 65426
SWIDTH 435 0
DWIDTH 8 0
BBX 6 15 1 -1
BITMAP
08
0C
1C
18
58
F8
78
38
3C
3C
34
60
E0
E0
40
ENDCHAR
STARTCHAR cid540
ENCODING 65427
SWIDTH 424 0
DWIDTH 8 0
BBX 6 14 1 -1
BITMAP
FC
F8
60
60
FC
FC
FC
60
60
60
60
7C
3C
3C
ENDCHAR
STARTCHAR cid541
ENCODING 65428
SWIDTH 460 0
DWIDTH 8 0
BBX 8 15 0 -1
BITMAP
60
60
66
7E
FF
7F
76
36
34
30
30
30
30
30
30
ENDCHAR
STARTCHAR cid542
ENCODING 65429
SWIDTH 448 0
DWIDTH 8 0
BBX 7 13 1 0
BITMAP
F0
F8
F8
18
18
18
18
18
18
18
FE
FE
FE
ENDCHAR
STARTCHAR cid543
ENCODING 65430
SWIDTH 438 0
DWIDTH 8 0
BBX 7 14 1 -1
BITMAP
F8
FC
FE
04
04
04
FC
FC
0C
0C
0C
FC
F8
F8
ENDCHAR
STARTCHAR cid544
ENCODING 65431
SWIDTH 438 0
DWIDTH 8 0
BBX 6 15 1 -1
BITMAP
F8
F8
F8
00
F8
FC
FC
0C
0C
0C
0C
18
38
78
20
ENDCHAR
STARTCHAR cid545
ENCODING 65432
SWIDTH 421 0
DWIDTH 8 0
BBX 6 14 1 -1
BITMAP
CC
CC
CC
CC
CC
CC
CC
0C
0C
0C
18
F8
F8
40
ENDCHAR
STARTCHAR cid546
ENCODING 65433
SWIDTH 528 0
DWIDTH 10 0
BBX 8 14 1 -1
BITMAP
6C
6C
6C
6C
6C
6C
6C
6C
6C
6E
EF
CF
CE
04
ENDCHAR
STARTCHAR cid547
ENCODING 65434
SWIDTH 418 0
DWIDTH 8 0
BBX 6 14 1 -1
BITMAP
C0
C0
C0
C0
C0
C0
C0
C0
C8
CC
DC
F8
F0
60
ENDCHAR
STARTCHAR cid548
ENCODING 65435
SWIDTH 447 0
DWIDTH 8 0
BBX 8 13 0 0
BITMAP
3C
7E
FF
E3
E3
66
66
66
66
66
66
7E
3C
ENDCHAR
STARTCHAR cid549
ENCODING 65436
SWIDTH 491 0
DWIDTH 9 0
BBX 8 13 1 0
BITMAP
FC
FE
FF
C6
C6
C6
06
06
06
0E
1C
38
30
ENDCHAR
STARTCHAR cid550
ENCODING 65437
SWIDTH 449 0
DWIDTH 8 0
BBX 7 13 1 0
BITMAP
06
06
E6
E4
EC
0C
0C
0C
0C
0C
FC
F8
F0
ENDCHAR
STARTCHAR cid551
ENCODING 65438
SWIDTH 282 0
DWIDTH 5 0
BBX 4 4 0 14
BITMAP
D0
50
D0
D0
ENDCHAR
STARTCHAR cid552
ENCODING 65439
SWIDTH 211 0
DWIDTH 4 0
BBX 3 4 0 15
BITMAP
40
E0
A0
60
ENDCHAR
STARTCHAR cid713
ENCODING 65504
SWIDTH 533 0
DWIDTH 10 0
BBX 8 14 1 -2
BITMAP
18
18
7C
FE
DB
DB
D8
D8
D8
DB
DB
FE
7C
18
ENDCHAR
STARTCHAR cid714
ENCODING 65505
SWIDTH 537 0
DWIDTH 10 0
BBX 8 16 1 -1
BITMAP
1E
3C
7C
6C
60
60
60
F8
F8
60
60
60
60
FF
FF
FF
ENDCHAR
STARTCHAR cid751
ENCODING 65506
SWIDTH 586 0
DWIDTH 11 0
BBX 9 5 1 2
BITMAP
FF80
FF80
FF80
0380
0380
ENDCHAR
STARTCHAR cid649
ENCODING 65507
SWIDTH 755 0
DWIDTH 14 0
BBX 11 3 1 11
BITMAP
FFE0
FFE0
FFE0
ENDCHAR
STARTCHAR cid711
ENCODING 65509
SWIDTH 525 0
DWIDTH 9 0
BBX 7 15 1 -1
BITMAP
E6
E6
E6
E6
E6
EE
7E
38
3C
7C
34
7C
7C
38
38
ENDCHAR
STARTCHAR cid553
ENCODING 65512
SWIDTH 202 0
DWIDTH 4 0
BBX 2 15 1 -1
BITMAP
C0
C0
C0
C0
C0
C0
C0
C0
C0
C0
C0
C0
C0
C0
C0
ENDCHAR
STARTCHAR .notdef
ENCODING -1
SWIDTH 296 0
DWIDTH 5 0
BBX 1 1 0 0
BITMAP
00
ENDCHAR
STARTCHAR _127
ENCODING -1
SWIDTH 296 0
DWIDTH 5 0
BBX 1 1 0 0
BITMAP
00
ENDCHAR
STARTCHAR _129
ENCODING -1
SWIDTH 296 0
DWIDTH 5 0
BBX 1 1 0 0
BITMAP
00
ENDCHAR
STARTCHAR cid143
ENCODING -1
SWIDTH 296 0
DWIDTH 5 0
BBX 1 1 0 0
BITMAP
00
ENDCHAR
STARTCHAR _141
ENCODING -1
SWIDTH 296 0
DWIDTH 5 0
BBX 1 1 0 0
BITMAP
00
ENDCHAR
STARTCHAR _142
ENCODING -1
SWIDTH 296 0
DWIDTH 5 0
BBX 1 1 0 0
BITMAP
00
ENDCHAR
STARTCHAR _143
ENCODING -1
SWIDTH 296 0
DWIDTH 5 0
BBX 1 1 0 0
BITMAP
00
ENDCHAR
STARTCHAR _144
ENCODING -1
SWIDTH 296 0
DWIDTH 5 0
BBX 1 1 0 0
BITMAP
00
ENDCHAR
STARTCHAR cid95
ENCODING -1
SWIDTH 296 0
DWIDTH 5 0
BBX 1 1 0 0
BITMAP
00
ENDCHAR
STARTCHAR cid149
ENCODING -1
SWIDTH 296 0
DWIDTH 5 0
BBX 1 1 0 0
BITMAP
00
ENDCHAR
STARTCHAR _157
ENCODING -1
SWIDTH 296 0
DWIDTH 5 0
BBX 1 1 0 0
BITMAP
00
ENDCHAR
STARTCHAR _158
ENCODING -1
SWIDTH 296 0
DWIDTH 5 0
BBX 1 1 0 0
BITMAP
00
ENDCHAR
STARTCHAR cid224
ENCODING -1
SWIDTH 296 0
DWIDTH 5 0
BBX 1 1 0 0
BITMAP
00
ENDCHAR
STARTCHAR cid106
ENCODING -1
SWIDTH 296 0
DWIDTH 5 0
BBX 1 1 0 0
BITMAP
00
ENDCHAR
STARTCHAR cid115
ENCODING -1
SWIDTH 296 0
DWIDTH 5 0
BBX 1 1 0 0
BITMAP
00
ENDCHAR
STARTCHAR cid116
ENCODING -1
SWIDTH 296 0
DWIDTH 5 0
BBX 1 1 0 0
BITMAP
00
ENDCHAR
STARTCHAR cid118
ENCODING -1
SWIDTH 252 0
DWIDTH 5 0
BBX 1 1 0 0
BITMAP
00
ENDCHAR
STARTCHAR cid124
ENCODING -1
SWIDTH 296 0
DWIDTH 5 0
BBX 1 1 0 0
BITMAP
00
ENDCHAR
STARTCHAR cid125
ENCODING -1
SWIDTH 296 0
DWIDTH 5 0
BBX 1 1 0 0
BITMAP
00
ENDCHAR
STARTCHAR cid141
ENCODING -1
SWIDTH 296 0
DWIDTH 5 0
BBX 1 1 0 0
BITMAP
00
ENDCHAR
STARTCHAR cid146
ENCODING -1
SWIDTH 247 0
DWIDTH 4 0
BBX 1 1 0 0
BITMAP
00
ENDCHAR
STARTCHAR cid147
ENCODING -1
SWIDTH 296 0
DWIDTH 5 0
BBX 1 1 0 0
BITMAP
00
ENDCHAR
STARTCHAR cid155
ENCODING -1
SWIDTH 296 0
DWIDTH 5 0
BBX 1 1 0 0
BITMAP
00
ENDCHAR
STARTCHAR cid156
ENCODING -1
SWIDTH 695 0
DWIDTH 13 0
BBX 9 11 2 -1
BITMAP
1C00
1C00
FC00
FF80
FF80
1C00
1C00
0000
FF80
FF80
FF80
ENDCHAR
STARTCHAR cid186
ENCODING -1
SWIDTH 296 0
DWIDTH 5 0
BBX 1 1 0 0
BITMAP
00
ENDCHAR
STARTCHAR cid215
ENCODING -1
SWIDTH 296 0
DWIDTH 5 0
BBX 1 1 0 0
BITMAP
00
ENDCHAR
STARTCHAR cid225
ENCODING -1
SWIDTH 296 0
DWIDTH 5 0
BBX 1 1 0 0
BITMAP
00
ENDCHAR
STARTCHAR cid229
ENCODING -1
SWIDTH 296 0
DWIDTH 5 0
BBX 1 1 0 0
BITMAP
00
ENDCHAR
STARTCHAR cid230
ENCODING -1
SWIDTH 296 0
DWIDTH 5 0
BBX 1 1 0 0
BITMAP
00
ENDCHAR
STARTCHAR cid231
ENCODING -1
SWIDTH 296 0
DWIDTH 5 0
BBX 1 1 0 0
BITMAP
00
ENDCHAR
STARTCHAR cid232
ENCODING -1
SWIDTH 296 0
DWIDTH 5 0
BBX 1 1 0 0
BITMAP
00
ENDCHAR
STARTCHAR cid233
ENCODING -1
SWIDTH 296 0
DWIDTH 5 0
BBX 1 1 0 0
BITMAP
00
ENDCHAR
STARTCHAR cid242
ENCODING -1
SWIDTH 296 0
DWIDTH 5 0
BBX 1 1 0 0
BITMAP
00
ENDCHAR
STARTCHAR cid243
ENCODING -1
SWIDTH 296 0
DWIDTH 5 0
BBX 1 1 0 0
BITMAP
00
ENDCHAR
STARTCHAR cid250
ENCODING -1
SWIDTH 296 0
DWIDTH 5 0
BBX 1 1 0 0
BITMAP
00
ENDCHAR
STARTCHAR cid251
ENCODING -1
SWIDTH 296 0
DWIDTH 5 0
BBX 1 1 0 0
BITMAP
00
ENDCHAR
STARTCHAR cid254
ENCODING -1
SWIDTH 296 0
DWIDTH 5 0
BBX 1 1 0 0
BITMAP
00
ENDCHAR
STARTCHAR uni013C
ENCODING -1
SWIDTH 296 0
DWIDTH 5 0
BBX 1 1 0 0
BITMAP
00
ENDCHAR
STARTCHAR cid262
ENCODING -1
SWIDTH 296 0
DWIDTH 5 0
BBX 1 1 0 0
BITMAP
00
ENDCHAR
STARTCHAR cid263
ENCODING -1
SWIDTH 296 0
DWIDTH 5 0
BBX 1 1 0 0
BITMAP
00
ENDCHAR
STARTCHAR cid270
ENCODING -1
SWIDTH 296 0
DWIDTH 5 0
BBX 1 1 0 0
BITMAP
00
ENDCHAR
STARTCHAR cid271
ENCODING -1
SWIDTH 296 0
DWIDTH 5 0
BBX 1 1 0 0
BITMAP
00
ENDCHAR
STARTCHAR cid274
ENCODING -1
SWIDTH 296 0
DWIDTH 5 0
BBX 1 1 0 0
BITMAP
00
ENDCHAR
STARTCHAR cid275
ENCODING -1
SWIDTH 296 0
DWIDTH 5 0
BBX 1 1 0 0
BITMAP
00
ENDCHAR
STARTCHAR cid278
ENCODING -1
SWIDTH 296 0
DWIDTH 5 0
BBX 1 1 0 0
BITMAP
00
ENDCHAR
STARTCHAR cid279
ENCODING -1
SWIDTH 296 0
DWIDTH 5 0
BBX 1 1 0 0
BITMAP
00
ENDCHAR
STARTCHAR cid286
ENCODING -1
SWIDTH 296 0
DWIDTH 5 0
BBX 1 1 0 0
BITMAP
00
ENDCHAR
STARTCHAR cid287
ENCODING -1
SWIDTH 296 0
DWIDTH 5 0
BBX 1 1 0 0
BITMAP
00
ENDCHAR
STARTCHAR cid255
ENCODING -1
SWIDTH 296 0
DWIDTH 5 0
BBX 1 1 0 0
BITMAP
00
ENDCHAR
STARTCHAR cid297
ENCODING -1
SWIDTH 296 0
DWIDTH 5 0
BBX 1 1 0 0
BITMAP
00
ENDCHAR
STARTCHAR cid298
ENCODING -1
SWIDTH 296 0
DWIDTH 5 0
BBX 1 1 0 0
BITMAP
00
ENDCHAR
STARTCHAR cid307
ENCODING -1
SWIDTH 296 0
DWIDTH 5 0
BBX 1 1 0 0
BITMAP
00
ENDCHAR
STARTCHAR cid308
ENCODING -1
SWIDTH 296 0
DWIDTH 5 0
BBX 1 1 0 0
BITMAP
00
ENDCHAR
STARTCHAR cid309
ENCODING -1
SWIDTH 296 0
DWIDTH 5 0
BBX 1 1 0 0
BITMAP
00
ENDCHAR
STARTCHAR cid310
ENCODING -1
SWIDTH 296 0
DWIDTH 5 0
BBX 1 1 0 0
BITMAP
00
ENDCHAR
STARTCHAR cid311
ENCODING -1
SWIDTH 296 0
DWIDTH 5 0
BBX 1 1 0 0
BITMAP
00
ENDCHAR
STARTCHAR cid312
ENCODING -1
SWIDTH 296 0
DWIDTH 5 0
BBX 1 1 0 0
BITMAP
00
ENDCHAR
STARTCHAR cid313
ENCODING -1
SWIDTH 296 0
DWIDTH 5 0
BBX 1 1 0 0
BITMAP
00
ENDCHAR
STARTCHAR cid320
ENCODING -1
SWIDTH 296 0
DWIDTH 5 0
BBX 1 1 0 0
BITMAP
00
ENDCHAR
STARTCHAR cid321
ENCODING -1
SWIDTH 296 0
DWIDTH 5 0
BBX 1 1 0 0
BITMAP
00
ENDCHAR
STARTCHAR cid326
ENCODING -1
SWIDTH 296 0
DWIDTH 5 0
BBX 1 1 0 0
BITMAP
00
ENDCHAR
STARTCHAR cid327
ENCODING -1
SWIDTH 296 0
DWIDTH 5 0
BBX 1 1 0 0
BITMAP
00
ENDCHAR
STARTCHAR cid332
ENCODING -1
SWIDTH 296 0
DWIDTH 5 0
BBX 1 1 0 0
BITMAP
00
ENDCHAR
STARTCHAR cid333
ENCODING -1
SWIDTH 296 0
DWIDTH 5 0
BBX 1 1 0 0
BITMAP
00
ENDCHAR
STARTCHAR cid336
ENCODING -1
SWIDTH 296 0
DWIDTH 5 0
BBX 1 1 0 0
BITMAP
00
ENDCHAR
STARTCHAR cid337
ENCODING -1
SWIDTH 296 0
DWIDTH 5 0
BBX 1 1 0 0
BITMAP
00
ENDCHAR
STARTCHAR cid338
ENCODING -1
SWIDTH 296 0
DWIDTH 5 0
BBX 1 1 0 0
BITMAP
00
ENDCHAR
STARTCHAR cid339
ENCODING -1
SWIDTH 296 0
DWIDTH 5 0
BBX 1 1 0 0
BITMAP
00
ENDCHAR
STARTCHAR cid342
ENCODING -1
SWIDTH 296 0
DWIDTH 5 0
BBX 1 1 0 0
BITMAP
00
ENDCHAR
STARTCHAR cid343
ENCODING -1
SWIDTH 296 0
DWIDTH 5 0
BBX 1 1 0 0
BITMAP
00
ENDCHAR
STARTCHAR cid350
ENCODING -1
SWIDTH 296 0
DWIDTH 5 0
BBX 1 1 0 0
BITMAP
00
ENDCHAR
STARTCHAR cid351
ENCODING -1
SWIDTH 296 0
DWIDTH 5 0
BBX 1 1 0 0
BITMAP
00
ENDCHAR
STARTCHAR cid352
ENCODING -1
SWIDTH 296 0
DWIDTH 5 0
BBX 1 1 0 0
BITMAP
00
ENDCHAR
STARTCHAR cid353
ENCODING -1
SWIDTH 296 0
DWIDTH 5 0
BBX 1 1 0 0
BITMAP
00
ENDCHAR
STARTCHAR cid361
ENCODING -1
SWIDTH 296 0
DWIDTH 5 0
BBX 1 1 0 0
BITMAP
00
ENDCHAR
STARTCHAR cid362
ENCODING -1
SWIDTH 296 0
DWIDTH 5 0
BBX 1 1 0 0
BITMAP
00
ENDCHAR
STARTCHAR cid363
ENCODING -1
SWIDTH 296 0
DWIDTH 5 0
BBX 1 1 0 0
BITMAP
00
ENDCHAR
STARTCHAR cid365
ENCODING -1
SWIDTH 296 0
DWIDTH 5 0
BBX 1 1 0 0
BITMAP
00
ENDCHAR
STARTCHAR cid366
ENCODING -1
SWIDTH 296 0
DWIDTH 5 0
BBX 1 1 0 0
BITMAP
00
ENDCHAR
STARTCHAR cid367
ENCODING -1
SWIDTH 296 0
DWIDTH 5 0
BBX 1 1 0 0
BITMAP
00
ENDCHAR
STARTCHAR cid368
ENCODING -1
SWIDTH 296 0
DWIDTH 5 0
BBX 1 1 0 0
BITMAP
00
ENDCHAR
STARTCHAR cid369
ENCODING -1
SWIDTH 296 0
DWIDTH 5 0
BBX 1 1 0 0
BITMAP
00
ENDCHAR
STARTCHAR cid370
ENCODING -1
SWIDTH 296 0
DWIDTH 5 0
BBX 1 1 0 0
BITMAP
00
ENDCHAR
STARTCHAR cid371
ENCODING -1
SWIDTH 296 0
DWIDTH 5 0
BBX 1 1 0 0
BITMAP
00
ENDCHAR
STARTCHAR cid372
ENCODING -1
SWIDTH 296 0
DWIDTH 5 0
BBX 1 1 0 0
BITMAP
00
ENDCHAR
STARTCHAR cid373
ENCODING -1
SWIDTH 303 0
DWIDTH 5 0
BBX 4 3 1 4
BITMAP
F0
E0
E0
ENDCHAR
STARTCHAR cid374
ENCODING -1
SWIDTH 296 0
DWIDTH 5 0
BBX 1 1 0 0
BITMAP
00
ENDCHAR
STARTCHAR cid375
ENCODING -1
SWIDTH 296 0
DWIDTH 5 0
BBX 1 1 0 0
BITMAP
00
ENDCHAR
STARTCHAR cid376
ENCODING -1
SWIDTH 296 0
DWIDTH 5 0
BBX 1 1 0 0
BITMAP
00
ENDCHAR
STARTCHAR cid377
ENCODING -1
SWIDTH 296 0
DWIDTH 5 0
BBX 1 1 0 0
BITMAP
00
ENDCHAR
STARTCHAR cid378
ENCODING -1
SWIDTH 296 0
DWIDTH 5 0
BBX 1 1 0 0
BITMAP
00
ENDCHAR
STARTCHAR cid379
ENCODING -1
SWIDTH 296 0
DWIDTH 5 0
BBX 1 1 0 0
BITMAP
00
ENDCHAR
STARTCHAR cid380
ENCODING -1
SWIDTH 296 0
DWIDTH 5 0
BBX 1 1 0 0
BITMAP
00
ENDCHAR
STARTCHAR cid381
ENCODING -1
SWIDTH 296 0
DWIDTH 5 0
BBX 1 1 0 0
BITMAP
00
ENDCHAR
STARTCHAR cid382
ENCODING -1
SWIDTH 296 0
DWIDTH 5 0
BBX 1 1 0 0
BITMAP
00
ENDCHAR
STARTCHAR cid385
ENCODING -1
SWIDTH 296 0
DWIDTH 5 0
BBX 1 1 0 0
BITMAP
00
ENDCHAR
STARTCHAR cid386
ENCODING -1
SWIDTH 296 0
DWIDTH 5 0
BBX 1 1 0 0
BITMAP
00
ENDCHAR
STARTCHAR cid387
ENCODING -1
SWIDTH 296 0
DWIDTH 5 0
BBX 1 1 0 0
BITMAP
00
ENDCHAR
STARTCHAR cid388
ENCODING -1
SWIDTH 296 0
DWIDTH 5 0
BBX 1 1 0 0
BITMAP
00
ENDCHAR
STARTCHAR cid389
ENCODING -1
SWIDTH 296 0
DWIDTH 5 0
BBX 1 1 0 0
BITMAP
00
ENDCHAR
STARTCHAR cid390
ENCODING -1
SWIDTH 296 0
DWIDTH 5 0
BBX 1 1 0 0
BITMAP
00
ENDCHAR
STARTCHAR cid391
ENCODING -1
SWIDTH 296 0
DWIDTH 5 0
BBX 1 1 0 0
BITMAP
00
ENDCHAR
STARTCHAR cid392
ENCODING -1
SWIDTH 296 0
DWIDTH 5 0
BBX 1 1 0 0
BITMAP
00
ENDCHAR
STARTCHAR cid393
ENCODING -1
SWIDTH 296 0
DWIDTH 5 0
BBX 1 1 0 0
BITMAP
00
ENDCHAR
STARTCHAR cid394
ENCODING -1
SWIDTH 296 0
DWIDTH 5 0
BBX 1 1 0 0
BITMAP
00
ENDCHAR
STARTCHAR cid395
ENCODING -1
SWIDTH 296 0
DWIDTH 5 0
BBX 1 1 0 0
BITMAP
00
ENDCHAR
STARTCHAR cid398
ENCODING -1
SWIDTH 296 0
DWIDTH 5 0
BBX 1 1 0 0
BITMAP
00
ENDCHAR
STARTCHAR cid399
ENCODING -1
SWIDTH 296 0
DWIDTH 5 0
BBX 1 1 0 0
BITMAP
00
ENDCHAR
STARTCHAR cid400
ENCODING -1
SWIDTH 296 0
DWIDTH 5 0
BBX 1 1 0 0
BITMAP
00
ENDCHAR
STARTCHAR cid401
ENCODING -1
SWIDTH 296 0
DWIDTH 5 0
BBX 1 1 0 0
BITMAP
00
ENDCHAR
STARTCHAR cid402
ENCODING -1
SWIDTH 296 0
DWIDTH 5 0
BBX 1 1 0 0
BITMAP
00
ENDCHAR
STARTCHAR cid403
ENCODING -1
SWIDTH 296 0
DWIDTH 5 0
BBX 1 1 0 0
BITMAP
00
ENDCHAR
STARTCHAR cid404
ENCODING -1
SWIDTH 296 0
DWIDTH 5 0
BBX 1 1 0 0
BITMAP
00
ENDCHAR
STARTCHAR cid405
ENCODING -1
SWIDTH 296 0
DWIDTH 5 0
BBX 1 1 0 0
BITMAP
00
ENDCHAR
STARTCHAR cid406
ENCODING -1
SWIDTH 296 0
DWIDTH 5 0
BBX 1 1 0 0
BITMAP
00
ENDCHAR
STARTCHAR cid407
ENCODING -1
SWIDTH 296 0
DWIDTH 5 0
BBX 1 1 0 0
BITMAP
00
ENDCHAR
STARTCHAR cid408
ENCODING -1
SWIDTH 296 0
DWIDTH 5 0
BBX 1 1 0 0
BITMAP
00
ENDCHAR
STARTCHAR cid409
ENCODING -1
SWIDTH 296 0
DWIDTH 5 0
BBX 1 1 0 0
BITMAP
00
ENDCHAR
STARTCHAR cid410
ENCODING -1
SWIDTH 296 0
DWIDTH 5 0
BBX 1 1 0 0
BITMAP
00
ENDCHAR
STARTCHAR cid411
ENCODING -1
SWIDTH 296 0
DWIDTH 5 0
BBX 1 1 0 0
BITMAP
00
ENDCHAR
STARTCHAR cid412
ENCODING -1
SWIDTH 296 0
DWIDTH 5 0
BBX 1 1 0 0
BITMAP
00
ENDCHAR
STARTCHAR cid413
ENCODING -1
SWIDTH 296 0
DWIDTH 5 0
BBX 1 1 0 0
BITMAP
00
ENDCHAR
STARTCHAR cid414
ENCODING -1
SWIDTH 296 0
DWIDTH 5 0
BBX 1 1 0 0
BITMAP
00
ENDCHAR
STARTCHAR cid415
ENCODING -1
SWIDTH 296 0
DWIDTH 5 0
BBX 1 1 0 0
BITMAP
00
ENDCHAR
STARTCHAR cid416
ENCODING -1
SWIDTH 296 0
DWIDTH 5 0
BBX 1 1 0 0
BITMAP
00
ENDCHAR
STARTCHAR cid417
ENCODING -1
SWIDTH 296 0
DWIDTH 5 0
BBX 1 1 0 0
BITMAP
00
ENDCHAR
STARTCHAR cid418
ENCODING -1
SWIDTH 296 0
DWIDTH 5 0
BBX 1 1 0 0
BITMAP
00
ENDCHAR
STARTCHAR cid419
ENCODING -1
SWIDTH 296 0
DWIDTH 5 0
BBX 1 1 0 0
BITMAP
00
ENDCHAR
STARTCHAR cid422
ENCODING -1
SWIDTH 296 0
DWIDTH 5 0
BBX 1 1 0 0
BITMAP
00
ENDCHAR
STARTCHAR cid423
ENCODING -1
SWIDTH 296 0
DWIDTH 5 0
BBX 1 1 0 0
BITMAP
00
ENDCHAR
STARTCHAR cid424
ENCODING -1
SWIDTH 296 0
DWIDTH 5 0
BBX 1 1 0 0
BITMAP
00
ENDCHAR
STARTCHAR cid425
ENCODING -1
SWIDTH 296 0
DWIDTH 5 0
BBX 1 1 0 0
BITMAP
00
ENDCHAR
STARTCHAR cid426
ENCODING -1
SWIDTH 296 0
DWIDTH 5 0
BBX 1 1 0 0
BITMAP
00
ENDCHAR
STARTCHAR cid427
ENCODING -1
SWIDTH 296 0
DWIDTH 5 0
BBX 1 1 0 0
BITMAP
00
ENDCHAR
STARTCHAR cid428
ENCODING -1
SWIDTH 296 0
DWIDTH 5 0
BBX 1 1 0 0
BITMAP
00
ENDCHAR
STARTCHAR cid429
ENCODING -1
SWIDTH 296 0
DWIDTH 5 0
BBX 1 1 0 0
BITMAP
00
ENDCHAR
STARTCHAR cid430
ENCODING -1
SWIDTH 296 0
DWIDTH 5 0
BBX 1 1 0 0
BITMAP
00
ENDCHAR
STARTCHAR cid431
ENCODING -1
SWIDTH 296 0
DWIDTH 5 0
BBX 1 1 0 0
BITMAP
00
ENDCHAR
STARTCHAR cid432
ENCODING -1
SWIDTH 296 0
DWIDTH 5 0
BBX 1 1 0 0
BITMAP
00
ENDCHAR
STARTCHAR cid434
ENCODING -1
SWIDTH 296 0
DWIDTH 5 0
BBX 1 1 0 0
BITMAP
00
ENDCHAR
STARTCHAR cid435
ENCODING -1
SWIDTH 296 0
DWIDTH 5 0
BBX 1 1 0 0
BITMAP
00
ENDCHAR
STARTCHAR cid436
ENCODING -1
SWIDTH 296 0
DWIDTH 5 0
BBX 1 1 0 0
BITMAP
00
ENDCHAR
STARTCHAR cid437
ENCODING -1
SWIDTH 296 0
DWIDTH 5 0
BBX 1 1 0 0
BITMAP
00
ENDCHAR
STARTCHAR cid438
ENCODING -1
SWIDTH 296 0
DWIDTH 5 0
BBX 1 1 0 0
BITMAP
00
ENDCHAR
STARTCHAR cid439
ENCODING -1
SWIDTH 296 0
DWIDTH 5 0
BBX 1 1 0 0
BITMAP
00
ENDCHAR
STARTCHAR cid440
ENCODING -1
SWIDTH 296 0
DWIDTH 5 0
BBX 1 1 0 0
BITMAP
00
ENDCHAR
STARTCHAR cid441
ENCODING -1
SWIDTH 296 0
DWIDTH 5 0
BBX 1 1 0 0
BITMAP
00
ENDCHAR
STARTCHAR cid442
ENCODING -1
SWIDTH 296 0
DWIDTH 5 0
BBX 1 1 0 0
BITMAP
00
ENDCHAR
STARTCHAR cid443
ENCODING -1
SWIDTH 296 0
DWIDTH 5 0
BBX 1 1 0 0
BITMAP
00
ENDCHAR
STARTCHAR cid444
ENCODING -1
SWIDTH 296 0
DWIDTH 5 0
BBX 1 1 0 0
BITMAP
00
ENDCHAR
STARTCHAR cid445
ENCODING -1
SWIDTH 296 0
DWIDTH 5 0
BBX 1 1 0 0
BITMAP
00
ENDCHAR
STARTCHAR cid446
ENCODING -1
SWIDTH 296 0
DWIDTH 5 0
BBX 1 1 0 0
BITMAP
00
ENDCHAR
STARTCHAR cid447
ENCODING -1
SWIDTH 296 0
DWIDTH 5 0
BBX 1 1 0 0
BITMAP
00
ENDCHAR
STARTCHAR cid448
ENCODING -1
SWIDTH 296 0
DWIDTH 5 0
BBX 1 1 0 0
BITMAP
00
ENDCHAR
STARTCHAR cid449
ENCODING -1
SWIDTH 296 0
DWIDTH 5 0
BBX 1 1 0 0
BITMAP
00
ENDCHAR
STARTCHAR cid452
ENCODING -1
SWIDTH 296 0
DWIDTH 5 0
BBX 1 1 0 0
BITMAP
00
ENDCHAR
STARTCHAR cid455
ENCODING -1
SWIDTH 296 0
DWIDTH 5 0
BBX 1 1 0 0
BITMAP
00
ENDCHAR
STARTCHAR cid456
ENCODING -1
SWIDTH 296 0
DWIDTH 5 0
BBX 1 1 0 0
BITMAP
00
ENDCHAR
STARTCHAR cid457
ENCODING -1
SWIDTH 296 0
DWIDTH 5 0
BBX 1 1 0 0
BITMAP
00
ENDCHAR
STARTCHAR cid466
ENCODING -1
SWIDTH 296 0
DWIDTH 5 0
BBX 1 1 0 0
BITMAP
00
ENDCHAR
STARTCHAR cid468
ENCODING -1
SWIDTH 296 0
DWIDTH 5 0
BBX 1 1 0 0
BITMAP
00
ENDCHAR
STARTCHAR cid485
ENCODING -1
SWIDTH 296 0
DWIDTH 5 0
BBX 1 1 0 0
BITMAP
00
ENDCHAR
STARTCHAR cid488
ENCODING -1
SWIDTH 296 0
DWIDTH 5 0
BBX 1 1 0 0
BITMAP
00
ENDCHAR
STARTCHAR cid489
ENCODING -1
SWIDTH 296 0
DWIDTH 5 0
BBX 1 1 0 0
BITMAP
00
ENDCHAR
STARTCHAR cid490
ENCODING -1
SWIDTH 296 0
DWIDTH 5 0
BBX 1 1 0 0
BITMAP
00
ENDCHAR
STARTCHAR cid491
ENCODING -1
SWIDTH 296 0
DWIDTH 5 0
BBX 1 1 0 0
BITMAP
00
ENDCHAR
STARTCHAR cid492
ENCODING -1
SWIDTH 296 0
DWIDTH 5 0
BBX 1 1 0 0
BITMAP
00
ENDCHAR
STARTCHAR cid493
ENCODING -1
SWIDTH 296 0
DWIDTH 5 0
BBX 1 1 0 0
BITMAP
00
ENDCHAR
STARTCHAR cid494
ENCODING -1
SWIDTH 296 0
DWIDTH 5 0
BBX 1 1 0 0
BITMAP
00
ENDCHAR
STARTCHAR cid554
ENCODING -1
SWIDTH 296 0
DWIDTH 5 0
BBX 1 1 0 0
BITMAP
00
ENDCHAR
STARTCHAR cid555
ENCODING -1
SWIDTH 296 0
DWIDTH 5 0
BBX 1 1 0 0
BITMAP
00
ENDCHAR
STARTCHAR cid556
ENCODING -1
SWIDTH 296 0
DWIDTH 5 0
BBX 1 1 0 0
BITMAP
00
ENDCHAR
STARTCHAR cid557
ENCODING -1
SWIDTH 296 0
DWIDTH 5 0
BBX 1 1 0 0
BITMAP
00
ENDCHAR
STARTCHAR cid558
ENCODING -1
SWIDTH 296 0
DWIDTH 5 0
BBX 1 1 0 0
BITMAP
00
ENDCHAR
STARTCHAR cid559
ENCODING -1
SWIDTH 296 0
DWIDTH 5 0
BBX 1 1 0 0
BITMAP
00
ENDCHAR
STARTCHAR cid560
ENCODING -1
SWIDTH 296 0
DWIDTH 5 0
BBX 1 1 0 0
BITMAP
00
ENDCHAR
STARTCHAR cid561
ENCODING -1
SWIDTH 296 0
DWIDTH 5 0
BBX 1 1 0 0
BITMAP
00
ENDCHAR
STARTCHAR cid562
ENCODING -1
SWIDTH 296 0
DWIDTH 5 0
BBX 1 1 0 0
BITMAP
00
ENDCHAR
STARTCHAR cid563
ENCODING -1
SWIDTH 296 0
DWIDTH 5 0
BBX 1 1 0 0
BITMAP
00
ENDCHAR
STARTCHAR cid564
ENCODING -1
SWIDTH 296 0
DWIDTH 5 0
BBX 1 1 0 0
BITMAP
00
ENDCHAR
STARTCHAR cid565
ENCODING -1
SWIDTH 296 0
DWIDTH 5 0
BBX 1 1 0 0
BITMAP
00
ENDCHAR
STARTCHAR cid566
ENCODING -1
SWIDTH 296 0
DWIDTH 5 0
BBX 1 1 0 0
BITMAP
00
ENDCHAR
STARTCHAR cid567
ENCODING -1
SWIDTH 296 0
DWIDTH 5 0
BBX 1 1 0 0
BITMAP
00
ENDCHAR
STARTCHAR cid568
ENCODING -1
SWIDTH 296 0
DWIDTH 5 0
BBX 1 1 0 0
BITMAP
00
ENDCHAR
STARTCHAR cid569
ENCODING -1
SWIDTH 296 0
DWIDTH 5 0
BBX 1 1 0 0
BITMAP
00
ENDCHAR
STARTCHAR cid570
ENCODING -1
SWIDTH 296 0
DWIDTH 5 0
BBX 1 1 0 0
BITMAP
00
ENDCHAR
STARTCHAR cid571
ENCODING -1
SWIDTH 296 0
DWIDTH 5 0
BBX 1 1 0 0
BITMAP
00
ENDCHAR
STARTCHAR cid572
ENCODING -1
SWIDTH 296 0
DWIDTH 5 0
BBX 1 1 0 0
BITMAP
00
ENDCHAR
STARTCHAR cid573
ENCODING -1
SWIDTH 296 0
DWIDTH 5 0
BBX 1 1 0 0
BITMAP
00
ENDCHAR
STARTCHAR cid574
ENCODING -1
SWIDTH 296 0
DWIDTH 5 0
BBX 1 1 0 0
BITMAP
00
ENDCHAR
STARTCHAR cid575
ENCODING -1
SWIDTH 296 0
DWIDTH 5 0
BBX 1 1 0 0
BITMAP
00
ENDCHAR
STARTCHAR cid576
ENCODING -1
SWIDTH 296 0
DWIDTH 5 0
BBX 1 1 0 0
BITMAP
00
ENDCHAR
STARTCHAR cid577
ENCODING -1
SWIDTH 296 0
DWIDTH 5 0
BBX 1 1 0 0
BITMAP
00
ENDCHAR
STARTCHAR cid578
ENCODING -1
SWIDTH 296 0
DWIDTH 5 0
BBX 1 1 0 0
BITMAP
00
ENDCHAR
STARTCHAR cid579
ENCODING -1
SWIDTH 296 0
DWIDTH 5 0
BBX 1 1 0 0
BITMAP
00
ENDCHAR
STARTCHAR cid580
ENCODING -1
SWIDTH 296 0
DWIDTH 5 0
BBX 1 1 0 0
BITMAP
00
ENDCHAR
STARTCHAR cid581
ENCODING -1
SWIDTH 296 0
DWIDTH 5 0
BBX 1 1 0 0
BITMAP
00
ENDCHAR
STARTCHAR cid582
ENCODING -1
SWIDTH 296 0
DWIDTH 5 0
BBX 1 1 0 0
BITMAP
00
ENDCHAR
STARTCHAR cid583
ENCODING -1
SWIDTH 296 0
DWIDTH 5 0
BBX 1 1 0 0
BITMAP
00
ENDCHAR
STARTCHAR cid584
ENCODING -1
SWIDTH 296 0
DWIDTH 5 0
BBX 1 1 0 0
BITMAP
00
ENDCHAR
STARTCHAR cid585
ENCODING -1
SWIDTH 296 0
DWIDTH 5 0
BBX 1 1 0 0
BITMAP
00
ENDCHAR
STARTCHAR cid586
ENCODING -1
SWIDTH 296 0
DWIDTH 5 0
BBX 1 1 0 0
BITMAP
00
ENDCHAR
STARTCHAR cid587
ENCODING -1
SWIDTH 296 0
DWIDTH 5 0
BBX 1 1 0 0
BITMAP
00
ENDCHAR
STARTCHAR cid588
ENCODING -1
SWIDTH 296 0
DWIDTH 5 0
BBX 1 1 0 0
BITMAP
00
ENDCHAR
STARTCHAR cid589
ENCODING -1
SWIDTH 296 0
DWIDTH 5 0
BBX 1 1 0 0
BITMAP
00
ENDCHAR
STARTCHAR cid590
ENCODING -1
SWIDTH 296 0
DWIDTH 5 0
BBX 1 1 0 0
BITMAP
00
ENDCHAR
STARTCHAR cid591
ENCODING -1
SWIDTH 296 0
DWIDTH 5 0
BBX 1 1 0 0
BITMAP
00
ENDCHAR
STARTCHAR cid592
ENCODING -1
SWIDTH 296 0
DWIDTH 5 0
BBX 1 1 0 0
BITMAP
00
ENDCHAR
STARTCHAR cid593
ENCODING -1
SWIDTH 296 0
DWIDTH 5 0
BBX 1 1 0 0
BITMAP
00
ENDCHAR
STARTCHAR cid594
ENCODING -1
SWIDTH 296 0
DWIDTH 5 0
BBX 1 1 0 0
BITMAP
00
ENDCHAR
STARTCHAR cid595
ENCODING -1
SWIDTH 296 0
DWIDTH 5 0
BBX 1 1 0 0
BITMAP
00
ENDCHAR
STARTCHAR cid596
ENCODING -1
SWIDTH 296 0
DWIDTH 5 0
BBX 1 1 0 0
BITMAP
00
ENDCHAR
STARTCHAR cid597
ENCODING -1
SWIDTH 296 0
DWIDTH 5 0
BBX 1 1 0 0
BITMAP
00
ENDCHAR
STARTCHAR cid598
ENCODING -1
SWIDTH 296 0
DWIDTH 5 0
BBX 1 1 0 0
BITMAP
00
ENDCHAR
STARTCHAR cid599
ENCODING -1
SWIDTH 296 0
DWIDTH 5 0
BBX 1 1 0 0
BITMAP
00
ENDCHAR
STARTCHAR cid600
ENCODING -1
SWIDTH 296 0
DWIDTH 5 0
BBX 1 1 0 0
BITMAP
00
ENDCHAR
STARTCHAR cid601
ENCODING -1
SWIDTH 296 0
DWIDTH 5 0
BBX 1 1 0 0
BITMAP
00
ENDCHAR
STARTCHAR cid602
ENCODING -1
SWIDTH 296 0
DWIDTH 5 0
BBX 1 1 0 0
BITMAP
00
ENDCHAR
STARTCHAR cid603
ENCODING -1
SWIDTH 296 0
DWIDTH 5 0
BBX 1 1 0 0
BITMAP
00
ENDCHAR
STARTCHAR cid604
ENCODING -1
SWIDTH 296 0
DWIDTH 5 0
BBX 1 1 0 0
BITMAP
00
ENDCHAR
STARTCHAR cid605
ENCODING -1
SWIDTH 296 0
DWIDTH 5 0
BBX 1 1 0 0
BITMAP
00
ENDCHAR
STARTCHAR cid606
ENCODING -1
SWIDTH 296 0
DWIDTH 5 0
BBX 1 1 0 0
BITMAP
00
ENDCHAR
STARTCHAR cid607
ENCODING -1
SWIDTH 296 0
DWIDTH 5 0
BBX 1 1 0 0
BITMAP
00
ENDCHAR
STARTCHAR cid618
ENCODING -1
SWIDTH 296 0
DWIDTH 5 0
BBX 1 1 0 0
BITMAP
00
ENDCHAR
STARTCHAR cid619
ENCODING -1
SWIDTH 296 0
DWIDTH 5 0
BBX 1 1 0 0
BITMAP
00
ENDCHAR
STARTCHAR cid620
ENCODING -1
SWIDTH 296 0
DWIDTH 5 0
BBX 1 1 0 0
BITMAP
00
ENDCHAR
STARTCHAR cid621
ENCODING -1
SWIDTH 296 0
DWIDTH 5 0
BBX 1 1 0 0
BITMAP
00
ENDCHAR
STARTCHAR cid622
ENCODING -1
SWIDTH 296 0
DWIDTH 5 0
BBX 1 1 0 0
BITMAP
00
ENDCHAR
STARTCHAR cid623
ENCODING -1
SWIDTH 296 0
DWIDTH 5 0
BBX 1 1 0 0
BITMAP
00
ENDCHAR
STARTCHAR cid624
ENCODING -1
SWIDTH 296 0
DWIDTH 5 0
BBX 1 1 0 0
BITMAP
00
ENDCHAR
STARTCHAR cid625
ENCODING -1
SWIDTH 296 0
DWIDTH 5 0
BBX 1 1 0 0
BITMAP
00
ENDCHAR
STARTCHAR cid626
ENCODING -1
SWIDTH 296 0
DWIDTH 5 0
BBX 1 1 0 0
BITMAP
00
ENDCHAR
STARTCHAR cid627
ENCODING -1
SWIDTH 296 0
DWIDTH 5 0
BBX 1 1 0 0
BITMAP
00
ENDCHAR
STARTCHAR cid628
ENCODING -1
SWIDTH 296 0
DWIDTH 5 0
BBX 1 1 0 0
BITMAP
00
ENDCHAR
STARTCHAR cid629
ENCODING -1
SWIDTH 296 0
DWIDTH 5 0
BBX 1 1 0 0
BITMAP
00
ENDCHAR
STARTCHAR cid630
ENCODING -1
SWIDTH 296 0
DWIDTH 5 0
BBX 1 1 0 0
BITMAP
00
ENDCHAR
STARTCHAR cid631
ENCODING -1
SWIDTH 296 0
DWIDTH 5 0
BBX 1 1 0 0
BITMAP
00
ENDCHAR
STARTCHAR cid632
ENCODING -1
SWIDTH 296 0
DWIDTH 5 0
BBX 1 1 0 0
BITMAP
00
ENDCHAR
STARTCHAR cid662
ENCODING -1
SWIDTH 296 0
DWIDTH 5 0
BBX 1 1 0 0
BITMAP
00
ENDCHAR
STARTCHAR cid669
ENCODING -1
SWIDTH 296 0
DWIDTH 5 0
BBX 1 1 0 0
BITMAP
00
ENDCHAR
STARTCHAR cid670
ENCODING -1
SWIDTH 296 0
DWIDTH 5 0
BBX 1 1 0 0
BITMAP
00
ENDCHAR
STARTCHAR cid671
ENCODING -1
SWIDTH 296 0
DWIDTH 5 0
BBX 1 1 0 0
BITMAP
00
ENDCHAR
STARTCHAR cid672
ENCODING -1
SWIDTH 296 0
DWIDTH 5 0
BBX 1 1 0 0
BITMAP
00
ENDCHAR
STARTCHAR cid673
ENCODING -1
SWIDTH 296 0
DWIDTH 5 0
BBX 1 1 0 0
BITMAP
00
ENDCHAR
STARTCHAR cid710
ENCODING -1
SWIDTH 296 0
DWIDTH 5 0
BBX 1 1 0 0
BITMAP
00
ENDCHAR
STARTCHAR cid766
ENCODING -1
SWIDTH 296 0
DWIDTH 5 0
BBX 1 1 0 0
BITMAP
00
ENDCHAR
STARTCHAR cid767
ENCODING -1
SWIDTH 296 0
DWIDTH 5 0
BBX 1 1 0 0
BITMAP
00
ENDCHAR
STARTCHAR cid771
ENCODING -1
SWIDTH 296 0
DWIDTH 5 0
BBX 1 1 0 0
BITMAP
00
ENDCHAR
STARTCHAR cid921
ENCODING -1
SWIDTH 1143 0
DWIDTH 21 0
BBX 1 1 0 0
BITMAP
00
ENDCHAR
STARTCHAR cid922
ENCODING -1
SWIDTH 1143 0
DWIDTH 21 0
BBX 1 1 0 0
BITMAP
00
ENDCHAR
STARTCHAR cid1004
ENCODING -1
SWIDTH 342 0
DWIDTH 6 0
BBX 1 1 0 0
BITMAP
00
ENDCHAR
STARTCHAR cid1005
ENCODING -1
SWIDTH 342 0
DWIDTH 6 0
BBX 1 1 0 0
BITMAP
00
ENDCHAR
STARTCHAR cid1065
ENCODING -1
SWIDTH 296 0
DWIDTH 5 0
BBX 1 1 0 0
BITMAP
00
ENDCHAR
STARTCHAR cid1098
ENCODING -1
SWIDTH 296 0
DWIDTH 5 0
BBX 1 1 0 0
BITMAP
00
ENDCHAR
STARTCHAR cid1125
ENCODING -1
SWIDTH 296 0
DWIDTH 5 0
BBX 1 1 0 0
BITMAP
00
ENDCHAR
STARTCHAR cid1126
ENCODING -1
SWIDTH 296 0
DWIDTH 5 0
BBX 1 1 0 0
BITMAP
00
ENDCHAR
STARTCHAR cid1127
ENCODING -1
SWIDTH 296 0
DWIDTH 5 0
BBX 1 1 0 0
BITMAP
00
ENDCHAR
STARTCHAR cid1128
ENCODING -1
SWIDTH 296 0
DWIDTH 5 0
BBX 1 1 0 0
BITMAP
00
ENDCHAR
STARTCHAR cid1129
ENCODING -1
SWIDTH 296 0
DWIDTH 5 0
BBX 1 1 0 0
BITMAP
00
ENDCHAR
STARTCHAR cid1130
ENCODING -1
SWIDTH 296 0
DWIDTH 5 0
BBX 1 1 0 0
BITMAP
00
ENDCHAR
STARTCHAR cid1131
ENCODING -1
SWIDTH 296 0
DWIDTH 5 0
BBX 1 1 0 0
BITMAP
00
ENDCHAR
STARTCHAR cid1132
ENCODING -1
SWIDTH 296 0
DWIDTH 5 0
BBX 1 1 0 0
BITMAP
00
ENDCHAR
STARTCHAR cid1133
ENCODING -1
SWIDTH 296 0
DWIDTH 5 0
BBX 1 1 0 0
BITMAP
00
ENDCHAR
STARTCHAR cid1134
ENCODING -1
SWIDTH 296 0
DWIDTH 5 0
BBX 1 1 0 0
BITMAP
00
ENDCHAR
STARTCHAR cid1135
ENCODING -1
SWIDTH 296 0
DWIDTH 5 0
BBX 1 1 0 0
BITMAP
00
ENDCHAR
STARTCHAR cid1136
ENCODING -1
SWIDTH 296 0
DWIDTH 5 0
BBX 1 1 0 0
BITMAP
00
ENDCHAR
STARTCHAR cid1137
ENCODING -1
SWIDTH 296 0
DWIDTH 5 0
BBX 1 1 0 0
BITMAP
00
ENDCHAR
STARTCHAR cid1138
ENCODING -1
SWIDTH 296 0
DWIDTH 5 0
BBX 1 1 0 0
BITMAP
00
ENDCHAR
STARTCHAR cid1139
ENCODING -1
SWIDTH 296 0
DWIDTH 5 0
BBX 1 1 0 0
BITMAP
00
ENDCHAR
STARTCHAR cid1140
ENCODING -1
SWIDTH 296 0
DWIDTH 5 0
BBX 1 1 0 0
BITMAP
00
ENDCHAR
STARTCHAR cid1141
ENCODING -1
SWIDTH 296 0
DWIDTH 5 0
BBX 1 1 0 0
BITMAP
00
ENDCHAR
STARTCHAR cid1142
ENCODING -1
SWIDTH 296 0
DWIDTH 5 0
BBX 1 1 0 0
BITMAP
00
ENDCHAR
STARTCHAR cid1143
ENCODING -1
SWIDTH 296 0
DWIDTH 5 0
BBX 1 1 0 0
BITMAP
00
ENDCHAR
STARTCHAR cid1144
ENCODING -1
SWIDTH 296 0
DWIDTH 5 0
BBX 1 1 0 0
BITMAP
00
ENDCHAR
STARTCHAR cid1145
ENCODING -1
SWIDTH 296 0
DWIDTH 5 0
BBX 1 1 0 0
BITMAP
00
ENDCHAR
STARTCHAR cid1146
ENCODING -1
SWIDTH 296 0
DWIDTH 5 0
BBX 1 1 0 0
BITMAP
00
ENDCHAR
STARTCHAR cid1147
ENCODING -1
SWIDTH 296 0
DWIDTH 5 0
BBX 1 1 0 0
BITMAP
00
ENDCHAR
STARTCHAR cid1148
ENCODING -1
SWIDTH 296 0
DWIDTH 5 0
BBX 1 1 0 0
BITMAP
00
ENDCHAR
STARTCHAR cid1149
ENCODING -1
SWIDTH 296 0
DWIDTH 5 0
BBX 1 1 0 0
BITMAP
00
ENDCHAR
STARTCHAR cid1150
ENCODING -1
SWIDTH 296 0
DWIDTH 5 0
BBX 1 1 0 0
BITMAP
00
ENDCHAR
STARTCHAR cid1151
ENCODING -1
SWIDTH 296 0
DWIDTH 5 0
BBX 1 1 0 0
BITMAP
00
ENDCHAR
STARTCHAR cid1152
ENCODING -1
SWIDTH 296 0
DWIDTH 5 0
BBX 1 1 0 0
BITMAP
00
ENDCHAR
STARTCHAR cid1153
ENCODING -1
SWIDTH 296 0
DWIDTH 5 0
BBX 1 1 0 0
BITMAP
00
ENDCHAR
STARTCHAR cid1154
ENCODING -1
SWIDTH 296 0
DWIDTH 5 0
BBX 1 1 0 0
BITMAP
00
ENDCHAR
STARTCHAR cid1155
ENCODING -1
SWIDTH 296 0
DWIDTH 5 0
BBX 1 1 0 0
BITMAP
00
ENDCHAR
STARTCHAR cid1156
ENCODING -1
SWIDTH 296 0
DWIDTH 5 0
BBX 1 1 0 0
BITMAP
00
ENDCHAR
STARTCHAR cid1157
ENCODING -1
SWIDTH 296 0
DWIDTH 5 0
BBX 1 1 0 0
BITMAP
00
ENDCHAR
STARTCHAR cid1158
ENCODING -1
SWIDTH 296 0
DWIDTH 5 0
BBX 1 1 0 0
BITMAP
00
ENDCHAR
STARTCHAR cid1159
ENCODING -1
SWIDTH 296 0
DWIDTH 5 0
BBX 1 1 0 0
BITMAP
00
ENDCHAR
STARTCHAR cid1160
ENCODING -1
SWIDTH 296 0
DWIDTH 5 0
BBX 1 1 0 0
BITMAP
00
ENDCHAR
STARTCHAR cid1161
ENCODING -1
SWIDTH 296 0
DWIDTH 5 0
BBX 1 1 0 0
BITMAP
00
ENDCHAR
STARTCHAR cid1162
ENCODING -1
SWIDTH 296 0
DWIDTH 5 0
BBX 1 1 0 0
BITMAP
00
ENDCHAR
STARTCHAR cid1163
ENCODING -1
SWIDTH 296 0
DWIDTH 5 0
BBX 1 1 0 0
BITMAP
00
ENDCHAR
STARTCHAR cid1164
ENCODING -1
SWIDTH 296 0
DWIDTH 5 0
BBX 1 1 0 0
BITMAP
00
ENDCHAR
STARTCHAR cid1165
ENCODING -1
SWIDTH 296 0
DWIDTH 5 0
BBX 1 1 0 0
BITMAP
00
ENDCHAR
STARTCHAR cid1166
ENCODING -1
SWIDTH 296 0
DWIDTH 5 0
BBX 1 1 0 0
BITMAP
00
ENDCHAR
STARTCHAR cid1167
ENCODING -1
SWIDTH 296 0
DWIDTH 5 0
BBX 1 1 0 0
BITMAP
00
ENDCHAR
STARTCHAR cid1168
ENCODING -1
SWIDTH 296 0
DWIDTH 5 0
BBX 1 1 0 0
BITMAP
00
ENDCHAR
STARTCHAR cid1169
ENCODING -1
SWIDTH 296 0
DWIDTH 5 0
BBX 1 1 0 0
BITMAP
00
ENDCHAR
STARTCHAR cid1170
ENCODING -1
SWIDTH 296 0
DWIDTH 5 0
BBX 1 1 0 0
BITMAP
00
ENDCHAR
STARTCHAR cid1171
ENCODING -1
SWIDTH 296 0
DWIDTH 5 0
BBX 1 1 0 0
BITMAP
00
ENDCHAR
STARTCHAR cid1172
ENCODING -1
SWIDTH 296 0
DWIDTH 5 0
BBX 1 1 0 0
BITMAP
00
ENDCHAR
STARTCHAR cid1173
ENCODING -1
SWIDTH 296 0
DWIDTH 5 0
BBX 1 1 0 0
BITMAP
00
ENDCHAR
STARTCHAR cid7608
ENCODING -1
SWIDTH 296 0
DWIDTH 5 0
BBX 1 1 0 0
BITMAP
00
ENDCHAR
STARTCHAR cid7609
ENCODING -1
SWIDTH 296 0
DWIDTH 5 0
BBX 1 1 0 0
BITMAP
00
ENDCHAR
STARTCHAR cid7610
ENCODING -1
SWIDTH 296 0
DWIDTH 5 0
BBX 1 1 0 0
BITMAP
00
ENDCHAR
STARTCHAR cid7958
ENCODING -1
SWIDTH 296 0
DWIDTH 5 0
BBX 1 1 0 0
BITMAP
00
ENDCHAR
STARTCHAR cid7959
ENCODING -1
SWIDTH 296 0
DWIDTH 5 0
BBX 1 1 0 0
BITMAP
00
ENDCHAR
STARTCHAR cid7960
ENCODING -1
SWIDTH 296 0
DWIDTH 5 0
BBX 1 1 0 0
BITMAP
00
ENDCHAR
STARTCHAR cid8722
ENCODING -1
SWIDTH 296 0
DWIDTH 5 0
BBX 1 1 0 0
BITMAP
00
ENDCHAR
STARTCHAR cid8723
ENCODING -1
SWIDTH 296 0
DWIDTH 5 0
BBX 1 1 0 0
BITMAP
00
ENDCHAR
STARTCHAR cid8724
ENCODING -1
SWIDTH 296 0
DWIDTH 5 0
BBX 1 1 0 0
BITMAP
00
ENDCHAR
STARTCHAR cid1200
ENCODING -1
SWIDTH 296 0
DWIDTH 5 0
BBX 1 1 0 0
BITMAP
00
ENDCHAR
STARTCHAR cid1201
ENCODING -1
SWIDTH 296 0
DWIDTH 5 0
BBX 1 1 0 0
BITMAP
00
ENDCHAR
STARTCHAR cid1202
ENCODING -1
SWIDTH 296 0
DWIDTH 5 0
BBX 1 1 0 0
BITMAP
00
ENDCHAR
STARTCHAR cid1203
ENCODING -1
SWIDTH 296 0
DWIDTH 5 0
BBX 1 1 0 0
BITMAP
00
ENDCHAR
STARTCHAR cid1204
ENCODING -1
SWIDTH 296 0
DWIDTH 5 0
BBX 1 1 0 0
BITMAP
00
ENDCHAR
STARTCHAR cid1205
ENCODING -1
SWIDTH 296 0
DWIDTH 5 0
BBX 1 1 0 0
BITMAP
00
ENDCHAR
STARTCHAR cid1206
ENCODING -1
SWIDTH 296 0
DWIDTH 5 0
BBX 1 1 0 0
BITMAP
00
ENDCHAR
STARTCHAR cid1207
ENCODING -1
SWIDTH 296 0
DWIDTH 5 0
BBX 1 1 0 0
BITMAP
00
ENDCHAR
STARTCHAR cid1208
ENCODING -1
SWIDTH 296 0
DWIDTH 5 0
BBX 1 1 0 0
BITMAP
00
ENDCHAR
STARTCHAR cid1209
ENCODING -1
SWIDTH 296 0
DWIDTH 5 0
BBX 1 1 0 0
BITMAP
00
ENDCHAR
STARTCHAR cid1210
ENCODING -1
SWIDTH 296 0
DWIDTH 5 0
BBX 1 1 0 0
BITMAP
00
ENDCHAR
STARTCHAR cid1211
ENCODING -1
SWIDTH 296 0
DWIDTH 5 0
BBX 1 1 0 0
BITMAP
00
ENDCHAR
STARTCHAR cid1212
ENCODING -1
SWIDTH 296 0
DWIDTH 5 0
BBX 1 1 0 0
BITMAP
00
ENDCHAR
STARTCHAR cid1213
ENCODING -1
SWIDTH 296 0
DWIDTH 5 0
BBX 1 1 0 0
BITMAP
00
ENDCHAR
STARTCHAR cid1214
ENCODING -1
SWIDTH 296 0
DWIDTH 5 0
BBX 1 1 0 0
BITMAP
00
ENDCHAR
STARTCHAR cid1215
ENCODING -1
SWIDTH 296 0
DWIDTH 5 0
BBX 1 1 0 0
BITMAP
00
ENDCHAR
STARTCHAR cid1216
ENCODING -1
SWIDTH 296 0
DWIDTH 5 0
BBX 1 1 0 0
BITMAP
00
ENDCHAR
STARTCHAR cid1217
ENCODING -1
SWIDTH 296 0
DWIDTH 5 0
BBX 1 1 0 0
BITMAP
00
ENDCHAR
STARTCHAR cid1218
ENCODING -1
SWIDTH 296 0
DWIDTH 5 0
BBX 1 1 0 0
BITMAP
00
ENDCHAR
STARTCHAR cid1219
ENCODING -1
SWIDTH 296 0
DWIDTH 5 0
BBX 1 1 0 0
BITMAP
00
ENDCHAR
STARTCHAR cid1220
ENCODING -1
SWIDTH 296 0
DWIDTH 5 0
BBX 1 1 0 0
BITMAP
00
ENDCHAR
STARTCHAR cid1221
ENCODING -1
SWIDTH 296 0
DWIDTH 5 0
BBX 1 1 0 0
BITMAP
00
ENDCHAR
STARTCHAR cid1222
ENCODING -1
SWIDTH 296 0
DWIDTH 5 0
BBX 1 1 0 0
BITMAP
00
ENDCHAR
STARTCHAR cid1223
ENCODING -1
SWIDTH 296 0
DWIDTH 5 0
BBX 1 1 0 0
BITMAP
00
ENDCHAR
STARTCHAR cid1224
ENCODING -1
SWIDTH 296 0
DWIDTH 5 0
BBX 1 1 0 0
BITMAP
00
ENDCHAR
STARTCHAR cid1225
ENCODING -1
SWIDTH 296 0
DWIDTH 5 0
BBX 1 1 0 0
BITMAP
00
ENDCHAR
STARTCHAR cid1226
ENCODING -1
SWIDTH 296 0
DWIDTH 5 0
BBX 1 1 0 0
BITMAP
00
ENDCHAR
STARTCHAR cid1227
ENCODING -1
SWIDTH 296 0
DWIDTH 5 0
BBX 1 1 0 0
BITMAP
00
ENDCHAR
STARTCHAR cid1228
ENCODING -1
SWIDTH 296 0
DWIDTH 5 0
BBX 1 1 0 0
BITMAP
00
ENDCHAR
STARTCHAR cid1229
ENCODING -1
SWIDTH 296 0
DWIDTH 5 0
BBX 1 1 0 0
BITMAP
00
ENDCHAR
STARTCHAR cid1230
ENCODING -1
SWIDTH 296 0
DWIDTH 5 0
BBX 1 1 0 0
BITMAP
00
ENDCHAR
STARTCHAR cid1231
ENCODING -1
SWIDTH 296 0
DWIDTH 5 0
BBX 1 1 0 0
BITMAP
00
ENDCHAR
STARTCHAR cid1232
ENCODING -1
SWIDTH 296 0
DWIDTH 5 0
BBX 1 1 0 0
BITMAP
00
ENDCHAR
STARTCHAR cid1233
ENCODING -1
SWIDTH 296 0
DWIDTH 5 0
BBX 1 1 0 0
BITMAP
00
ENDCHAR
STARTCHAR cid1234
ENCODING -1
SWIDTH 296 0
DWIDTH 5 0
BBX 1 1 0 0
BITMAP
00
ENDCHAR
STARTCHAR cid1235
ENCODING -1
SWIDTH 296 0
DWIDTH 5 0
BBX 1 1 0 0
BITMAP
00
ENDCHAR
STARTCHAR cid1236
ENCODING -1
SWIDTH 296 0
DWIDTH 5 0
BBX 1 1 0 0
BITMAP
00
ENDCHAR
STARTCHAR cid1237
ENCODING -1
SWIDTH 296 0
DWIDTH 5 0
BBX 1 1 0 0
BITMAP
00
ENDCHAR
STARTCHAR cid1259
ENCODING -1
SWIDTH 296 0
DWIDTH 5 0
BBX 1 1 0 0
BITMAP
00
ENDCHAR
STARTCHAR cid1260
ENCODING -1
SWIDTH 296 0
DWIDTH 5 0
BBX 1 1 0 0
BITMAP
00
ENDCHAR
STARTCHAR cid1261
ENCODING -1
SWIDTH 296 0
DWIDTH 5 0
BBX 1 1 0 0
BITMAP
00
ENDCHAR
STARTCHAR cid1262
ENCODING -1
SWIDTH 296 0
DWIDTH 5 0
BBX 1 1 0 0
BITMAP
00
ENDCHAR
STARTCHAR cid1263
ENCODING -1
SWIDTH 296 0
DWIDTH 5 0
BBX 1 1 0 0
BITMAP
00
ENDCHAR
STARTCHAR cid1264
ENCODING -1
SWIDTH 296 0
DWIDTH 5 0
BBX 1 1 0 0
BITMAP
00
ENDCHAR
STARTCHAR cid1265
ENCODING -1
SWIDTH 296 0
DWIDTH 5 0
BBX 1 1 0 0
BITMAP
00
ENDCHAR
STARTCHAR cid1266
ENCODING -1
SWIDTH 296 0
DWIDTH 5 0
BBX 1 1 0 0
BITMAP
00
ENDCHAR
STARTCHAR cid1267
ENCODING -1
SWIDTH 296 0
DWIDTH 5 0
BBX 1 1 0 0
BITMAP
00
ENDCHAR
STARTCHAR cid1268
ENCODING -1
SWIDTH 296 0
DWIDTH 5 0
BBX 1 1 0 0
BITMAP
00
ENDCHAR
STARTCHAR cid1269
ENCODING -1
SWIDTH 296 0
DWIDTH 5 0
BBX 1 1 0 0
BITMAP
00
ENDCHAR
STARTCHAR cid1270
ENCODING -1
SWIDTH 296 0
DWIDTH 5 0
BBX 1 1 0 0
BITMAP
00
ENDCHAR
STARTCHAR cid1271
ENCODING -1
SWIDTH 296 0
DWIDTH 5 0
BBX 1 1 0 0
BITMAP
00
ENDCHAR
STARTCHAR cid1272
ENCODING -1
SWIDTH 296 0
DWIDTH 5 0
BBX 1 1 0 0
BITMAP
00
ENDCHAR
STARTCHAR cid1273
ENCODING -1
SWIDTH 296 0
DWIDTH 5 0
BBX 1 1 0 0
BITMAP
00
ENDCHAR
STARTCHAR cid1274
ENCODING -1
SWIDTH 296 0
DWIDTH 5 0
BBX 1 1 0 0
BITMAP
00
ENDCHAR
STARTCHAR cid1275
ENCODING -1
SWIDTH 296 0
DWIDTH 5 0
BBX 1 1 0 0
BITMAP
00
ENDCHAR
STARTCHAR cid1276
ENCODING -1
SWIDTH 296 0
DWIDTH 5 0
BBX 1 1 0 0
BITMAP
00
ENDCHAR
STARTCHAR cid1277
ENCODING -1
SWIDTH 296 0
DWIDTH 5 0
BBX 1 1 0 0
BITMAP
00
ENDCHAR
STARTCHAR cid1278
ENCODING -1
SWIDTH 296 0
DWIDTH 5 0
BBX 1 1 0 0
BITMAP
00
ENDCHAR
STARTCHAR cid1279
ENCODING -1
SWIDTH 296 0
DWIDTH 5 0
BBX 1 1 0 0
BITMAP
00
ENDCHAR
STARTCHAR cid1280
ENCODING -1
SWIDTH 296 0
DWIDTH 5 0
BBX 1 1 0 0
BITMAP
00
ENDCHAR
STARTCHAR cid1281
ENCODING -1
SWIDTH 296 0
DWIDTH 5 0
BBX 1 1 0 0
BITMAP
00
ENDCHAR
STARTCHAR cid1282
ENCODING -1
SWIDTH 296 0
DWIDTH 5 0
BBX 1 1 0 0
BITMAP
00
ENDCHAR
STARTCHAR cid1283
ENCODING -1
SWIDTH 296 0
DWIDTH 5 0
BBX 1 1 0 0
BITMAP
00
ENDCHAR
STARTCHAR cid1284
ENCODING -1
SWIDTH 296 0
DWIDTH 5 0
BBX 1 1 0 0
BITMAP
00
ENDCHAR
STARTCHAR cid1285
ENCODING -1
SWIDTH 296 0
DWIDTH 5 0
BBX 1 1 0 0
BITMAP
00
ENDCHAR
STARTCHAR cid1286
ENCODING -1
SWIDTH 296 0
DWIDTH 5 0
BBX 1 1 0 0
BITMAP
00
ENDCHAR
STARTCHAR cid1287
ENCODING -1
SWIDTH 296 0
DWIDTH 5 0
BBX 1 1 0 0
BITMAP
00
ENDCHAR
STARTCHAR cid1288
ENCODING -1
SWIDTH 296 0
DWIDTH 5 0
BBX 1 1 0 0
BITMAP
00
ENDCHAR
STARTCHAR cid1289
ENCODING -1
SWIDTH 296 0
DWIDTH 5 0
BBX 1 1 0 0
BITMAP
00
ENDCHAR
STARTCHAR cid1290
ENCODING -1
SWIDTH 296 0
DWIDTH 5 0
BBX 1 1 0 0
BITMAP
00
ENDCHAR
STARTCHAR cid1291
ENCODING -1
SWIDTH 296 0
DWIDTH 5 0
BBX 1 1 0 0
BITMAP
00
ENDCHAR
STARTCHAR cid1292
ENCODING -1
SWIDTH 296 0
DWIDTH 5 0
BBX 1 1 0 0
BITMAP
00
ENDCHAR
STARTCHAR cid1293
ENCODING -1
SWIDTH 296 0
DWIDTH 5 0
BBX 1 1 0 0
BITMAP
00
ENDCHAR
STARTCHAR cid1294
ENCODING -1
SWIDTH 296 0
DWIDTH 5 0
BBX 1 1 0 0
BITMAP
00
ENDCHAR
STARTCHAR cid1295
ENCODING -1
SWIDTH 296 0
DWIDTH 5 0
BBX 1 1 0 0
BITMAP
00
ENDCHAR
STARTCHAR cid1296
ENCODING -1
SWIDTH 296 0
DWIDTH 5 0
BBX 1 1 0 0
BITMAP
00
ENDCHAR
STARTCHAR cid1297
ENCODING -1
SWIDTH 296 0
DWIDTH 5 0
BBX 1 1 0 0
BITMAP
00
ENDCHAR
STARTCHAR cid1298
ENCODING -1
SWIDTH 296 0
DWIDTH 5 0
BBX 1 1 0 0
BITMAP
00
ENDCHAR
STARTCHAR cid1299
ENCODING -1
SWIDTH 296 0
DWIDTH 5 0
BBX 1 1 0 0
BITMAP
00
ENDCHAR
STARTCHAR cid1300
ENCODING -1
SWIDTH 296 0
DWIDTH 5 0
BBX 1 1 0 0
BITMAP
00
ENDCHAR
STARTCHAR cid1301
ENCODING -1
SWIDTH 296 0
DWIDTH 5 0
BBX 1 1 0 0
BITMAP
00
ENDCHAR
STARTCHAR cid1302
ENCODING -1
SWIDTH 296 0
DWIDTH 5 0
BBX 1 1 0 0
BITMAP
00
ENDCHAR
STARTCHAR cid1303
ENCODING -1
SWIDTH 296 0
DWIDTH 5 0
BBX 1 1 0 0
BITMAP
00
ENDCHAR
STARTCHAR cid1304
ENCODING -1
SWIDTH 296 0
DWIDTH 5 0
BBX 1 1 0 0
BITMAP
00
ENDCHAR
STARTCHAR cid1305
ENCODING -1
SWIDTH 296 0
DWIDTH 5 0
BBX 1 1 0 0
BITMAP
00
ENDCHAR
STARTCHAR cid1306
ENCODING -1
SWIDTH 296 0
DWIDTH 5 0
BBX 1 1 0 0
BITMAP
00
ENDCHAR
STARTCHAR cid1307
ENCODING -1
SWIDTH 296 0
DWIDTH 5 0
BBX 1 1 0 0
BITMAP
00
ENDCHAR
STARTCHAR cid1308
ENCODING -1
SWIDTH 296 0
DWIDTH 5 0
BBX 1 1 0 0
BITMAP
00
ENDCHAR
STARTCHAR cid1309
ENCODING -1
SWIDTH 296 0
DWIDTH 5 0
BBX 1 1 0 0
BITMAP
00
ENDCHAR
STARTCHAR cid1310
ENCODING -1
SWIDTH 296 0
DWIDTH 5 0
BBX 1 1 0 0
BITMAP
00
ENDCHAR
STARTCHAR cid1311
ENCODING -1
SWIDTH 296 0
DWIDTH 5 0
BBX 1 1 0 0
BITMAP
00
ENDCHAR
STARTCHAR cid1312
ENCODING -1
SWIDTH 296 0
DWIDTH 5 0
BBX 1 1 0 0
BITMAP
00
ENDCHAR
STARTCHAR cid1313
ENCODING -1
SWIDTH 296 0
DWIDTH 5 0
BBX 1 1 0 0
BITMAP
00
ENDCHAR
STARTCHAR cid1314
ENCODING -1
SWIDTH 296 0
DWIDTH 5 0
BBX 1 1 0 0
BITMAP
00
ENDCHAR
STARTCHAR cid1315
ENCODING -1
SWIDTH 296 0
DWIDTH 5 0
BBX 1 1 0 0
BITMAP
00
ENDCHAR
STARTCHAR cid1316
ENCODING -1
SWIDTH 296 0
DWIDTH 5 0
BBX 1 1 0 0
BITMAP
00
ENDCHAR
STARTCHAR cid1317
ENCODING -1
SWIDTH 296 0
DWIDTH 5 0
BBX 1 1 0 0
BITMAP
00
ENDCHAR
STARTCHAR cid1318
ENCODING -1
SWIDTH 296 0
DWIDTH 5 0
BBX 1 1 0 0
BITMAP
00
ENDCHAR
STARTCHAR cid1319
ENCODING -1
SWIDTH 296 0
DWIDTH 5 0
BBX 1 1 0 0
BITMAP
00
ENDCHAR
STARTCHAR cid1320
ENCODING -1
SWIDTH 296 0
DWIDTH 5 0
BBX 1 1 0 0
BITMAP
00
ENDCHAR
STARTCHAR cid1321
ENCODING -1
SWIDTH 296 0
DWIDTH 5 0
BBX 1 1 0 0
BITMAP
00
ENDCHAR
STARTCHAR cid1322
ENCODING -1
SWIDTH 296 0
DWIDTH 5 0
BBX 1 1 0 0
BITMAP
00
ENDCHAR
STARTCHAR cid1323
ENCODING -1
SWIDTH 296 0
DWIDTH 5 0
BBX 1 1 0 0
BITMAP
00
ENDCHAR
STARTCHAR cid1324
ENCODING -1
SWIDTH 296 0
DWIDTH 5 0
BBX 1 1 0 0
BITMAP
00
ENDCHAR
STARTCHAR cid1325
ENCODING -1
SWIDTH 296 0
DWIDTH 5 0
BBX 1 1 0 0
BITMAP
00
ENDCHAR
STARTCHAR cid1326
ENCODING -1
SWIDTH 296 0
DWIDTH 5 0
BBX 1 1 0 0
BITMAP
00
ENDCHAR
STARTCHAR cid1327
ENCODING -1
SWIDTH 296 0
DWIDTH 5 0
BBX 1 1 0 0
BITMAP
00
ENDCHAR
STARTCHAR cid1328
ENCODING -1
SWIDTH 296 0
DWIDTH 5 0
BBX 1 1 0 0
BITMAP
00
ENDCHAR
STARTCHAR cid1329
ENCODING -1
SWIDTH 296 0
DWIDTH 5 0
BBX 1 1 0 0
BITMAP
00
ENDCHAR
STARTCHAR cid1330
ENCODING -1
SWIDTH 296 0
DWIDTH 5 0
BBX 1 1 0 0
BITMAP
00
ENDCHAR
STARTCHAR cid1331
ENCODING -1
SWIDTH 296 0
DWIDTH 5 0
BBX 1 1 0 0
BITMAP
00
ENDCHAR
STARTCHAR cid1332
ENCODING -1
SWIDTH 296 0
DWIDTH 5 0
BBX 1 1 0 0
BITMAP
00
ENDCHAR
STARTCHAR cid1333
ENCODING -1
SWIDTH 296 0
DWIDTH 5 0
BBX 1 1 0 0
BITMAP
00
ENDCHAR
STARTCHAR cid1334
ENCODING -1
SWIDTH 296 0
DWIDTH 5 0
BBX 1 1 0 0
BITMAP
00
ENDCHAR
STARTCHAR cid1335
ENCODING -1
SWIDTH 296 0
DWIDTH 5 0
BBX 1 1 0 0
BITMAP
00
ENDCHAR
STARTCHAR cid1336
ENCODING -1
SWIDTH 296 0
DWIDTH 5 0
BBX 1 1 0 0
BITMAP
00
ENDCHAR
STARTCHAR cid1337
ENCODING -1
SWIDTH 296 0
DWIDTH 5 0
BBX 1 1 0 0
BITMAP
00
ENDCHAR
STARTCHAR cid1338
ENCODING -1
SWIDTH 296 0
DWIDTH 5 0
BBX 1 1 0 0
BITMAP
00
ENDCHAR
STARTCHAR cid1339
ENCODING -1
SWIDTH 296 0
DWIDTH 5 0
BBX 1 1 0 0
BITMAP
00
ENDCHAR
STARTCHAR cid1340
ENCODING -1
SWIDTH 296 0
DWIDTH 5 0
BBX 1 1 0 0
BITMAP
00
ENDCHAR
STARTCHAR cid1341
ENCODING -1
SWIDTH 296 0
DWIDTH 5 0
BBX 1 1 0 0
BITMAP
00
ENDCHAR
STARTCHAR cid1342
ENCODING -1
SWIDTH 296 0
DWIDTH 5 0
BBX 1 1 0 0
BITMAP
00
ENDCHAR
STARTCHAR cid1343
ENCODING -1
SWIDTH 296 0
DWIDTH 5 0
BBX 1 1 0 0
BITMAP
00
ENDCHAR
STARTCHAR cid1344
ENCODING -1
SWIDTH 296 0
DWIDTH 5 0
BBX 1 1 0 0
BITMAP
00
ENDCHAR
STARTCHAR cid1345
ENCODING -1
SWIDTH 296 0
DWIDTH 5 0
BBX 1 1 0 0
BITMAP
00
ENDCHAR
STARTCHAR cid1346
ENCODING -1
SWIDTH 296 0
DWIDTH 5 0
BBX 1 1 0 0
BITMAP
00
ENDCHAR
STARTCHAR cid1347
ENCODING -1
SWIDTH 296 0
DWIDTH 5 0
BBX 1 1 0 0
BITMAP
00
ENDCHAR
STARTCHAR cid1348
ENCODING -1
SWIDTH 296 0
DWIDTH 5 0
BBX 1 1 0 0
BITMAP
00
ENDCHAR
STARTCHAR cid1349
ENCODING -1
SWIDTH 296 0
DWIDTH 5 0
BBX 1 1 0 0
BITMAP
00
ENDCHAR
STARTCHAR cid1350
ENCODING -1
SWIDTH 296 0
DWIDTH 5 0
BBX 1 1 0 0
BITMAP
00
ENDCHAR
STARTCHAR cid1351
ENCODING -1
SWIDTH 296 0
DWIDTH 5 0
BBX 1 1 0 0
BITMAP
00
ENDCHAR
STARTCHAR cid1352
ENCODING -1
SWIDTH 296 0
DWIDTH 5 0
BBX 1 1 0 0
BITMAP
00
ENDCHAR
STARTCHAR cid1353
ENCODING -1
SWIDTH 296 0
DWIDTH 5 0
BBX 1 1 0 0
BITMAP
00
ENDCHAR
STARTCHAR cid1354
ENCODING -1
SWIDTH 296 0
DWIDTH 5 0
BBX 1 1 0 0
BITMAP
00
ENDCHAR
STARTCHAR cid1355
ENCODING -1
SWIDTH 296 0
DWIDTH 5 0
BBX 1 1 0 0
BITMAP
00
ENDCHAR
STARTCHAR cid1356
ENCODING -1
SWIDTH 296 0
DWIDTH 5 0
BBX 1 1 0 0
BITMAP
00
ENDCHAR
STARTCHAR cid1357
ENCODING -1
SWIDTH 296 0
DWIDTH 5 0
BBX 1 1 0 0
BITMAP
00
ENDCHAR
STARTCHAR cid1358
ENCODING -1
SWIDTH 296 0
DWIDTH 5 0
BBX 1 1 0 0
BITMAP
00
ENDCHAR
STARTCHAR cid1359
ENCODING -1
SWIDTH 296 0
DWIDTH 5 0
BBX 1 1 0 0
BITMAP
00
ENDCHAR
STARTCHAR cid1360
ENCODING -1
SWIDTH 296 0
DWIDTH 5 0
BBX 1 1 0 0
BITMAP
00
ENDCHAR
STARTCHAR cid1361
ENCODING -1
SWIDTH 296 0
DWIDTH 5 0
BBX 1 1 0 0
BITMAP
00
ENDCHAR
STARTCHAR cid1362
ENCODING -1
SWIDTH 296 0
DWIDTH 5 0
BBX 1 1 0 0
BITMAP
00
ENDCHAR
STARTCHAR cid1363
ENCODING -1
SWIDTH 296 0
DWIDTH 5 0
BBX 1 1 0 0
BITMAP
00
ENDCHAR
STARTCHAR cid1364
ENCODING -1
SWIDTH 296 0
DWIDTH 5 0
BBX 1 1 0 0
BITMAP
00
ENDCHAR
STARTCHAR cid1365
ENCODING -1
SWIDTH 296 0
DWIDTH 5 0
BBX 1 1 0 0
BITMAP
00
ENDCHAR
STARTCHAR cid1366
ENCODING -1
SWIDTH 296 0
DWIDTH 5 0
BBX 1 1 0 0
BITMAP
00
ENDCHAR
STARTCHAR cid1367
ENCODING -1
SWIDTH 296 0
DWIDTH 5 0
BBX 1 1 0 0
BITMAP
00
ENDCHAR
STARTCHAR cid1368
ENCODING -1
SWIDTH 296 0
DWIDTH 5 0
BBX 1 1 0 0
BITMAP
00
ENDCHAR
STARTCHAR cid1369
ENCODING -1
SWIDTH 296 0
DWIDTH 5 0
BBX 1 1 0 0
BITMAP
00
ENDCHAR
STARTCHAR cid1370
ENCODING -1
SWIDTH 296 0
DWIDTH 5 0
BBX 1 1 0 0
BITMAP
00
ENDCHAR
STARTCHAR cid1371
ENCODING -1
SWIDTH 296 0
DWIDTH 5 0
BBX 1 1 0 0
BITMAP
00
ENDCHAR
STARTCHAR cid1372
ENCODING -1
SWIDTH 296 0
DWIDTH 5 0
BBX 1 1 0 0
BITMAP
00
ENDCHAR
STARTCHAR cid1373
ENCODING -1
SWIDTH 296 0
DWIDTH 5 0
BBX 1 1 0 0
BITMAP
00
ENDCHAR
STARTCHAR cid1374
ENCODING -1
SWIDTH 296 0
DWIDTH 5 0
BBX 1 1 0 0
BITMAP
00
ENDCHAR
STARTCHAR cid1375
ENCODING -1
SWIDTH 296 0
DWIDTH 5 0
BBX 1 1 0 0
BITMAP
00
ENDCHAR
STARTCHAR cid1376
ENCODING -1
SWIDTH 296 0
DWIDTH 5 0
BBX 1 1 0 0
BITMAP
00
ENDCHAR
STARTCHAR cid1377
ENCODING -1
SWIDTH 296 0
DWIDTH 5 0
BBX 1 1 0 0
BITMAP
00
ENDCHAR
STARTCHAR cid1378
ENCODING -1
SWIDTH 296 0
DWIDTH 5 0
BBX 1 1 0 0
BITMAP
00
ENDCHAR
STARTCHAR cid1379
ENCODING -1
SWIDTH 296 0
DWIDTH 5 0
BBX 1 1 0 0
BITMAP
00
ENDCHAR
STARTCHAR cid1380
ENCODING -1
SWIDTH 296 0
DWIDTH 5 0
BBX 1 1 0 0
BITMAP
00
ENDCHAR
STARTCHAR cid1381
ENCODING -1
SWIDTH 296 0
DWIDTH 5 0
BBX 1 1 0 0
BITMAP
00
ENDCHAR
STARTCHAR cid1382
ENCODING -1
SWIDTH 296 0
DWIDTH 5 0
BBX 1 1 0 0
BITMAP
00
ENDCHAR
STARTCHAR cid1383
ENCODING -1
SWIDTH 296 0
DWIDTH 5 0
BBX 1 1 0 0
BITMAP
00
ENDCHAR
STARTCHAR cid1384
ENCODING -1
SWIDTH 296 0
DWIDTH 5 0
BBX 1 1 0 0
BITMAP
00
ENDCHAR
STARTCHAR cid1385
ENCODING -1
SWIDTH 296 0
DWIDTH 5 0
BBX 1 1 0 0
BITMAP
00
ENDCHAR
STARTCHAR cid1386
ENCODING -1
SWIDTH 296 0
DWIDTH 5 0
BBX 1 1 0 0
BITMAP
00
ENDCHAR
STARTCHAR cid1387
ENCODING -1
SWIDTH 296 0
DWIDTH 5 0
BBX 1 1 0 0
BITMAP
00
ENDCHAR
STARTCHAR cid1388
ENCODING -1
SWIDTH 296 0
DWIDTH 5 0
BBX 1 1 0 0
BITMAP
00
ENDCHAR
STARTCHAR cid1389
ENCODING -1
SWIDTH 296 0
DWIDTH 5 0
BBX 1 1 0 0
BITMAP
00
ENDCHAR
STARTCHAR cid1390
ENCODING -1
SWIDTH 296 0
DWIDTH 5 0
BBX 1 1 0 0
BITMAP
00
ENDCHAR
STARTCHAR cid1391
ENCODING -1
SWIDTH 296 0
DWIDTH 5 0
BBX 1 1 0 0
BITMAP
00
ENDCHAR
STARTCHAR cid1392
ENCODING -1
SWIDTH 296 0
DWIDTH 5 0
BBX 1 1 0 0
BITMAP
00
ENDCHAR
STARTCHAR cid1393
ENCODING -1
SWIDTH 296 0
DWIDTH 5 0
BBX 1 1 0 0
BITMAP
00
ENDCHAR
STARTCHAR cid1394
ENCODING -1
SWIDTH 296 0
DWIDTH 5 0
BBX 1 1 0 0
BITMAP
00
ENDCHAR
STARTCHAR cid1395
ENCODING -1
SWIDTH 296 0
DWIDTH 5 0
BBX 1 1 0 0
BITMAP
00
ENDCHAR
STARTCHAR cid1396
ENCODING -1
SWIDTH 296 0
DWIDTH 5 0
BBX 1 1 0 0
BITMAP
00
ENDCHAR
STARTCHAR cid1397
ENCODING -1
SWIDTH 296 0
DWIDTH 5 0
BBX 1 1 0 0
BITMAP
00
ENDCHAR
STARTCHAR cid1398
ENCODING -1
SWIDTH 296 0
DWIDTH 5 0
BBX 1 1 0 0
BITMAP
00
ENDCHAR
STARTCHAR cid1399
ENCODING -1
SWIDTH 296 0
DWIDTH 5 0
BBX 1 1 0 0
BITMAP
00
ENDCHAR
STARTCHAR cid1400
ENCODING -1
SWIDTH 296 0
DWIDTH 5 0
BBX 1 1 0 0
BITMAP
00
ENDCHAR
STARTCHAR cid1401
ENCODING -1
SWIDTH 296 0
DWIDTH 5 0
BBX 1 1 0 0
BITMAP
00
ENDCHAR
STARTCHAR cid1402
ENCODING -1
SWIDTH 296 0
DWIDTH 5 0
BBX 1 1 0 0
BITMAP
00
ENDCHAR
STARTCHAR cid1403
ENCODING -1
SWIDTH 296 0
DWIDTH 5 0
BBX 1 1 0 0
BITMAP
00
ENDCHAR
STARTCHAR cid1404
ENCODING -1
SWIDTH 296 0
DWIDTH 5 0
BBX 1 1 0 0
BITMAP
00
ENDCHAR
STARTCHAR cid1405
ENCODING -1
SWIDTH 296 0
DWIDTH 5 0
BBX 1 1 0 0
BITMAP
00
ENDCHAR
STARTCHAR cid1406
ENCODING -1
SWIDTH 296 0
DWIDTH 5 0
BBX 1 1 0 0
BITMAP
00
ENDCHAR
STARTCHAR cid1407
ENCODING -1
SWIDTH 296 0
DWIDTH 5 0
BBX 1 1 0 0
BITMAP
00
ENDCHAR
STARTCHAR cid1408
ENCODING -1
SWIDTH 296 0
DWIDTH 5 0
BBX 1 1 0 0
BITMAP
00
ENDCHAR
STARTCHAR cid1409
ENCODING -1
SWIDTH 296 0
DWIDTH 5 0
BBX 1 1 0 0
BITMAP
00
ENDCHAR
STARTCHAR cid1410
ENCODING -1
SWIDTH 296 0
DWIDTH 5 0
BBX 1 1 0 0
BITMAP
00
ENDCHAR
STARTCHAR cid1411
ENCODING -1
SWIDTH 296 0
DWIDTH 5 0
BBX 1 1 0 0
BITMAP
00
ENDCHAR
STARTCHAR cid1412
ENCODING -1
SWIDTH 296 0
DWIDTH 5 0
BBX 1 1 0 0
BITMAP
00
ENDCHAR
STARTCHAR cid1413
ENCODING -1
SWIDTH 296 0
DWIDTH 5 0
BBX 1 1 0 0
BITMAP
00
ENDCHAR
STARTCHAR cid1414
ENCODING -1
SWIDTH 296 0
DWIDTH 5 0
BBX 1 1 0 0
BITMAP
00
ENDCHAR
STARTCHAR cid1415
ENCODING -1
SWIDTH 296 0
DWIDTH 5 0
BBX 1 1 0 0
BITMAP
00
ENDCHAR
STARTCHAR cid1416
ENCODING -1
SWIDTH 296 0
DWIDTH 5 0
BBX 1 1 0 0
BITMAP
00
ENDCHAR
STARTCHAR cid1417
ENCODING -1
SWIDTH 296 0
DWIDTH 5 0
BBX 1 1 0 0
BITMAP
00
ENDCHAR
STARTCHAR cid1418
ENCODING -1
SWIDTH 296 0
DWIDTH 5 0
BBX 1 1 0 0
BITMAP
00
ENDCHAR
STARTCHAR cid1419
ENCODING -1
SWIDTH 296 0
DWIDTH 5 0
BBX 1 1 0 0
BITMAP
00
ENDCHAR
STARTCHAR cid1420
ENCODING -1
SWIDTH 296 0
DWIDTH 5 0
BBX 1 1 0 0
BITMAP
00
ENDCHAR
STARTCHAR cid1421
ENCODING -1
SWIDTH 296 0
DWIDTH 5 0
BBX 1 1 0 0
BITMAP
00
ENDCHAR
STARTCHAR cid1422
ENCODING -1
SWIDTH 296 0
DWIDTH 5 0
BBX 1 1 0 0
BITMAP
00
ENDCHAR
STARTCHAR cid1423
ENCODING -1
SWIDTH 296 0
DWIDTH 5 0
BBX 1 1 0 0
BITMAP
00
ENDCHAR
STARTCHAR cid1424
ENCODING -1
SWIDTH 296 0
DWIDTH 5 0
BBX 1 1 0 0
BITMAP
00
ENDCHAR
STARTCHAR cid1425
ENCODING -1
SWIDTH 296 0
DWIDTH 5 0
BBX 1 1 0 0
BITMAP
00
ENDCHAR
STARTCHAR cid1426
ENCODING -1
SWIDTH 296 0
DWIDTH 5 0
BBX 1 1 0 0
BITMAP
00
ENDCHAR
STARTCHAR cid1427
ENCODING -1
SWIDTH 296 0
DWIDTH 5 0
BBX 1 1 0 0
BITMAP
00
ENDCHAR
STARTCHAR cid1428
ENCODING -1
SWIDTH 296 0
DWIDTH 5 0
BBX 1 1 0 0
BITMAP
00
ENDCHAR
STARTCHAR cid1429
ENCODING -1
SWIDTH 296 0
DWIDTH 5 0
BBX 1 1 0 0
BITMAP
00
ENDCHAR
STARTCHAR cid1430
ENCODING -1
SWIDTH 296 0
DWIDTH 5 0
BBX 1 1 0 0
BITMAP
00
ENDCHAR
STARTCHAR cid1431
ENCODING -1
SWIDTH 296 0
DWIDTH 5 0
BBX 1 1 0 0
BITMAP
00
ENDCHAR
STARTCHAR cid1432
ENCODING -1
SWIDTH 296 0
DWIDTH 5 0
BBX 1 1 0 0
BITMAP
00
ENDCHAR
STARTCHAR cid1433
ENCODING -1
SWIDTH 296 0
DWIDTH 5 0
BBX 1 1 0 0
BITMAP
00
ENDCHAR
STARTCHAR cid1434
ENCODING -1
SWIDTH 296 0
DWIDTH 5 0
BBX 1 1 0 0
BITMAP
00
ENDCHAR
STARTCHAR cid1435
ENCODING -1
SWIDTH 296 0
DWIDTH 5 0
BBX 1 1 0 0
BITMAP
00
ENDCHAR
STARTCHAR cid1436
ENCODING -1
SWIDTH 296 0
DWIDTH 5 0
BBX 1 1 0 0
BITMAP
00
ENDCHAR
STARTCHAR cid1437
ENCODING -1
SWIDTH 296 0
DWIDTH 5 0
BBX 1 1 0 0
BITMAP
00
ENDCHAR
STARTCHAR cid1438
ENCODING -1
SWIDTH 296 0
DWIDTH 5 0
BBX 1 1 0 0
BITMAP
00
ENDCHAR
STARTCHAR cid1439
ENCODING -1
SWIDTH 296 0
DWIDTH 5 0
BBX 1 1 0 0
BITMAP
00
ENDCHAR
STARTCHAR cid1440
ENCODING -1
SWIDTH 296 0
DWIDTH 5 0
BBX 1 1 0 0
BITMAP
00
ENDCHAR
STARTCHAR cid1441
ENCODING -1
SWIDTH 296 0
DWIDTH 5 0
BBX 1 1 0 0
BITMAP
00
ENDCHAR
STARTCHAR cid1442
ENCODING -1
SWIDTH 296 0
DWIDTH 5 0
BBX 1 1 0 0
BITMAP
00
ENDCHAR
STARTCHAR cid1443
ENCODING -1
SWIDTH 296 0
DWIDTH 5 0
BBX 1 1 0 0
BITMAP
00
ENDCHAR
STARTCHAR cid1444
ENCODING -1
SWIDTH 296 0
DWIDTH 5 0
BBX 1 1 0 0
BITMAP
00
ENDCHAR
STARTCHAR cid1445
ENCODING -1
SWIDTH 296 0
DWIDTH 5 0
BBX 1 1 0 0
BITMAP
00
ENDCHAR
STARTCHAR cid1446
ENCODING -1
SWIDTH 296 0
DWIDTH 5 0
BBX 1 1 0 0
BITMAP
00
ENDCHAR
STARTCHAR cid1447
ENCODING -1
SWIDTH 296 0
DWIDTH 5 0
BBX 1 1 0 0
BITMAP
00
ENDCHAR
STARTCHAR cid1448
ENCODING -1
SWIDTH 296 0
DWIDTH 5 0
BBX 1 1 0 0
BITMAP
00
ENDCHAR
STARTCHAR cid1449
ENCODING -1
SWIDTH 296 0
DWIDTH 5 0
BBX 1 1 0 0
BITMAP
00
ENDCHAR
STARTCHAR cid1450
ENCODING -1
SWIDTH 296 0
DWIDTH 5 0
BBX 1 1 0 0
BITMAP
00
ENDCHAR
STARTCHAR cid1451
ENCODING -1
SWIDTH 296 0
DWIDTH 5 0
BBX 1 1 0 0
BITMAP
00
ENDCHAR
STARTCHAR cid1452
ENCODING -1
SWIDTH 296 0
DWIDTH 5 0
BBX 1 1 0 0
BITMAP
00
ENDCHAR
STARTCHAR cid1453
ENCODING -1
SWIDTH 296 0
DWIDTH 5 0
BBX 1 1 0 0
BITMAP
00
ENDCHAR
STARTCHAR cid1454
ENCODING -1
SWIDTH 296 0
DWIDTH 5 0
BBX 1 1 0 0
BITMAP
00
ENDCHAR
STARTCHAR cid1455
ENCODING -1
SWIDTH 296 0
DWIDTH 5 0
BBX 1 1 0 0
BITMAP
00
ENDCHAR
STARTCHAR cid1456
ENCODING -1
SWIDTH 296 0
DWIDTH 5 0
BBX 1 1 0 0
BITMAP
00
ENDCHAR
STARTCHAR cid1457
ENCODING -1
SWIDTH 296 0
DWIDTH 5 0
BBX 1 1 0 0
BITMAP
00
ENDCHAR
STARTCHAR cid1458
ENCODING -1
SWIDTH 296 0
DWIDTH 5 0
BBX 1 1 0 0
BITMAP
00
ENDCHAR
STARTCHAR cid1459
ENCODING -1
SWIDTH 296 0
DWIDTH 5 0
BBX 1 1 0 0
BITMAP
00
ENDCHAR
STARTCHAR cid1460
ENCODING -1
SWIDTH 296 0
DWIDTH 5 0
BBX 1 1 0 0
BITMAP
00
ENDCHAR
STARTCHAR cid1461
ENCODING -1
SWIDTH 296 0
DWIDTH 5 0
BBX 1 1 0 0
BITMAP
00
ENDCHAR
STARTCHAR cid1462
ENCODING -1
SWIDTH 296 0
DWIDTH 5 0
BBX 1 1 0 0
BITMAP
00
ENDCHAR
STARTCHAR cid1463
ENCODING -1
SWIDTH 296 0
DWIDTH 5 0
BBX 1 1 0 0
BITMAP
00
ENDCHAR
STARTCHAR cid1464
ENCODING -1
SWIDTH 296 0
DWIDTH 5 0
BBX 1 1 0 0
BITMAP
00
ENDCHAR
STARTCHAR cid1465
ENCODING -1
SWIDTH 296 0
DWIDTH 5 0
BBX 1 1 0 0
BITMAP
00
ENDCHAR
STARTCHAR cid1466
ENCODING -1
SWIDTH 296 0
DWIDTH 5 0
BBX 1 1 0 0
BITMAP
00
ENDCHAR
STARTCHAR cid1467
ENCODING -1
SWIDTH 296 0
DWIDTH 5 0
BBX 1 1 0 0
BITMAP
00
ENDCHAR
STARTCHAR cid1468
ENCODING -1
SWIDTH 296 0
DWIDTH 5 0
BBX 1 1 0 0
BITMAP
00
ENDCHAR
STARTCHAR cid1469
ENCODING -1
SWIDTH 296 0
DWIDTH 5 0
BBX 1 1 0 0
BITMAP
00
ENDCHAR
STARTCHAR cid1470
ENCODING -1
SWIDTH 296 0
DWIDTH 5 0
BBX 1 1 0 0
BITMAP
00
ENDCHAR
STARTCHAR cid1471
ENCODING -1
SWIDTH 296 0
DWIDTH 5 0
BBX 1 1 0 0
BITMAP
00
ENDCHAR
STARTCHAR cid1472
ENCODING -1
SWIDTH 296 0
DWIDTH 5 0
BBX 1 1 0 0
BITMAP
00
ENDCHAR
STARTCHAR cid1473
ENCODING -1
SWIDTH 296 0
DWIDTH 5 0
BBX 1 1 0 0
BITMAP
00
ENDCHAR
STARTCHAR cid1474
ENCODING -1
SWIDTH 296 0
DWIDTH 5 0
BBX 1 1 0 0
BITMAP
00
ENDCHAR
STARTCHAR cid1475
ENCODING -1
SWIDTH 296 0
DWIDTH 5 0
BBX 1 1 0 0
BITMAP
00
ENDCHAR
STARTCHAR cid1476
ENCODING -1
SWIDTH 296 0
DWIDTH 5 0
BBX 1 1 0 0
BITMAP
00
ENDCHAR
STARTCHAR cid1477
ENCODING -1
SWIDTH 296 0
DWIDTH 5 0
BBX 1 1 0 0
BITMAP
00
ENDCHAR
STARTCHAR cid1478
ENCODING -1
SWIDTH 296 0
DWIDTH 5 0
BBX 1 1 0 0
BITMAP
00
ENDCHAR
STARTCHAR cid1479
ENCODING -1
SWIDTH 296 0
DWIDTH 5 0
BBX 1 1 0 0
BITMAP
00
ENDCHAR
STARTCHAR cid1480
ENCODING -1
SWIDTH 296 0
DWIDTH 5 0
BBX 1 1 0 0
BITMAP
00
ENDCHAR
STARTCHAR cid1481
ENCODING -1
SWIDTH 296 0
DWIDTH 5 0
BBX 1 1 0 0
BITMAP
00
ENDCHAR
STARTCHAR cid1482
ENCODING -1
SWIDTH 296 0
DWIDTH 5 0
BBX 1 1 0 0
BITMAP
00
ENDCHAR
STARTCHAR cid1483
ENCODING -1
SWIDTH 296 0
DWIDTH 5 0
BBX 1 1 0 0
BITMAP
00
ENDCHAR
STARTCHAR cid1484
ENCODING -1
SWIDTH 296 0
DWIDTH 5 0
BBX 1 1 0 0
BITMAP
00
ENDCHAR
STARTCHAR cid1485
ENCODING -1
SWIDTH 296 0
DWIDTH 5 0
BBX 1 1 0 0
BITMAP
00
ENDCHAR
STARTCHAR cid1486
ENCODING -1
SWIDTH 296 0
DWIDTH 5 0
BBX 1 1 0 0
BITMAP
00
ENDCHAR
STARTCHAR cid1487
ENCODING -1
SWIDTH 296 0
DWIDTH 5 0
BBX 1 1 0 0
BITMAP
00
ENDCHAR
STARTCHAR cid1488
ENCODING -1
SWIDTH 296 0
DWIDTH 5 0
BBX 1 1 0 0
BITMAP
00
ENDCHAR
STARTCHAR cid1489
ENCODING -1
SWIDTH 296 0
DWIDTH 5 0
BBX 1 1 0 0
BITMAP
00
ENDCHAR
STARTCHAR cid1490
ENCODING -1
SWIDTH 296 0
DWIDTH 5 0
BBX 1 1 0 0
BITMAP
00
ENDCHAR
STARTCHAR cid1491
ENCODING -1
SWIDTH 296 0
DWIDTH 5 0
BBX 1 1 0 0
BITMAP
00
ENDCHAR
STARTCHAR cid1492
ENCODING -1
SWIDTH 296 0
DWIDTH 5 0
BBX 1 1 0 0
BITMAP
00
ENDCHAR
STARTCHAR cid1493
ENCODING -1
SWIDTH 296 0
DWIDTH 5 0
BBX 1 1 0 0
BITMAP
00
ENDCHAR
STARTCHAR cid1494
ENCODING -1
SWIDTH 296 0
DWIDTH 5 0
BBX 1 1 0 0
BITMAP
00
ENDCHAR
STARTCHAR cid1495
ENCODING -1
SWIDTH 296 0
DWIDTH 5 0
BBX 1 1 0 0
BITMAP
00
ENDCHAR
STARTCHAR cid1496
ENCODING -1
SWIDTH 296 0
DWIDTH 5 0
BBX 1 1 0 0
BITMAP
00
ENDCHAR
STARTCHAR cid1497
ENCODING -1
SWIDTH 296 0
DWIDTH 5 0
BBX 1 1 0 0
BITMAP
00
ENDCHAR
STARTCHAR cid1498
ENCODING -1
SWIDTH 296 0
DWIDTH 5 0
BBX 1 1 0 0
BITMAP
00
ENDCHAR
STARTCHAR cid1499
ENCODING -1
SWIDTH 296 0
DWIDTH 5 0
BBX 1 1 0 0
BITMAP
00
ENDCHAR
STARTCHAR cid1500
ENCODING -1
SWIDTH 296 0
DWIDTH 5 0
BBX 1 1 0 0
BITMAP
00
ENDCHAR
STARTCHAR cid1501
ENCODING -1
SWIDTH 296 0
DWIDTH 5 0
BBX 1 1 0 0
BITMAP
00
ENDCHAR
STARTCHAR cid1502
ENCODING -1
SWIDTH 296 0
DWIDTH 5 0
BBX 1 1 0 0
BITMAP
00
ENDCHAR
STARTCHAR cid1503
ENCODING -1
SWIDTH 296 0
DWIDTH 5 0
BBX 1 1 0 0
BITMAP
00
ENDCHAR
STARTCHAR cid1504
ENCODING -1
SWIDTH 296 0
DWIDTH 5 0
BBX 1 1 0 0
BITMAP
00
ENDCHAR
STARTCHAR cid1505
ENCODING -1
SWIDTH 296 0
DWIDTH 5 0
BBX 1 1 0 0
BITMAP
00
ENDCHAR
STARTCHAR cid1506
ENCODING -1
SWIDTH 296 0
DWIDTH 5 0
BBX 1 1 0 0
BITMAP
00
ENDCHAR
STARTCHAR cid1507
ENCODING -1
SWIDTH 296 0
DWIDTH 5 0
BBX 1 1 0 0
BITMAP
00
ENDCHAR
STARTCHAR cid1508
ENCODING -1
SWIDTH 296 0
DWIDTH 5 0
BBX 1 1 0 0
BITMAP
00
ENDCHAR
STARTCHAR cid1509
ENCODING -1
SWIDTH 296 0
DWIDTH 5 0
BBX 1 1 0 0
BITMAP
00
ENDCHAR
STARTCHAR cid1510
ENCODING -1
SWIDTH 296 0
DWIDTH 5 0
BBX 1 1 0 0
BITMAP
00
ENDCHAR
STARTCHAR cid1511
ENCODING -1
SWIDTH 296 0
DWIDTH 5 0
BBX 1 1 0 0
BITMAP
00
ENDCHAR
STARTCHAR cid1512
ENCODING -1
SWIDTH 296 0
DWIDTH 5 0
BBX 1 1 0 0
BITMAP
00
ENDCHAR
STARTCHAR cid1513
ENCODING -1
SWIDTH 296 0
DWIDTH 5 0
BBX 1 1 0 0
BITMAP
00
ENDCHAR
STARTCHAR cid1514
ENCODING -1
SWIDTH 296 0
DWIDTH 5 0
BBX 1 1 0 0
BITMAP
00
ENDCHAR
STARTCHAR cid1515
ENCODING -1
SWIDTH 296 0
DWIDTH 5 0
BBX 1 1 0 0
BITMAP
00
ENDCHAR
STARTCHAR cid1516
ENCODING -1
SWIDTH 296 0
DWIDTH 5 0
BBX 1 1 0 0
BITMAP
00
ENDCHAR
STARTCHAR cid1517
ENCODING -1
SWIDTH 296 0
DWIDTH 5 0
BBX 1 1 0 0
BITMAP
00
ENDCHAR
STARTCHAR cid1518
ENCODING -1
SWIDTH 296 0
DWIDTH 5 0
BBX 1 1 0 0
BITMAP
00
ENDCHAR
STARTCHAR cid1519
ENCODING -1
SWIDTH 296 0
DWIDTH 5 0
BBX 1 1 0 0
BITMAP
00
ENDCHAR
STARTCHAR cid1520
ENCODING -1
SWIDTH 296 0
DWIDTH 5 0
BBX 1 1 0 0
BITMAP
00
ENDCHAR
STARTCHAR cid1521
ENCODING -1
SWIDTH 296 0
DWIDTH 5 0
BBX 1 1 0 0
BITMAP
00
ENDCHAR
STARTCHAR cid1522
ENCODING -1
SWIDTH 296 0
DWIDTH 5 0
BBX 1 1 0 0
BITMAP
00
ENDCHAR
STARTCHAR cid1523
ENCODING -1
SWIDTH 296 0
DWIDTH 5 0
BBX 1 1 0 0
BITMAP
00
ENDCHAR
STARTCHAR cid1524
ENCODING -1
SWIDTH 296 0
DWIDTH 5 0
BBX 1 1 0 0
BITMAP
00
ENDCHAR
STARTCHAR cid1525
ENCODING -1
SWIDTH 296 0
DWIDTH 5 0
BBX 1 1 0 0
BITMAP
00
ENDCHAR
STARTCHAR cid1526
ENCODING -1
SWIDTH 296 0
DWIDTH 5 0
BBX 1 1 0 0
BITMAP
00
ENDCHAR
STARTCHAR cid1527
ENCODING -1
SWIDTH 296 0
DWIDTH 5 0
BBX 1 1 0 0
BITMAP
00
ENDCHAR
STARTCHAR cid1528
ENCODING -1
SWIDTH 296 0
DWIDTH 5 0
BBX 1 1 0 0
BITMAP
00
ENDCHAR
STARTCHAR cid1529
ENCODING -1
SWIDTH 296 0
DWIDTH 5 0
BBX 1 1 0 0
BITMAP
00
ENDCHAR
STARTCHAR cid1530
ENCODING -1
SWIDTH 296 0
DWIDTH 5 0
BBX 1 1 0 0
BITMAP
00
ENDCHAR
STARTCHAR cid1531
ENCODING -1
SWIDTH 296 0
DWIDTH 5 0
BBX 1 1 0 0
BITMAP
00
ENDCHAR
STARTCHAR cid1532
ENCODING -1
SWIDTH 296 0
DWIDTH 5 0
BBX 1 1 0 0
BITMAP
00
ENDCHAR
STARTCHAR cid1533
ENCODING -1
SWIDTH 296 0
DWIDTH 5 0
BBX 1 1 0 0
BITMAP
00
ENDCHAR
STARTCHAR cid1534
ENCODING -1
SWIDTH 296 0
DWIDTH 5 0
BBX 1 1 0 0
BITMAP
00
ENDCHAR
STARTCHAR cid1535
ENCODING -1
SWIDTH 296 0
DWIDTH 5 0
BBX 1 1 0 0
BITMAP
00
ENDCHAR
STARTCHAR cid1536
ENCODING -1
SWIDTH 296 0
DWIDTH 5 0
BBX 1 1 0 0
BITMAP
00
ENDCHAR
STARTCHAR cid1537
ENCODING -1
SWIDTH 296 0
DWIDTH 5 0
BBX 1 1 0 0
BITMAP
00
ENDCHAR
STARTCHAR cid1538
ENCODING -1
SWIDTH 296 0
DWIDTH 5 0
BBX 1 1 0 0
BITMAP
00
ENDCHAR
STARTCHAR cid1539
ENCODING -1
SWIDTH 296 0
DWIDTH 5 0
BBX 1 1 0 0
BITMAP
00
ENDCHAR
STARTCHAR cid1540
ENCODING -1
SWIDTH 296 0
DWIDTH 5 0
BBX 1 1 0 0
BITMAP
00
ENDCHAR
STARTCHAR cid1541
ENCODING -1
SWIDTH 296 0
DWIDTH 5 0
BBX 1 1 0 0
BITMAP
00
ENDCHAR
STARTCHAR cid1542
ENCODING -1
SWIDTH 296 0
DWIDTH 5 0
BBX 1 1 0 0
BITMAP
00
ENDCHAR
STARTCHAR cid1543
ENCODING -1
SWIDTH 296 0
DWIDTH 5 0
BBX 1 1 0 0
BITMAP
00
ENDCHAR
STARTCHAR cid1544
ENCODING -1
SWIDTH 296 0
DWIDTH 5 0
BBX 1 1 0 0
BITMAP
00
ENDCHAR
STARTCHAR cid1545
ENCODING -1
SWIDTH 296 0
DWIDTH 5 0
BBX 1 1 0 0
BITMAP
00
ENDCHAR
STARTCHAR cid1546
ENCODING -1
SWIDTH 296 0
DWIDTH 5 0
BBX 1 1 0 0
BITMAP
00
ENDCHAR
STARTCHAR cid1547
ENCODING -1
SWIDTH 296 0
DWIDTH 5 0
BBX 1 1 0 0
BITMAP
00
ENDCHAR
STARTCHAR cid1548
ENCODING -1
SWIDTH 296 0
DWIDTH 5 0
BBX 1 1 0 0
BITMAP
00
ENDCHAR
STARTCHAR cid1549
ENCODING -1
SWIDTH 296 0
DWIDTH 5 0
BBX 1 1 0 0
BITMAP
00
ENDCHAR
STARTCHAR cid1550
ENCODING -1
SWIDTH 296 0
DWIDTH 5 0
BBX 1 1 0 0
BITMAP
00
ENDCHAR
STARTCHAR cid1551
ENCODING -1
SWIDTH 296 0
DWIDTH 5 0
BBX 1 1 0 0
BITMAP
00
ENDCHAR
STARTCHAR cid1552
ENCODING -1
SWIDTH 296 0
DWIDTH 5 0
BBX 1 1 0 0
BITMAP
00
ENDCHAR
STARTCHAR cid1553
ENCODING -1
SWIDTH 296 0
DWIDTH 5 0
BBX 1 1 0 0
BITMAP
00
ENDCHAR
STARTCHAR cid1554
ENCODING -1
SWIDTH 296 0
DWIDTH 5 0
BBX 1 1 0 0
BITMAP
00
ENDCHAR
STARTCHAR cid1555
ENCODING -1
SWIDTH 296 0
DWIDTH 5 0
BBX 1 1 0 0
BITMAP
00
ENDCHAR
STARTCHAR cid1556
ENCODING -1
SWIDTH 296 0
DWIDTH 5 0
BBX 1 1 0 0
BITMAP
00
ENDCHAR
STARTCHAR cid1557
ENCODING -1
SWIDTH 296 0
DWIDTH 5 0
BBX 1 1 0 0
BITMAP
00
ENDCHAR
STARTCHAR cid1558
ENCODING -1
SWIDTH 296 0
DWIDTH 5 0
BBX 1 1 0 0
BITMAP
00
ENDCHAR
STARTCHAR cid1559
ENCODING -1
SWIDTH 296 0
DWIDTH 5 0
BBX 1 1 0 0
BITMAP
00
ENDCHAR
STARTCHAR cid1560
ENCODING -1
SWIDTH 296 0
DWIDTH 5 0
BBX 1 1 0 0
BITMAP
00
ENDCHAR
STARTCHAR cid1561
ENCODING -1
SWIDTH 296 0
DWIDTH 5 0
BBX 1 1 0 0
BITMAP
00
ENDCHAR
STARTCHAR cid1562
ENCODING -1
SWIDTH 296 0
DWIDTH 5 0
BBX 1 1 0 0
BITMAP
00
ENDCHAR
STARTCHAR cid1563
ENCODING -1
SWIDTH 296 0
DWIDTH 5 0
BBX 1 1 0 0
BITMAP
00
ENDCHAR
STARTCHAR cid1564
ENCODING -1
SWIDTH 296 0
DWIDTH 5 0
BBX 1 1 0 0
BITMAP
00
ENDCHAR
STARTCHAR cid1565
ENCODING -1
SWIDTH 296 0
DWIDTH 5 0
BBX 1 1 0 0
BITMAP
00
ENDCHAR
STARTCHAR cid1566
ENCODING -1
SWIDTH 296 0
DWIDTH 5 0
BBX 1 1 0 0
BITMAP
00
ENDCHAR
STARTCHAR cid1567
ENCODING -1
SWIDTH 296 0
DWIDTH 5 0
BBX 1 1 0 0
BITMAP
00
ENDCHAR
STARTCHAR cid1568
ENCODING -1
SWIDTH 296 0
DWIDTH 5 0
BBX 1 1 0 0
BITMAP
00
ENDCHAR
STARTCHAR cid1569
ENCODING -1
SWIDTH 296 0
DWIDTH 5 0
BBX 1 1 0 0
BITMAP
00
ENDCHAR
STARTCHAR cid1570
ENCODING -1
SWIDTH 296 0
DWIDTH 5 0
BBX 1 1 0 0
BITMAP
00
ENDCHAR
STARTCHAR cid1571
ENCODING -1
SWIDTH 296 0
DWIDTH 5 0
BBX 1 1 0 0
BITMAP
00
ENDCHAR
STARTCHAR cid1572
ENCODING -1
SWIDTH 296 0
DWIDTH 5 0
BBX 1 1 0 0
BITMAP
00
ENDCHAR
STARTCHAR cid1573
ENCODING -1
SWIDTH 296 0
DWIDTH 5 0
BBX 1 1 0 0
BITMAP
00
ENDCHAR
STARTCHAR cid1574
ENCODING -1
SWIDTH 296 0
DWIDTH 5 0
BBX 1 1 0 0
BITMAP
00
ENDCHAR
STARTCHAR cid1575
ENCODING -1
SWIDTH 296 0
DWIDTH 5 0
BBX 1 1 0 0
BITMAP
00
ENDCHAR
STARTCHAR cid1576
ENCODING -1
SWIDTH 296 0
DWIDTH 5 0
BBX 1 1 0 0
BITMAP
00
ENDCHAR
STARTCHAR cid1577
ENCODING -1
SWIDTH 296 0
DWIDTH 5 0
BBX 1 1 0 0
BITMAP
00
ENDCHAR
STARTCHAR cid1578
ENCODING -1
SWIDTH 296 0
DWIDTH 5 0
BBX 1 1 0 0
BITMAP
00
ENDCHAR
STARTCHAR cid1579
ENCODING -1
SWIDTH 296 0
DWIDTH 5 0
BBX 1 1 0 0
BITMAP
00
ENDCHAR
STARTCHAR cid1580
ENCODING -1
SWIDTH 296 0
DWIDTH 5 0
BBX 1 1 0 0
BITMAP
00
ENDCHAR
STARTCHAR cid1581
ENCODING -1
SWIDTH 296 0
DWIDTH 5 0
BBX 1 1 0 0
BITMAP
00
ENDCHAR
STARTCHAR cid1582
ENCODING -1
SWIDTH 296 0
DWIDTH 5 0
BBX 1 1 0 0
BITMAP
00
ENDCHAR
STARTCHAR cid1583
ENCODING -1
SWIDTH 296 0
DWIDTH 5 0
BBX 1 1 0 0
BITMAP
00
ENDCHAR
STARTCHAR cid1584
ENCODING -1
SWIDTH 296 0
DWIDTH 5 0
BBX 1 1 0 0
BITMAP
00
ENDCHAR
STARTCHAR cid1585
ENCODING -1
SWIDTH 296 0
DWIDTH 5 0
BBX 1 1 0 0
BITMAP
00
ENDCHAR
STARTCHAR cid1586
ENCODING -1
SWIDTH 296 0
DWIDTH 5 0
BBX 1 1 0 0
BITMAP
00
ENDCHAR
STARTCHAR cid1587
ENCODING -1
SWIDTH 296 0
DWIDTH 5 0
BBX 1 1 0 0
BITMAP
00
ENDCHAR
STARTCHAR cid1588
ENCODING -1
SWIDTH 296 0
DWIDTH 5 0
BBX 1 1 0 0
BITMAP
00
ENDCHAR
STARTCHAR cid1589
ENCODING -1
SWIDTH 296 0
DWIDTH 5 0
BBX 1 1 0 0
BITMAP
00
ENDCHAR
STARTCHAR cid1590
ENCODING -1
SWIDTH 296 0
DWIDTH 5 0
BBX 1 1 0 0
BITMAP
00
ENDCHAR
STARTCHAR cid1591
ENCODING -1
SWIDTH 296 0
DWIDTH 5 0
BBX 1 1 0 0
BITMAP
00
ENDCHAR
STARTCHAR cid1592
ENCODING -1
SWIDTH 296 0
DWIDTH 5 0
BBX 1 1 0 0
BITMAP
00
ENDCHAR
STARTCHAR cid1593
ENCODING -1
SWIDTH 296 0
DWIDTH 5 0
BBX 1 1 0 0
BITMAP
00
ENDCHAR
STARTCHAR cid1594
ENCODING -1
SWIDTH 296 0
DWIDTH 5 0
BBX 1 1 0 0
BITMAP
00
ENDCHAR
STARTCHAR cid1595
ENCODING -1
SWIDTH 296 0
DWIDTH 5 0
BBX 1 1 0 0
BITMAP
00
ENDCHAR
STARTCHAR cid1596
ENCODING -1
SWIDTH 296 0
DWIDTH 5 0
BBX 1 1 0 0
BITMAP
00
ENDCHAR
STARTCHAR cid1597
ENCODING -1
SWIDTH 296 0
DWIDTH 5 0
BBX 1 1 0 0
BITMAP
00
ENDCHAR
STARTCHAR cid1598
ENCODING -1
SWIDTH 296 0
DWIDTH 5 0
BBX 1 1 0 0
BITMAP
00
ENDCHAR
STARTCHAR cid1599
ENCODING -1
SWIDTH 296 0
DWIDTH 5 0
BBX 1 1 0 0
BITMAP
00
ENDCHAR
STARTCHAR cid1600
ENCODING -1
SWIDTH 296 0
DWIDTH 5 0
BBX 1 1 0 0
BITMAP
00
ENDCHAR
STARTCHAR cid1601
ENCODING -1
SWIDTH 296 0
DWIDTH 5 0
BBX 1 1 0 0
BITMAP
00
ENDCHAR
STARTCHAR cid1602
ENCODING -1
SWIDTH 296 0
DWIDTH 5 0
BBX 1 1 0 0
BITMAP
00
ENDCHAR
STARTCHAR cid1603
ENCODING -1
SWIDTH 296 0
DWIDTH 5 0
BBX 1 1 0 0
BITMAP
00
ENDCHAR
STARTCHAR cid1604
ENCODING -1
SWIDTH 296 0
DWIDTH 5 0
BBX 1 1 0 0
BITMAP
00
ENDCHAR
STARTCHAR cid1605
ENCODING -1
SWIDTH 296 0
DWIDTH 5 0
BBX 1 1 0 0
BITMAP
00
ENDCHAR
STARTCHAR cid1606
ENCODING -1
SWIDTH 296 0
DWIDTH 5 0
BBX 1 1 0 0
BITMAP
00
ENDCHAR
STARTCHAR cid1607
ENCODING -1
SWIDTH 296 0
DWIDTH 5 0
BBX 1 1 0 0
BITMAP
00
ENDCHAR
STARTCHAR cid1608
ENCODING -1
SWIDTH 296 0
DWIDTH 5 0
BBX 1 1 0 0
BITMAP
00
ENDCHAR
STARTCHAR cid1609
ENCODING -1
SWIDTH 296 0
DWIDTH 5 0
BBX 1 1 0 0
BITMAP
00
ENDCHAR
STARTCHAR cid1610
ENCODING -1
SWIDTH 296 0
DWIDTH 5 0
BBX 1 1 0 0
BITMAP
00
ENDCHAR
STARTCHAR cid1611
ENCODING -1
SWIDTH 296 0
DWIDTH 5 0
BBX 1 1 0 0
BITMAP
00
ENDCHAR
STARTCHAR cid1612
ENCODING -1
SWIDTH 296 0
DWIDTH 5 0
BBX 1 1 0 0
BITMAP
00
ENDCHAR
STARTCHAR cid1613
ENCODING -1
SWIDTH 296 0
DWIDTH 5 0
BBX 1 1 0 0
BITMAP
00
ENDCHAR
STARTCHAR cid1614
ENCODING -1
SWIDTH 296 0
DWIDTH 5 0
BBX 1 1 0 0
BITMAP
00
ENDCHAR
STARTCHAR cid1615
ENCODING -1
SWIDTH 296 0
DWIDTH 5 0
BBX 1 1 0 0
BITMAP
00
ENDCHAR
STARTCHAR cid1616
ENCODING -1
SWIDTH 296 0
DWIDTH 5 0
BBX 1 1 0 0
BITMAP
00
ENDCHAR
STARTCHAR cid1617
ENCODING -1
SWIDTH 296 0
DWIDTH 5 0
BBX 1 1 0 0
BITMAP
00
ENDCHAR
STARTCHAR cid1618
ENCODING -1
SWIDTH 296 0
DWIDTH 5 0
BBX 1 1 0 0
BITMAP
00
ENDCHAR
STARTCHAR cid1619
ENCODING -1
SWIDTH 296 0
DWIDTH 5 0
BBX 1 1 0 0
BITMAP
00
ENDCHAR
STARTCHAR cid1620
ENCODING -1
SWIDTH 296 0
DWIDTH 5 0
BBX 1 1 0 0
BITMAP
00
ENDCHAR
STARTCHAR cid1621
ENCODING -1
SWIDTH 296 0
DWIDTH 5 0
BBX 1 1 0 0
BITMAP
00
ENDCHAR
STARTCHAR cid1622
ENCODING -1
SWIDTH 296 0
DWIDTH 5 0
BBX 1 1 0 0
BITMAP
00
ENDCHAR
STARTCHAR cid1623
ENCODING -1
SWIDTH 296 0
DWIDTH 5 0
BBX 1 1 0 0
BITMAP
00
ENDCHAR
STARTCHAR cid1624
ENCODING -1
SWIDTH 296 0
DWIDTH 5 0
BBX 1 1 0 0
BITMAP
00
ENDCHAR
STARTCHAR cid1625
ENCODING -1
SWIDTH 296 0
DWIDTH 5 0
BBX 1 1 0 0
BITMAP
00
ENDCHAR
STARTCHAR cid1626
ENCODING -1
SWIDTH 296 0
DWIDTH 5 0
BBX 1 1 0 0
BITMAP
00
ENDCHAR
STARTCHAR cid1627
ENCODING -1
SWIDTH 296 0
DWIDTH 5 0
BBX 1 1 0 0
BITMAP
00
ENDCHAR
STARTCHAR cid1628
ENCODING -1
SWIDTH 296 0
DWIDTH 5 0
BBX 1 1 0 0
BITMAP
00
ENDCHAR
STARTCHAR cid1629
ENCODING -1
SWIDTH 296 0
DWIDTH 5 0
BBX 1 1 0 0
BITMAP
00
ENDCHAR
STARTCHAR cid1630
ENCODING -1
SWIDTH 296 0
DWIDTH 5 0
BBX 1 1 0 0
BITMAP
00
ENDCHAR
STARTCHAR cid1631
ENCODING -1
SWIDTH 296 0
DWIDTH 5 0
BBX 1 1 0 0
BITMAP
00
ENDCHAR
STARTCHAR cid1632
ENCODING -1
SWIDTH 296 0
DWIDTH 5 0
BBX 1 1 0 0
BITMAP
00
ENDCHAR
STARTCHAR cid1633
ENCODING -1
SWIDTH 296 0
DWIDTH 5 0
BBX 1 1 0 0
BITMAP
00
ENDCHAR
STARTCHAR cid1634
ENCODING -1
SWIDTH 296 0
DWIDTH 5 0
BBX 1 1 0 0
BITMAP
00
ENDCHAR
STARTCHAR cid1635
ENCODING -1
SWIDTH 296 0
DWIDTH 5 0
BBX 1 1 0 0
BITMAP
00
ENDCHAR
STARTCHAR cid1636
ENCODING -1
SWIDTH 296 0
DWIDTH 5 0
BBX 1 1 0 0
BITMAP
00
ENDCHAR
STARTCHAR cid1637
ENCODING -1
SWIDTH 296 0
DWIDTH 5 0
BBX 1 1 0 0
BITMAP
00
ENDCHAR
STARTCHAR cid1638
ENCODING -1
SWIDTH 296 0
DWIDTH 5 0
BBX 1 1 0 0
BITMAP
00
ENDCHAR
STARTCHAR cid1639
ENCODING -1
SWIDTH 296 0
DWIDTH 5 0
BBX 1 1 0 0
BITMAP
00
ENDCHAR
STARTCHAR cid1640
ENCODING -1
SWIDTH 296 0
DWIDTH 5 0
BBX 1 1 0 0
BITMAP
00
ENDCHAR
STARTCHAR cid1641
ENCODING -1
SWIDTH 296 0
DWIDTH 5 0
BBX 1 1 0 0
BITMAP
00
ENDCHAR
STARTCHAR cid1642
ENCODING -1
SWIDTH 296 0
DWIDTH 5 0
BBX 1 1 0 0
BITMAP
00
ENDCHAR
STARTCHAR cid1643
ENCODING -1
SWIDTH 296 0
DWIDTH 5 0
BBX 1 1 0 0
BITMAP
00
ENDCHAR
STARTCHAR cid1644
ENCODING -1
SWIDTH 296 0
DWIDTH 5 0
BBX 1 1 0 0
BITMAP
00
ENDCHAR
STARTCHAR cid1645
ENCODING -1
SWIDTH 296 0
DWIDTH 5 0
BBX 1 1 0 0
BITMAP
00
ENDCHAR
STARTCHAR cid1646
ENCODING -1
SWIDTH 296 0
DWIDTH 5 0
BBX 1 1 0 0
BITMAP
00
ENDCHAR
STARTCHAR cid1647
ENCODING -1
SWIDTH 296 0
DWIDTH 5 0
BBX 1 1 0 0
BITMAP
00
ENDCHAR
STARTCHAR cid1648
ENCODING -1
SWIDTH 296 0
DWIDTH 5 0
BBX 1 1 0 0
BITMAP
00
ENDCHAR
STARTCHAR cid1649
ENCODING -1
SWIDTH 296 0
DWIDTH 5 0
BBX 1 1 0 0
BITMAP
00
ENDCHAR
STARTCHAR cid1650
ENCODING -1
SWIDTH 296 0
DWIDTH 5 0
BBX 1 1 0 0
BITMAP
00
ENDCHAR
STARTCHAR cid1651
ENCODING -1
SWIDTH 296 0
DWIDTH 5 0
BBX 1 1 0 0
BITMAP
00
ENDCHAR
STARTCHAR cid1652
ENCODING -1
SWIDTH 296 0
DWIDTH 5 0
BBX 1 1 0 0
BITMAP
00
ENDCHAR
STARTCHAR cid1653
ENCODING -1
SWIDTH 296 0
DWIDTH 5 0
BBX 1 1 0 0
BITMAP
00
ENDCHAR
STARTCHAR cid1654
ENCODING -1
SWIDTH 296 0
DWIDTH 5 0
BBX 1 1 0 0
BITMAP
00
ENDCHAR
STARTCHAR cid1655
ENCODING -1
SWIDTH 296 0
DWIDTH 5 0
BBX 1 1 0 0
BITMAP
00
ENDCHAR
STARTCHAR cid1656
ENCODING -1
SWIDTH 296 0
DWIDTH 5 0
BBX 1 1 0 0
BITMAP
00
ENDCHAR
STARTCHAR cid1657
ENCODING -1
SWIDTH 296 0
DWIDTH 5 0
BBX 1 1 0 0
BITMAP
00
ENDCHAR
STARTCHAR cid1658
ENCODING -1
SWIDTH 296 0
DWIDTH 5 0
BBX 1 1 0 0
BITMAP
00
ENDCHAR
STARTCHAR cid1659
ENCODING -1
SWIDTH 296 0
DWIDTH 5 0
BBX 1 1 0 0
BITMAP
00
ENDCHAR
STARTCHAR cid1660
ENCODING -1
SWIDTH 296 0
DWIDTH 5 0
BBX 1 1 0 0
BITMAP
00
ENDCHAR
STARTCHAR cid1661
ENCODING -1
SWIDTH 296 0
DWIDTH 5 0
BBX 1 1 0 0
BITMAP
00
ENDCHAR
STARTCHAR cid1662
ENCODING -1
SWIDTH 296 0
DWIDTH 5 0
BBX 1 1 0 0
BITMAP
00
ENDCHAR
STARTCHAR cid1663
ENCODING -1
SWIDTH 296 0
DWIDTH 5 0
BBX 1 1 0 0
BITMAP
00
ENDCHAR
STARTCHAR cid1664
ENCODING -1
SWIDTH 296 0
DWIDTH 5 0
BBX 1 1 0 0
BITMAP
00
ENDCHAR
STARTCHAR cid1665
ENCODING -1
SWIDTH 296 0
DWIDTH 5 0
BBX 1 1 0 0
BITMAP
00
ENDCHAR
STARTCHAR cid1666
ENCODING -1
SWIDTH 296 0
DWIDTH 5 0
BBX 1 1 0 0
BITMAP
00
ENDCHAR
STARTCHAR cid1667
ENCODING -1
SWIDTH 296 0
DWIDTH 5 0
BBX 1 1 0 0
BITMAP
00
ENDCHAR
STARTCHAR cid1668
ENCODING -1
SWIDTH 296 0
DWIDTH 5 0
BBX 1 1 0 0
BITMAP
00
ENDCHAR
STARTCHAR cid1669
ENCODING -1
SWIDTH 296 0
DWIDTH 5 0
BBX 1 1 0 0
BITMAP
00
ENDCHAR
STARTCHAR cid1670
ENCODING -1
SWIDTH 296 0
DWIDTH 5 0
BBX 1 1 0 0
BITMAP
00
ENDCHAR
STARTCHAR cid1671
ENCODING -1
SWIDTH 296 0
DWIDTH 5 0
BBX 1 1 0 0
BITMAP
00
ENDCHAR
STARTCHAR cid1672
ENCODING -1
SWIDTH 296 0
DWIDTH 5 0
BBX 1 1 0 0
BITMAP
00
ENDCHAR
STARTCHAR cid1673
ENCODING -1
SWIDTH 296 0
DWIDTH 5 0
BBX 1 1 0 0
BITMAP
00
ENDCHAR
STARTCHAR cid1674
ENCODING -1
SWIDTH 296 0
DWIDTH 5 0
BBX 1 1 0 0
BITMAP
00
ENDCHAR
STARTCHAR cid1675
ENCODING -1
SWIDTH 296 0
DWIDTH 5 0
BBX 1 1 0 0
BITMAP
00
ENDCHAR
STARTCHAR cid1676
ENCODING -1
SWIDTH 296 0
DWIDTH 5 0
BBX 1 1 0 0
BITMAP
00
ENDCHAR
STARTCHAR cid1677
ENCODING -1
SWIDTH 296 0
DWIDTH 5 0
BBX 1 1 0 0
BITMAP
00
ENDCHAR
STARTCHAR cid1678
ENCODING -1
SWIDTH 296 0
DWIDTH 5 0
BBX 1 1 0 0
BITMAP
00
ENDCHAR
STARTCHAR cid1679
ENCODING -1
SWIDTH 296 0
DWIDTH 5 0
BBX 1 1 0 0
BITMAP
00
ENDCHAR
STARTCHAR cid1680
ENCODING -1
SWIDTH 296 0
DWIDTH 5 0
BBX 1 1 0 0
BITMAP
00
ENDCHAR
STARTCHAR cid1681
ENCODING -1
SWIDTH 296 0
DWIDTH 5 0
BBX 1 1 0 0
BITMAP
00
ENDCHAR
STARTCHAR cid1682
ENCODING -1
SWIDTH 296 0
DWIDTH 5 0
BBX 1 1 0 0
BITMAP
00
ENDCHAR
STARTCHAR cid1683
ENCODING -1
SWIDTH 296 0
DWIDTH 5 0
BBX 1 1 0 0
BITMAP
00
ENDCHAR
STARTCHAR cid1684
ENCODING -1
SWIDTH 296 0
DWIDTH 5 0
BBX 1 1 0 0
BITMAP
00
ENDCHAR
STARTCHAR cid1685
ENCODING -1
SWIDTH 296 0
DWIDTH 5 0
BBX 1 1 0 0
BITMAP
00
ENDCHAR
STARTCHAR cid1686
ENCODING -1
SWIDTH 296 0
DWIDTH 5 0
BBX 1 1 0 0
BITMAP
00
ENDCHAR
STARTCHAR cid1687
ENCODING -1
SWIDTH 296 0
DWIDTH 5 0
BBX 1 1 0 0
BITMAP
00
ENDCHAR
STARTCHAR cid1688
ENCODING -1
SWIDTH 296 0
DWIDTH 5 0
BBX 1 1 0 0
BITMAP
00
ENDCHAR
STARTCHAR cid1689
ENCODING -1
SWIDTH 296 0
DWIDTH 5 0
BBX 1 1 0 0
BITMAP
00
ENDCHAR
STARTCHAR cid1690
ENCODING -1
SWIDTH 296 0
DWIDTH 5 0
BBX 1 1 0 0
BITMAP
00
ENDCHAR
STARTCHAR cid1691
ENCODING -1
SWIDTH 296 0
DWIDTH 5 0
BBX 1 1 0 0
BITMAP
00
ENDCHAR
STARTCHAR cid1692
ENCODING -1
SWIDTH 296 0
DWIDTH 5 0
BBX 1 1 0 0
BITMAP
00
ENDCHAR
STARTCHAR cid1693
ENCODING -1
SWIDTH 296 0
DWIDTH 5 0
BBX 1 1 0 0
BITMAP
00
ENDCHAR
STARTCHAR cid1694
ENCODING -1
SWIDTH 296 0
DWIDTH 5 0
BBX 1 1 0 0
BITMAP
00
ENDCHAR
STARTCHAR cid1695
ENCODING -1
SWIDTH 296 0
DWIDTH 5 0
BBX 1 1 0 0
BITMAP
00
ENDCHAR
STARTCHAR cid1696
ENCODING -1
SWIDTH 296 0
DWIDTH 5 0
BBX 1 1 0 0
BITMAP
00
ENDCHAR
STARTCHAR cid1697
ENCODING -1
SWIDTH 296 0
DWIDTH 5 0
BBX 1 1 0 0
BITMAP
00
ENDCHAR
STARTCHAR cid1698
ENCODING -1
SWIDTH 296 0
DWIDTH 5 0
BBX 1 1 0 0
BITMAP
00
ENDCHAR
STARTCHAR cid1699
ENCODING -1
SWIDTH 296 0
DWIDTH 5 0
BBX 1 1 0 0
BITMAP
00
ENDCHAR
STARTCHAR cid1700
ENCODING -1
SWIDTH 296 0
DWIDTH 5 0
BBX 1 1 0 0
BITMAP
00
ENDCHAR
STARTCHAR cid1701
ENCODING -1
SWIDTH 296 0
DWIDTH 5 0
BBX 1 1 0 0
BITMAP
00
ENDCHAR
STARTCHAR cid1702
ENCODING -1
SWIDTH 296 0
DWIDTH 5 0
BBX 1 1 0 0
BITMAP
00
ENDCHAR
STARTCHAR cid1703
ENCODING -1
SWIDTH 296 0
DWIDTH 5 0
BBX 1 1 0 0
BITMAP
00
ENDCHAR
STARTCHAR cid1704
ENCODING -1
SWIDTH 296 0
DWIDTH 5 0
BBX 1 1 0 0
BITMAP
00
ENDCHAR
STARTCHAR cid1705
ENCODING -1
SWIDTH 296 0
DWIDTH 5 0
BBX 1 1 0 0
BITMAP
00
ENDCHAR
STARTCHAR cid1706
ENCODING -1
SWIDTH 296 0
DWIDTH 5 0
BBX 1 1 0 0
BITMAP
00
ENDCHAR
STARTCHAR cid1707
ENCODING -1
SWIDTH 296 0
DWIDTH 5 0
BBX 1 1 0 0
BITMAP
00
ENDCHAR
STARTCHAR cid1708
ENCODING -1
SWIDTH 296 0
DWIDTH 5 0
BBX 1 1 0 0
BITMAP
00
ENDCHAR
STARTCHAR cid1709
ENCODING -1
SWIDTH 296 0
DWIDTH 5 0
BBX 1 1 0 0
BITMAP
00
ENDCHAR
STARTCHAR cid1710
ENCODING -1
SWIDTH 296 0
DWIDTH 5 0
BBX 1 1 0 0
BITMAP
00
ENDCHAR
STARTCHAR cid1711
ENCODING -1
SWIDTH 296 0
DWIDTH 5 0
BBX 1 1 0 0
BITMAP
00
ENDCHAR
STARTCHAR cid1712
ENCODING -1
SWIDTH 296 0
DWIDTH 5 0
BBX 1 1 0 0
BITMAP
00
ENDCHAR
STARTCHAR cid1713
ENCODING -1
SWIDTH 296 0
DWIDTH 5 0
BBX 1 1 0 0
BITMAP
00
ENDCHAR
STARTCHAR cid1714
ENCODING -1
SWIDTH 296 0
DWIDTH 5 0
BBX 1 1 0 0
BITMAP
00
ENDCHAR
STARTCHAR cid1715
ENCODING -1
SWIDTH 296 0
DWIDTH 5 0
BBX 1 1 0 0
BITMAP
00
ENDCHAR
STARTCHAR cid1716
ENCODING -1
SWIDTH 296 0
DWIDTH 5 0
BBX 1 1 0 0
BITMAP
00
ENDCHAR
STARTCHAR cid1717
ENCODING -1
SWIDTH 296 0
DWIDTH 5 0
BBX 1 1 0 0
BITMAP
00
ENDCHAR
STARTCHAR cid1718
ENCODING -1
SWIDTH 296 0
DWIDTH 5 0
BBX 1 1 0 0
BITMAP
00
ENDCHAR
STARTCHAR cid1719
ENCODING -1
SWIDTH 296 0
DWIDTH 5 0
BBX 1 1 0 0
BITMAP
00
ENDCHAR
STARTCHAR cid1720
ENCODING -1
SWIDTH 296 0
DWIDTH 5 0
BBX 1 1 0 0
BITMAP
00
ENDCHAR
STARTCHAR cid1721
ENCODING -1
SWIDTH 296 0
DWIDTH 5 0
BBX 1 1 0 0
BITMAP
00
ENDCHAR
STARTCHAR cid1722
ENCODING -1
SWIDTH 296 0
DWIDTH 5 0
BBX 1 1 0 0
BITMAP
00
ENDCHAR
STARTCHAR cid1723
ENCODING -1
SWIDTH 296 0
DWIDTH 5 0
BBX 1 1 0 0
BITMAP
00
ENDCHAR
STARTCHAR cid1724
ENCODING -1
SWIDTH 296 0
DWIDTH 5 0
BBX 1 1 0 0
BITMAP
00
ENDCHAR
STARTCHAR cid1725
ENCODING -1
SWIDTH 296 0
DWIDTH 5 0
BBX 1 1 0 0
BITMAP
00
ENDCHAR
ENDFONT
